SplineFontDB: 3.0
FontName: FanwoodText
FullName: Fanwood Text
FamilyName: Fanwood Text
Weight: Regular
Copyright: Copyright (c) 2011, Barry Schwartz
UComments: "10pt on 11pt body: Scan 6400, cut 1000, scale 105%; print at 11pt to match original size." 
Version: 1.1
ItalicAngle: 0
UnderlinePosition: -100
UnderlineWidth: 50
Ascent: 690
Descent: 310
LayerCount: 3
Layer: 0 0 "Back"  1
Layer: 1 0 "Fore"  0
Layer: 2 0 "backup"  0
NeedsXUIDChange: 1
XUID: [1021 658 797806517 11107023]
FSType: 0
OS2Version: 0
OS2_WeightWidthSlopeOnly: 0
OS2_UseTypoMetrics: 1
CreationTime: 1287776574
ModificationTime: 1295292039
OS2TypoAscent: 0
OS2TypoAOffset: 1
OS2TypoDescent: 0
OS2TypoDOffset: 1
OS2TypoLinegap: 90
OS2WinAscent: 0
OS2WinAOffset: 1
OS2WinDescent: 0
OS2WinDOffset: 1
HheadAscent: 0
HheadAOffset: 1
HheadDescent: 0
HheadDOffset: 1
OS2Vendor: 'PfEd'
Lookup: 3 0 0 "'aalt' Access All Alternates lookup 0"  {"'aalt' Access All Alternates lookup 0 subtable"  } ['aalt' ('DFLT' <'dflt' > ) ]
Lookup: 3 0 0 "'aalt' Access All Alternates in Latin lookup 0"  {"'aalt' Access All Alternates in Latin lookup 0 subtable"  } ['aalt' ('latn' <'CAT ' 'ROM ' 'MOL ' 'TRK ' 'AZE ' 'CRT ' 'dflt' > ) ]
Lookup: 1 0 0 "catalan"  {"catalan subtable"  } ['locl' ('latn' <'CAT ' > ) ]
Lookup: 1 0 0 "romanian"  {"romanian subtable"  } ['locl' ('latn' <'ROM ' 'MOL ' > ) ]
Lookup: 1 0 0 "turkish"  {"turkish subtable"  } ['locl' ('latn' <'TRK ' 'AZE ' 'CRT ' > ) ]
Lookup: 1 0 0 "numerators"  {"numerators subtable"  } ['frac' ('latn' <'dflt' 'CAT ' 'ROM ' 'MOL ' 'TRK ' 'AZE ' 'CRT ' > 'DFLT' <'dflt' > ) 'numr' ('latn' <'dflt' 'CAT ' 'ROM ' 'MOL ' 'TRK ' 'AZE ' 'CRT ' > 'DFLT' <'dflt' > ) ]
Lookup: 1 0 0 "denominators"  {"denominators subtable"  } ['dnom' ('latn' <'dflt' 'CAT ' 'ROM ' 'MOL ' 'TRK ' 'AZE ' 'CRT ' > 'DFLT' <'dflt' > ) ]

StartChar: a
Encoding: 97 97 0
Width: 419
VWidth: 0
Flags: HW
AnchorPoint: "top" 201 500 basechar 0
AnchorPoint: "l;bl" 0 10 basechar 0
AnchorPoint: "l;x" 10 380 basechar 0
AnchorPoint: "l;o" 0 200 basechar 0
AnchorPoint: "r;bl" 419 10 basechar 0
AnchorPoint: "r;o" 419 200 basechar 0
LayerCount: 3
Fore
SplineSet
111.733384694 278.550038521 m 0
 95.3189908819 266.239243161 62.9900088536 250 57 250 c 0
 49.4005645551 250 46 256.847039329 46 268 c 0
 46 352.379046176 135.001519214 402 201 402 c 0
 303.653563087 402 335 348.058149691 335 268 c 0
 335 216.882077674 329 85.7997385861 329 64 c 0
 329 54.4480584768 333.294147167 37.7172374223 347.750362389 36.987584995 c 1
 352.599978183 38.5589518708 380.232983702 61 386 61 c 0
 392.377324989 61 402 50.7839820982 402 43 c 0
 402 35.2146687964 356.998348944 6.0497305651 335.717067097 -8.46023433078 c 1
 328.759707144 -13.4297771541 319.182676378 -20 308 -20 c 0
 274.445161005 -20 268.271098941 23.4037496863 266.121506078 34.7600893382 c 1
 261.461121122 31.8132555937 255.533446618 27.4126213427 249.444691707 24.368243887 c 0
 229.317109255 12.2916944159 176.200876214 -17 133 -17 c 0
 69.7726427472 -17 32 18.1899677177 32 71 c 0
 32 163.11230427 159.964042142 205.037734268 258.492279624 221.956724542 c 0
 258.559857906 221.968328894 l 1
 258.627895796 221.97683363 l 0
 263.815577477 222.62529384 264 226.324331729 264 235 c 0
 264 305.602518767 263.04571204 371 180 371 c 0
 170.210991775 371 159.530775055 369.981211138 150.148135638 366.228155371 c 1
 123.616671161 354.857527738 120.998468725 341.901254855 120 301.962505858 c 1
 120 296.083106985 119.519575431 283.740832345 111.733384694 278.550038521 c 0
261.209894233 200.010219362 m 0
 257.736174622 199.839045299 228.217338521 193.926400366 199.912120521 185.142022366 c 0
 152.953627557 170.155269293 108 143.652225774 108 99 c 0
 108 68.1935216588 130.079096514 33 170 33 c 0
 210.432613119 33 258.766014387 53.6410171788 264 58.7000063127 c 1
 264 192 l 0
 264 199.47801927 262.951910825 199.818672949 261.209894233 200.010219362 c 0
EndSplineSet
Layer: 2
SplineSet
258.088432032 12.383732736 m 1
 234.240515221 -1.49707101 183.429978575 -29 136 -29 c 0
 66.4307855016 -29 18 10.0930811116 18 71 c 0
 18 178.400737642 158.246405606 220.258569318 249.999810025 237.176610896 c 1
 249.973609598 308.429794011 248.875080523 349 183 349 c 0
 174.529705906 349 165.103810342 347.879028607 159.281252412 345.730506632 c 1
 140.026698137 338.075045974 141.00025466 338.740415021 140 301.610491789 c 1
 140 296.610965031 141.646587626 273.726390562 125.070332879 260.895255048 c 0
 124.548742898 260.491509338 l 1
 123.993726808 260.13510529 l 0
 105.829753765 248.47109475 75.0731854717 233 60 233 c 0
 36.9492972678 233 32 255.756160844 32 268 c 0
 32 363.118892841 132.898014091 414 204 414 c 0
 315.788083158 414 355 351.711791824 355 268 c 0
 355 216.222915833 349 84.6554889145 349 64 c 0
 349 63.2855388603 349.618031943 61.6802156624 349.618031943 61.6802156624 c 1
 360.401932582 70.2839151919 374.389830296 83 389 83 c 0
 410.225298526 83 422 58.6923441096 422 43 c 0
 422 16.7845656435 363.380648272 -8.90027728015 347.99471851 -18.5744460545 c 1
 341.424532514 -22.9240110471 328.239721994 -32 311 -32 c 0
 277.313263481 -32 263.431420873 -3.23331045526 258.088432032 12.383732736 c 1
250 179.399877826 m 1
 236.281091584 176.176210946 223.445317082 173.169229206 207.227993912 168.695465359 c 0
 161.010857335 156.177909101 128 130.715280737 128 99 c 0
 128 78.3503729656 143.827320817 55 173 55 c 0
 199.91395921 55 235.969318584 67.0703657498 250 72.8579468434 c 1
 250 179.399877826 l 1
EndSplineSet
AlternateSubs2: "'aalt' Access All Alternates lookup 0 subtable" a.sc a.sub a.sup a.denom a.numer
AlternateSubs2: "'aalt' Access All Alternates in Latin lookup 0 subtable" a.sc a.sub a.sup a.denom a.numer
Substitution2: "'smcp' Lowercase to Small Capitals in Latin lookup 11 subtable" a.sc
Substitution2: "'subs' Subscript in Latin lookup 8 subtable" a.sub
Substitution2: "'sups' Superscript in Latin lookup 7 subtable" a.sup
Substitution2: "denominators subtable" a.denom
Substitution2: "numerators subtable" a.numer
EndChar

StartChar: b
Encoding: 98 98 1
Width: 485
VWidth: 0
Flags: HW
AnchorPoint: "top" 129 780 basechar 0
AnchorPoint: "l;bl" 0 10 basechar 0
AnchorPoint: "l;x" 0 380 basechar 0
AnchorPoint: "l;hi" 0 650 basechar 0
AnchorPoint: "l;o" 5 200 basechar 0
AnchorPoint: "r;o" 485 200 basechar 0
LayerCount: 3
Fore
SplineSet
9.84417157117 663 m 0
 57.9631875799 668.012397501 146.268722388 679 152 679 c 0
 161.911235151 679 161 665.593345233 161 660.97569752 c 1
 160.999233194 660.928371771 158 475.962655823 158 394 c 0
 158 377.873759669 158.075959271 364.927530994 158.33381413 360.093896713 c 1
 172.227354526 366.257250179 218.586653255 389 263 389 c 0
 377.758237006 389 458 298.479522217 458 188 c 0
 458 56.9664416878 349.149388434 -16 234 -16 c 0
 196.898734544 -16 171.576068208 3 145 3 c 0
 126.477543482 3 109.489852214 -15 96 -15 c 0
 86.4774294223 -15 81 -9.24449419539 81 1 c 0
 81 7.2336148044 86 130.05312898 86 197 c 0
 86 229.565976119 81.3816654985 606.843385696 70.7512620421 635.929308056 c 1
 59.3037360163 635.020516651 15.5669475913 630 11 630 c 0
 4.95250196803 630 2 632.952501968 2 639 c 0
 2 643.063252035 1.0775504386 663 9.84417157117 663 c 0
158.000027091 331.619643266 m 1
 157.984951532 228.973463456 156 97.3180249748 156 64 c 0
 156 18.3937684989 208.168928162 17 237 17 c 0
 328.779934607 17 380 98.9556483803 380 187 c 0
 380 274.493715225 308.115355319 354 223 354 c 0
 191.760054381 354 161.241508042 336.155161376 158.000027091 331.619643266 c 1
EndSplineSet
AlternateSubs2: "'aalt' Access All Alternates lookup 0 subtable" b.sc b.sub b.sup b.denom b.numer
AlternateSubs2: "'aalt' Access All Alternates in Latin lookup 0 subtable" b.sc b.sub b.sup b.denom b.numer
Substitution2: "'smcp' Lowercase to Small Capitals in Latin lookup 11 subtable" b.sc
Substitution2: "'subs' Subscript in Latin lookup 8 subtable" b.sub
Substitution2: "'sups' Superscript in Latin lookup 7 subtable" b.sup
Substitution2: "denominators subtable" b.denom
Substitution2: "numerators subtable" b.numer
EndChar

StartChar: c
Encoding: 99 99 2
Width: 412
VWidth: 0
Flags: HW
AnchorPoint: "cedilla" 231 -100 basechar 0
AnchorPoint: "top" 231 500 basechar 0
AnchorPoint: "l;o" 0 200 basechar 0
AnchorPoint: "r;bl" 412 10 basechar 0
AnchorPoint: "r;x" 412 380 basechar 0
AnchorPoint: "r;o" 412 200 basechar 0
LayerCount: 3
Fore
SplineSet
103 202 m 0
 103 119.082564231 153.066620017 37 254 37 c 0
 322.743156243 37 364.207485386 67 375 67 c 0
 380.411512026 67 385 63.4115120256 385 56 c 0
 385 46.2617960748 323.285375141 -13 224 -13 c 0
 105.471798254 -13 32 62.4686972354 32 177 c 0
 32 326.737673179 142.520380792 402 241 402 c 0
 306.81830625 402 377 356.643931325 377 303 c 0
 377 294.388460114 374.488909454 287.116682091 365.821051012 280.615788259 c 1
 356.563073693 273.415139233 344.178904943 267 334 267 c 0
 325.439820457 267 317.629477588 269.624734256 314.163373182 280.023047472 c 1
 297.839177565 325.934847647 295.596064967 369 235 369 c 0
 152.488947712 369 103 280.199286162 103 202 c 0
EndSplineSet
AlternateSubs2: "'aalt' Access All Alternates lookup 0 subtable" c.sc c.sub c.sup c.denom c.numer
AlternateSubs2: "'aalt' Access All Alternates in Latin lookup 0 subtable" c.sc c.sub c.sup c.denom c.numer
Substitution2: "'smcp' Lowercase to Small Capitals in Latin lookup 11 subtable" c.sc
Substitution2: "'subs' Subscript in Latin lookup 8 subtable" c.sub
Substitution2: "'sups' Superscript in Latin lookup 7 subtable" c.sup
Substitution2: "denominators subtable" c.denom
Substitution2: "numerators subtable" c.numer
EndChar

StartChar: d
Encoding: 100 100 3
Width: 499
VWidth: 0
Flags: HW
AnchorPoint: "top" 362 780 basechar 0
AnchorPoint: "caron" 450 550 basechar 0
AnchorPoint: "l;o" 0 200 basechar 0
AnchorPoint: "r;bl" 499 10 basechar 0
AnchorPoint: "r;x" 499 380 basechar 0
AnchorPoint: "r;hi" 499 650 basechar 0
AnchorPoint: "r;o" 499 200 basechar 0
LayerCount: 3
Fore
SplineSet
27 181 m 0
 27 295.691452823 116.448433677 382 233 382 c 0
 290.263920283 382 331.146779172 358.404503436 336.390072246 356.033943809 c 1
 338.03653443 356.57654208 339 362.661396017 339 371 c 0
 339 464.303687961 332.79924241 618.486891982 329.774389295 639.74884796 c 1
 315.658468317 637.89520471 272.313096128 631 265 631 c 0
 256.342947291 631 256.148736478 636.254358784 258.030151519 649.424264069 c 0
 258.977848318 656.058141661 260.158613385 663.567816829 268.570366428 664.96977567 c 1
 325.845739107 672.003593367 394.052398313 683 400 683 c 0
 411.310044061 683 413 677.512958195 413 657 c 0
 413 622.819309301 407 494.001691396 407 184 c 0
 407 152.062345528 407.999961036 100.041402024 408.998335533 64.0999201172 c 0
 410.342744119 23.7578133774 415.368315044 18.111328125 429.111328125 18.111328125 c 0
 436.806996773 18.111328125 447.896032925 20.3026573467 462.644543304 21.9789145686 c 1
 470.485472286 22.9590306913 477 23.0471047129 477 11 c 0
 477 -3.08344593738 475.911861279 -8.74116282739 461.422150121 -10.9703491593 c 1
 346.194827009 -26 l 1
 346 -26 l 0
 339.335283025 -26 337 -19.3641862648 337 -14 c 0
 337 -11.8403553177 338 18.1248232415 338 22 c 0
 338 25.5637308406 337.574690599 28.0368990126 337.438010392 28.363412841 c 1
 336.192987842 28.2711140914 333.039633058 26.9590533279 327.599505886 23.4618287176 c 1
 293.265524511 2.25554610308 249.840374523 -16 206 -16 c 0
 115.685606242 -16 27 35.3494407011 27 181 c 0
339 57 m 2
 339 307 l 0
 339 316.695910996 296.378227846 356 245 356 c 0
 159.235433393 356 106 276.016537491 106 188 c 0
 106 96.0366809522 148.887904654 27 255 27 c 0
 281.887384192 27 339 43.3211105477 339 57 c 2
EndSplineSet
AlternateSubs2: "'aalt' Access All Alternates lookup 0 subtable" d.sc d.sub d.sup d.denom d.numer
AlternateSubs2: "'aalt' Access All Alternates in Latin lookup 0 subtable" d.sc d.sub d.sup d.denom d.numer
Substitution2: "'smcp' Lowercase to Small Capitals in Latin lookup 11 subtable" d.sc
Substitution2: "'subs' Subscript in Latin lookup 8 subtable" d.sub
Substitution2: "'sups' Superscript in Latin lookup 7 subtable" d.sup
Substitution2: "denominators subtable" d.denom
Substitution2: "numerators subtable" d.numer
EndChar

StartChar: e
Encoding: 101 101 4
Width: 424
VWidth: 0
Flags: HW
AnchorPoint: "top" 228 500 basechar 0
AnchorPoint: "l;o" 0 200 basechar 0
AnchorPoint: "r;bl" 394 10 basechar 0
AnchorPoint: "r;o" 424 200 basechar 0
LayerCount: 3
Fore
SplineSet
108 254.880191388 m 0
 108 251.239585562 109.28114705 250 117 250 c 0
 121.876818124 250 223.954335966 252.000572479 273.899517982 253.99837976 c 1
 298.499733747 254.663250456 308.25439387 255.535393353 310.99729241 256.17119494 c 1
 310.397460666 351.773602907 252.510081073 371 222 371 c 0
 158.166632844 371 111.909990498 303.755072616 108 254.880191388 c 0
221 -18 m 0
 96.3277123165 -18 27 63.6467251287 27 182 c 0
 27 303.429903632 111.223903281 399 234 399 c 0
 334.939000933 399 386 322.168634636 386 237 c 0
 386 224.065057735 339.014198537 222 329 222 c 0
 318.07033595 222 120.179315794 226.80367829 105.586331471 226.995526872 c 1
 103.219982466 222.123251247 103 205.59864522 103 194 c 0
 103 88.5799036975 175.619056022 32 249 32 c 0
 328.373096869 32 370.268528306 97 378 97 c 0
 383.227824334 97 397 84.6480800318 397 79 c 0
 397 69.7370073079 323.001549692 -18 221 -18 c 0
EndSplineSet
AlternateSubs2: "'aalt' Access All Alternates lookup 0 subtable" e.sc e.sub e.sup e.denom e.numer
AlternateSubs2: "'aalt' Access All Alternates in Latin lookup 0 subtable" e.sc e.sub e.sup e.denom e.numer
Substitution2: "'smcp' Lowercase to Small Capitals in Latin lookup 11 subtable" e.sc
Substitution2: "'subs' Subscript in Latin lookup 8 subtable" e.sub
Substitution2: "'sups' Superscript in Latin lookup 7 subtable" e.sup
Substitution2: "denominators subtable" e.denom
Substitution2: "numerators subtable" e.numer
EndChar

StartChar: f
Encoding: 102 102 5
Width: 306
VWidth: 0
Flags: HW
AnchorPoint: "top" 218 780 basechar 0
AnchorPoint: "l;bl" 0 10 basechar 0
AnchorPoint: "l;x" 0 380 basechar 0
AnchorPoint: "l;o" 0 200 basechar 0
AnchorPoint: "r;bl" 306 10 basechar 0
AnchorPoint: "r;x" 306 380 basechar 0
AnchorPoint: "r;k;hi" 326 650 basechar 0
AnchorPoint: "r;o" 306 200 basechar 0
LayerCount: 3
Fore
SplineSet
171.696478868 28 m 1
 237 28 l 0
 250.521497439 28 253 21.6390711572 253 12 c 0
 253 2.80239298519 251.848009554 -5 237 -5 c 0
 217.878272187 -5 159.91256702 -3 131 -3 c 0
 106.157525485 -3 78.1313337398 -5 48 -5 c 0
 33.5425337613 -5 32 0.661451141529 32 12 c 0
 32 21.7652861333 35.3738001745 28 47 28 c 0
 85.4029167775 28 l 1
 87.2736782896 35.6002489747 88 60.6542198551 88 88 c 0
 88 122.963100058 87 160.896618504 87 172 c 0
 87 232 l 0
 87 266.627505118 86.8047271326 331.161047695 85.6180458009 343 c 1
 55 343 l 0
 43.4142555816 343 38 345.596343058 38 359 c 0
 38 371.854788339 41.9446743519 375 52 375 c 0
 79 375 l 0
 86.8344604542 375 86 373.592904642 86 384 c 0
 86 432.840171437 84 427.856245848 84 481 c 0
 84 585.525960198 123.631387479 681 243 681 c 0
 282.895065841 681 329 654.432271587 329 611 c 0
 329 585.668977315 293.458971724 561 278 561 c 0
 268.700685128 561 263.226372887 563.00305613 262.026316298 572.60350884 c 0
 255.894539298 618.591836342 251.864793641 653 218 653 c 0
 165.119340635 653 162 554.544089628 162 492 c 0
 162 448.966221883 160.997089522 431.839970455 160 388.965120994 c 1
 160 375.061446709 158.614143376 375 178 375 c 0
 294 375 l 0
 298.700694289 375 304 372.452750316 304 367 c 0
 304 362.739408378 301.336274711 344 293 344 c 0
 178 344 l 0
 163.435807554 344 164 343.451045626 164 335 c 0
 164 169 l 0
 164 102.210492394 166.876667878 35.7116975833 171.696478868 28 c 1
EndSplineSet
AlternateSubs2: "'aalt' Access All Alternates lookup 0 subtable" f.sc f.sub f.sup f.denom f.numer
AlternateSubs2: "'aalt' Access All Alternates in Latin lookup 0 subtable" f.sc f.sub f.sup f.denom f.numer
Substitution2: "'smcp' Lowercase to Small Capitals in Latin lookup 11 subtable" f.sc
Substitution2: "'subs' Subscript in Latin lookup 8 subtable" f.sub
Substitution2: "'sups' Superscript in Latin lookup 7 subtable" f.sup
Substitution2: "denominators subtable" f.denom
Substitution2: "numerators subtable" f.numer
EndChar

StartChar: g
Encoding: 103 103 6
Width: 425
VWidth: 0
Flags: HW
AnchorPoint: "top" 205 500 basechar 0
AnchorPoint: "l;bl" 0 10 basechar 0
AnchorPoint: "l;x" 0 380 basechar 0
AnchorPoint: "l;o" 0 200 basechar 0
AnchorPoint: "l;lo" 0 -260 basechar 0
AnchorPoint: "r;bl" 425 10 basechar 0
AnchorPoint: "r;x" 425 380 basechar 0
AnchorPoint: "r;o" 425 200 basechar 0
AnchorPoint: "r;lo" 425 -260 basechar 0
LayerCount: 3
Fore
SplineSet
413.124783736 326 m 0
 402.910950498 325.14884723 364.766234333 317.466052919 357.160147915 313.921388975 c 1
 358.777535977 306.712668424 370 283.832198054 370 243 c 0
 370 156.585466822 324.651020813 115.418401446 253.093198046 88.2062716609 c 0
 206.849077456 70.1107462126 146.686047368 55.0543456595 79.8872663194 36.1334777796 c 1
 79.2872438306 35.9334702834 78 33.9611453267 78 30 c 0
 78 19.6158624528 87.1921064049 4.79234580761 89.6967936928 2.96212550879 c 1
 215.495108627 -4.84728669556 423 8.69608937708 423 -124 c 0
 423 -228.283585133 329.812209954 -293 200 -293 c 0
 116.897200313 -293 12 -256.054421592 12 -173 c 0
 12 -101.200911975 103.424298042 -65.0556232963 151.411651595 -55.0582579729 c 0
 156.533106071 -54.0001803178 l 1
 155.533106084 -54.0000200614 155 -54 154 -54 c 0
 97 -54 l 0
 79.529132568 -54 61.0813564163 -48.0018494336 54.2548199213 -33.2110203611 c 1
 45.9836190837 -13.5669183719 45 4.78603126977 45 16 c 0
 45 34.3826387709 50.3857035585 47.4754286173 65.2998811426 50.9171619059 c 0
 90.2595885837 56.9074916918 109.221512759 61.8974448645 141.162797243 70.8809311257 c 1
 147.448633844 72.7666821058 163.960160276 77.1619551161 171.003998598 79.3800202091 c 1
 167.076293128 80.2435299823 164.143040463 80.9250194959 160.149114674 82.1231972326 c 0
 88.3943291472 103.346443656 31 149.45544047 31 246 c 0
 31 336.217515139 119.902082538 398 210 398 c 0
 283.094330206 398 326.000124162 352.336004634 332.640177663 347.082597151 c 1
 340.452053837 348.506004394 376.846388306 364.06084271 406.806853166 365.993775927 c 0
 406.903326299 366 l 1
 407 366 l 0
 414.474831163 366 419 346.149176945 419 335 c 0
 419 331.148502276 418.080936129 326 413.124783736 326 c 0
199 -261 m 0
 273.815828714 -261 360 -233.206082736 360 -148 c 0
 360 -93.7319165379 262.70306647 -71 189 -71 c 0
 141.513593844 -71 63 -102.818142512 63 -166 c 0
 63 -229.147403638 139.37111378 -261 199 -261 c 0
205 367 m 0
 149.947529888 367 101 314.589876013 101 250 c 0
 101 153.495073817 184.28769576 98 207 98 c 0
 244.459321299 98 302 154.942037464 302 244 c 0
 302 322.018011193 263.956034209 367 205 367 c 0
EndSplineSet
Layer: 2
SplineSet
210 345 m 0
 165.435808237 345 123 303.224178673 123 250 c 0
 123 165.761054084 202.087095213 120 212 120 c 0
 235.325677639 120 290 163.915865794 290 244 c 0
 290 312.832764025 258.029835259 345 210 345 c 0
204 -239 m 0
 278.268087832 -239 348 -213.133289205 348 -148 c 0
 348 -111.2273393 270.886838295 -83 194 -83 c 0
 150.197971841 -83 85 -114.991158271 85 -166 c 0
 85 -208.960181745 145.896296543 -239 204 -239 c 0
445 -124 m 0
 445 -238.520249794 339.064607454 -305 205 -305 c 0
 121.865639821 -305 9.78747574844e-15 -270.222247242 0 -173 c 0
 0 -119.08868748 39.0356714834 -84.0684552389 76.2396393866 -62.676903013 c 1
 62.7206549732 -58.8995212492 51.1681129831 -52.1038715386 44.1811843375 -38.9660411827 c 0
 43.9179621196 -38.471092827 l 1
 43.6924175685 -37.9578779926 l 0
 34.03711747 -15.9877474163 33 4.18122732709 33 16 c 0
 33 38.264379328 38.9535708553 65.1693635554 66.2129424179 72.2913438986 c 1
 84.3861256621 76.6397257747 101.820023915 81.1339651512 119.530959986 85.9580565661 c 1
 59.8667048646 114.613920143 19 163.129151784 19 246 c 0
 19 346.20406647 119.136145729 410 215 410 c 0
 278.770673972 410 324.059670057 372.875717341 339.084651392 360.057988339 c 1
 357.279890503 366.36853991 383.251706713 376.208096991 410.717889287 377.969258412 c 0
 411.197319541 378 l 1
 412 378 l 0
 440.61619504 378 441 340.285655509 441 335 c 0
 441 327.314831102 439.548516913 311.246074262 425.197989981 305.27137992 c 0
 423.008840812 304.359950171 l 1
 420.645299856 304.168240962 l 0
 415.410802092 303.743665527 395.770739479 300.098310446 384.021284965 297.616678139 c 1
 388.424039825 283.390636408 392 267.252977399 392 243 c 0
 392 150.783985008 338.843238184 104.551554657 264.123061121 76.9844345945 c 1
 221.132275376 60.2059019418 156.390712328 43.2582470805 101.588337793 27.975530342 c 1
 103.440304863 24.4685078825 l 1
 224.918823657 18.0501453076 445 31.9654970594 445 -124 c 0
EndSplineSet
AlternateSubs2: "'aalt' Access All Alternates lookup 0 subtable" g.sc g.sub g.sup g.denom g.numer
AlternateSubs2: "'aalt' Access All Alternates in Latin lookup 0 subtable" g.sc g.sub g.sup g.denom g.numer
Substitution2: "'smcp' Lowercase to Small Capitals in Latin lookup 11 subtable" g.sc
Substitution2: "'subs' Subscript in Latin lookup 8 subtable" g.sub
Substitution2: "'sups' Superscript in Latin lookup 7 subtable" g.sup
Substitution2: "denominators subtable" g.denom
Substitution2: "numerators subtable" g.numer
EndChar

StartChar: h
Encoding: 104 104 7
Width: 503
VWidth: 0
Flags: HW
AnchorPoint: "top" 129 780 basechar 0
AnchorPoint: "l;bl" 0 10 basechar 0
AnchorPoint: "l;x" 0 380 basechar 0
AnchorPoint: "l;hi" 0 650 basechar 0
AnchorPoint: "l;o" 0 200 basechar 0
AnchorPoint: "r;bl" 503 10 basechar 0
AnchorPoint: "r;o" 503 200 basechar 0
LayerCount: 3
Fore
SplineSet
85 43.0159569953 m 0
 86.00026841 137.041187531 86 190.988154966 86 263 c 0
 86 380.907734653 81.996746941 541.984751808 78.0059751764 618.807108275 c 1
 76.8828633347 633.407562217 77.6997084669 633 75 633 c 0
 72.5999522751 633 18.5546334074 626 14 626 c 0
 6.04950088811 626 7 636.504889144 7 640 c 0
 7 647.203199056 7.03183252218 658.10028735 14.2723931249 659.9104275 c 0
 14.4403305406 659.952411854 l 1
 14.6119824478 659.974801234 l 0
 60.783256338 665.997141306 154.261168391 678 161 678 c 0
 171.27654905 678 169 662.87995222 169 655 c 0
 169 654.927752768 l 1
 168.996522242 654.85558929 l 0
 164.999104714 571.90917559 161 441.915480168 161 354 c 0
 161 348.832786768 161.26946353 344.927841755 161.425667105 344.020492943 c 1
 162.890156077 344.739487291 164.675659299 345.903966716 167.506444959 347.602438112 c 1
 198.972029901 364.857758887 259.022449734 388 302 388 c 0
 416.941658117 388 430 287.601696044 430 180 c 0
 430 37 l 0
 430 26.7320256114 429.005069522 28 438 28 c 0
 464 28 l 0
 477.319186255 28 481 22.0071758673 481 12 c 0
 481 2.42255130552 478.655328035 -5 464 -5 c 0
 444.79283836 -5 421.865944012 -3 393 -3 c 0
 368.15024322 -3 337.125825471 -5 307 -5 c 0
 292.542533761 -5 291 0.661451141529 291 12 c 0
 291 22.1298009626 295.589235136 28 307 28 c 0
 346 28 l 0
 355.260687053 28 353.058824471 25.7831522365 354.006792208 36.2107973347 c 1
 354.993406386 55.9430808938 356 106.068452206 356 212 c 0
 356 283.544929788 328.496527167 341 263 341 c 0
 223.560899344 341 195.08210413 330.186950099 175.341640786 320.316718427 c 0
 161.405593631 313.348694849 160.999933336 310.245663579 160.999933336 308.019999556 c 0
 162 158 l 0
 162 117.019909561 162.00328483 68.9722653966 162.996800232 43.1408649569 c 1
 164.004766195 24.9974776175 162.478802714 28 171 28 c 0
 209 28 l 0
 222.521497439 28 225 21.6390711572 225 12 c 0
 225 2.80239298519 223.848009554 -5 209 -5 c 0
 189.833192957 -5 154.886587422 -3 126 -3 c 0
 101.15024322 -3 70.125825471 -5 40 -5 c 0
 25.5425337613 -5 24 0.661451141529 24 12 c 0
 24 21.7652861333 27.3738001745 28 39 28 c 0
 78 28 l 0
 85.7761428652 28 85 27.5730736216 85 43.0159569953 c 0
EndSplineSet
AlternateSubs2: "'aalt' Access All Alternates lookup 0 subtable" h.sc h.sub h.sup h.denom h.numer
AlternateSubs2: "'aalt' Access All Alternates in Latin lookup 0 subtable" h.sc h.sub h.sup h.denom h.numer
Substitution2: "'smcp' Lowercase to Small Capitals in Latin lookup 11 subtable" h.sc
Substitution2: "'subs' Subscript in Latin lookup 8 subtable" h.sub
Substitution2: "'sups' Superscript in Latin lookup 7 subtable" h.sup
Substitution2: "denominators subtable" h.denom
Substitution2: "numerators subtable" h.numer
EndChar

StartChar: i
Encoding: 105 105 8
Width: 249
VWidth: 0
Flags: HW
AnchorPoint: "l;bl" 0 10 basechar 0
AnchorPoint: "l;x" 0 380 basechar 0
AnchorPoint: "l;o" 0 200 basechar 0
AnchorPoint: "r;bl" 249 10 basechar 0
AnchorPoint: "r;x" 249 380 basechar 0
AnchorPoint: "r;o" 249 200 basechar 0
AnchorPoint: "l;hi" 40 650 basechar 0
AnchorPoint: "r;hi" 219 650 basechar 0
LayerCount: 3
Fore
SplineSet
92 37.0517087713 m 0
 93.0017946638 66.1037540222 93 94.9648242611 93 125 c 0
 93 194.946187969 91.9982921845 265.979939014 89.0041004969 338.838603411 c 1
 88.0457697647 353.213564395 87.823987555 352 79 352 c 0
 76.2144389216 352 33.1921392246 350 29 350 c 0
 24.7686536415 350 22 352.768653641 22 357 c 0
 22 360.226517962 22.2808909053 363.269985743 26.316718427 371.341640786 c 0
 30.5197625847 379.747729102 32.0293652026 380.012845745 43.7965460378 380.993444148 c 1
 62.9920474818 382.003733698 151.709198438 386 157 386 c 0
 163.772132396 386 167 383.269416608 167 377 c 0
 167 207 l 0
 167 149.999513584 167.00129547 94.0542788327 169.995853488 37.1576764994 c 0
 170 37.0788927713 l 1
 170 37 l 0
 170 28.1196105126 168.761784699 28 177 28 c 0
 213 28 l 0
 224.849409717 28 227 21.3633236434 227 12 c 0
 227 3.09498112248 226.172330471 -5 213 -5 c 0
 193.849015013 -5 153.88063528 -3 129 -3 c 0
 104.112227947 -3 59.1402230098 -5 40 -5 c 0
 27.2364171461 -5 26 0.939196673081 26 12 c 0
 26 21.7624947763 28.6234054072 28 43 28 c 0
 84 28 l 0
 93.6605067832 28 92 27.386091031 92 37.0517087713 c 0
182 568 m 0
 182 531.861049326 147.233019426 509 118 509 c 0
 95.7374405986 509 74 523.115463522 74 553 c 0
 74 591.301096895 111.93793909 611 137 611 c 0
 159.007668133 611 182 599.0815184 182 568 c 0
EndSplineSet
AlternateSubs2: "'aalt' Access All Alternates lookup 0 subtable" i.sc i.sub i.sup i.denom i.numer
AlternateSubs2: "'aalt' Access All Alternates in Latin lookup 0 subtable" i.sc i.sub i.sup i.denom i.numer i.TRK
Substitution2: "'smcp' Lowercase to Small Capitals in Latin lookup 11 subtable" i.sc
Substitution2: "'subs' Subscript in Latin lookup 8 subtable" i.sub
Substitution2: "'sups' Superscript in Latin lookup 7 subtable" i.sup
Substitution2: "denominators subtable" i.denom
Substitution2: "numerators subtable" i.numer
Substitution2: "turkish subtable" i.TRK
EndChar

StartChar: j
Encoding: 106 106 9
Width: 292
VWidth: 0
Flags: HW
AnchorPoint: "r;hi" 222 650 basechar 0
AnchorPoint: "l;hi" 43 650 basechar 0
AnchorPoint: "l;bl" 10 10 basechar 0
AnchorPoint: "l;x" 0 380 basechar 0
AnchorPoint: "l;o" 10 200 basechar 0
AnchorPoint: "l;lo" 0 -260 basechar 0
AnchorPoint: "r;bl" 292 10 basechar 0
AnchorPoint: "r;x" 292 380 basechar 0
AnchorPoint: "r;o" 292 200 basechar 0
LayerCount: 3
Fore
SplineSet
185 595 m 0
 185 558.861049326 150.233019426 536 121 536 c 0
 98.7374405986 536 77 550.115463522 77 580 c 0
 77 618.301096895 114.93793909 638 140 638 c 0
 162.007668133 638 185 626.0815184 185 595 c 0
46 -199 m 0
 67.2875977405 -199 91.5575590528 -203 101 -203 c 0
 127.410021583 -203 136 -187.569143211 136 -173 c 0
 136 -134.308502475 127 -40.995998408 127 258 c 0
 127 281.991916524 126.99655291 306.937296072 125.010362725 333.75086356 c 0
 124.022301737 345.607595425 123.076622541 345 119 345 c 0
 112.252112025 345 58.1845352142 342 49 342 c 0
 44.0404531935 342 43 346.056980091 43 349 c 0
 43 352.940751878 45.1195257544 359.876561597 47.2024607923 365.083899191 c 1
 50.1378654708 372.911645001 50.5224819068 376 64.9705910617 376 c 1
 115.890389228 376.998427415 184.695262157 381 190 381 c 0
 200.77583262 381 200 368.465465683 200 355.016853401 c 1
 200.998893234 266.115355602 205 155.049358087 205 27 c 0
 205 -80.0298715238 198.092660662 -155.901288929 150.362515003 -217.848924785 c 0
 131.44515647 -242.021105132 54.377440682 -278 24 -278 c 0
 9.13989603273 -278 2 -267.159995116 2 -255 c 0
 2 -231.645021355 28.5225528346 -199 46 -199 c 0
EndSplineSet
AlternateSubs2: "'aalt' Access All Alternates lookup 0 subtable" j.sc j.sub j.sup j.denom j.numer
AlternateSubs2: "'aalt' Access All Alternates in Latin lookup 0 subtable" j.sc j.sub j.sup j.denom j.numer
Substitution2: "'smcp' Lowercase to Small Capitals in Latin lookup 11 subtable" j.sc
Substitution2: "'subs' Subscript in Latin lookup 8 subtable" j.sub
Substitution2: "'sups' Superscript in Latin lookup 7 subtable" j.sup
Substitution2: "denominators subtable" j.denom
Substitution2: "numerators subtable" j.numer
EndChar

StartChar: k
Encoding: 107 107 10
Width: 449
VWidth: 0
Flags: HW
AnchorPoint: "cedilla" 228 -100 basechar 0
AnchorPoint: "l;bl" 0 10 basechar 0
AnchorPoint: "l;x" 0 380 basechar 0
AnchorPoint: "l;hi" 0 650 basechar 0
AnchorPoint: "l;o" 0 200 basechar 0
AnchorPoint: "r;bl" 449 10 basechar 0
AnchorPoint: "r;x" 449 380 basechar 0
AnchorPoint: "r;o" 439 200 basechar 0
LayerCount: 3
Fore
SplineSet
292.420912194 345.532611185 m 0
 295.930623784 351.549259625 297.336281915 355.123763605 297.296449092 355.483643162 c 1
 296.857633155 355.896105697 293.327778153 357 285 357 c 0
 265 357 l 0
 251.478502561 357 249 363.360928843 249 373 c 0
 249 382.577448694 251.344671965 390 266 390 c 0
 276.261070742 390 303.135774815 388 324 388 c 0
 342.817222846 388 365.773619758 390 381 390 c 0
 392.293846165 390 397 385.047534427 397 373 c 0
 397 363.234713867 393.626199826 357 382 357 c 0
 350.322102086 357 l 1
 340.331738619 352.172145331 262.640937833 257.229059943 245.352627987 235.138441806 c 1
 239.62262189 227.975934184 237.106815255 224.968639093 237.002333829 224.630815814 c 1
 237.194362179 224.025926511 239.902558262 221.223429387 245.271344311 214.959845663 c 0
 396.28817277 39.9403424819 l 1
 406.206075463 28.0388592499 407.645762801 28 416 28 c 0
 426 28 l 0
 439.521497439 28 442 21.6390711572 442 12 c 0
 442 2.80239298519 440.848009554 -5 426 -5 c 0
 411.779156387 -5 383.87230753 -3 359 -3 c 0
 334.129878062 -3 305.211706705 -5 291 -5 c 0
 276.542533761 -5 275 0.661451141529 275 12 c 0
 275 21.7652861333 278.373800174 28 290 28 c 0
 301 28 l 0
 305.01039951 28 306.94558757 28.782018068 307.551570834 29.2668046791 c 0
 308.395576212 29.9420089811 307.838386665 33.107786197 303.681277228 38.0963175209 c 1
 193.657393572 174.125914857 l 0
 181.26678277 189.61417836 182.779444663 190 174 190 c 0
 160 190 l 0
 151.118100281 190 152 189.19924521 152 177 c 0
 152 43 l 0
 152 25.1537045496 151.369052195 28 160 28 c 0
 183 28 l 0
 196.521497439 28 199 21.6390711572 199 12 c 0
 199 2.80239298519 197.848009554 -5 183 -5 c 0
 163.780020791 -5 143.858645208 -3 115 -3 c 0
 82.0957552455 -3 46.1901757965 -5 35 -5 c 0
 20.5425337613 -5 19 0.661451141529 19 12 c 0
 19 21.7652861333 22.3738001745 28 34 28 c 0
 75 28 l 0
 82.7761428652 28 82 27.5705963884 82 43 c 0
 82 236 l 0
 82 423.69161752 81.3131214917 621.117220361 74.6359313267 640.969950886 c 1
 64.2367361181 640.576958043 29.7769479817 638 20 638 c 0
 10.4268909623 638 7 640.720438618 7 649 c 0
 7 658 l 0
 7 666.458135493 9.00516781868 673.831022806 21.7461337017 674.989292432 c 1
 59.9164351678 678.002737285 146.576654782 684 153 684 c 0
 161.936464166 684 163 679.67877835 163 667.963175192 c 1
 152 219.963175192 l 1
 152 211.460253036 150.264785511 212 165 212 c 0
 187 212 l 0
 200.027186155 212 206.209685657 223.298919095 213.619757914 232.826154855 c 1
 241.575658296 269.767880358 269.526589123 307.707207851 292.420912194 345.532611185 c 0
EndSplineSet
AlternateSubs2: "'aalt' Access All Alternates lookup 0 subtable" k.sc k.sub k.sup k.denom k.numer
AlternateSubs2: "'aalt' Access All Alternates in Latin lookup 0 subtable" k.sc k.sub k.sup k.denom k.numer
Substitution2: "'smcp' Lowercase to Small Capitals in Latin lookup 11 subtable" k.sc
Substitution2: "'subs' Subscript in Latin lookup 8 subtable" k.sub
Substitution2: "'sups' Superscript in Latin lookup 7 subtable" k.sup
Substitution2: "denominators subtable" k.denom
Substitution2: "numerators subtable" k.numer
EndChar

StartChar: z
Encoding: 122 122 11
Width: 388
VWidth: 0
Flags: HW
AnchorPoint: "top" 195 500 basechar 0
AnchorPoint: "l;bl" 0 10 basechar 0
AnchorPoint: "l;x" 0 380 basechar 0
AnchorPoint: "l;o" 0 200 basechar 0
AnchorPoint: "r;bl" 388 10 basechar 0
AnchorPoint: "r;x" 388 380 basechar 0
AnchorPoint: "r;o" 388 200 basechar 0
LayerCount: 3
Fore
SplineSet
37.5579094628 31.7438792837 m 2
 251.48633243 346.638520567 l 1
 255.5656685 353.16545828 261.130130357 359.700726262 262.575022679 362.123967361 c 1
 259.701976114 362.812809694 256.862437225 363 252.048374516 363 c 1
 97.116478488 358.002196902 l 1
 75.3293192557 357.011871483 76.7477231434 358.535437459 72.9199996182 341.310681596 c 1
 62.8983040859 301.223899467 l 1
 61.0009656928 294.583215091 59.8385201957 287 47 287 c 0
 38.844478268 287 28 288.213298417 28 296 c 0
 28 299.747383056 33.9876650546 350.065601797 37.0143162761 376.296579049 c 0
 38.06930622 388.956458376 41.1983555539 392 54 392 c 0
 335 392 l 0
 350.402137269 392 361 389.338779548 361 380 c 0
 361 373.971760822 356.158404458 370.793058454 351.51472727 363.363174953 c 1
 141.496150883 53.3358994113 l 0
 137.389489396 47.1759071804 133 40.3535737779 133 37 c 0
 133 35.0646923966 135.149358218 30 144.965521796 30 c 1
 318.965521796 34 l 1
 332.554712645 34 330.137213912 32.121310084 332.027462206 44.4079239938 c 1
 339.027462206 102.407923994 l 1
 341.18086454 116.40503917 343.962269352 117 359 117 c 0
 367.727192132 117 371 113.550398655 371 108 c 0
 371 100.707279759 368.001059339 43.9121658228 365.992376099 14.78625885 c 0
 364.95430607 0.253278441653 362.833997418 -3 347 -3 c 0
 52 -3 l 0
 38.9884804066 -3 27 -3.18820058924 27 10 c 0
 27 16.4198375904 31.5041132305 23.6721509741 37.5579094628 31.7438792837 c 2
EndSplineSet
AlternateSubs2: "'aalt' Access All Alternates lookup 0 subtable" z.sc z.sub z.sup z.denom z.numer
AlternateSubs2: "'aalt' Access All Alternates in Latin lookup 0 subtable" z.sc z.sub z.sup z.denom z.numer
Substitution2: "'smcp' Lowercase to Small Capitals in Latin lookup 11 subtable" z.sc
Substitution2: "'subs' Subscript in Latin lookup 8 subtable" z.sub
Substitution2: "'sups' Superscript in Latin lookup 7 subtable" z.sup
Substitution2: "denominators subtable" z.denom
Substitution2: "numerators subtable" z.numer
EndChar

StartChar: l
Encoding: 108 108 12
Width: 257
VWidth: 0
Flags: HW
AnchorPoint: "cedilla" 137 -100 basechar 0
AnchorPoint: "caron" 202 550 basechar 0
AnchorPoint: "top" 116 780 basechar 0
AnchorPoint: "l;bl" 0 10 basechar 0
AnchorPoint: "l;x" 5 380 basechar 0
AnchorPoint: "l;hi" 0 650 basechar 0
AnchorPoint: "l;o" 5 200 basechar 0
AnchorPoint: "r;bl" 257 10 basechar 0
AnchorPoint: "r;x" 257 380 basechar 0
AnchorPoint: "r;hi" 257 650 basechar 0
AnchorPoint: "r;o" 257 200 basechar 0
LayerCount: 3
Fore
SplineSet
171 64 m 0
 171 38.9670215051 172.413123294 28 176 28 c 0
 215 28 l 0
 228.521497439 28 231 21.6390711572 231 12 c 0
 231 2.80239298519 229.848009554 -5 215 -5 c 0
 195.817889607 -5 164.886324477 -3 136 -3 c 0
 111.135660798 -3 73.1146712117 -5 43 -5 c 0
 28.5425337613 -5 27 0.661451141529 27 12 c 0
 27 21.7652861333 30.3738001745 28 42 28 c 0
 92.3259860065 28 l 1
 94.8348395158 38.1748430495 95 88.0803657864 95 110 c 0
 95 158.86932242 91.9747328661 538.146536662 84.0157348381 626.690389724 c 1
 81.9309799445 644.410806319 83.9125416663 643 76 643 c 0
 71.4107755276 643 32.4418800372 639 28 639 c 0
 21.9335185795 639 17 639.280444115 17 645 c 0
 17 648.539625401 18.0300884213 654.423822385 19.030151519 661.424264069 c 0
 19.0520378138 661.577468132 l 1
 19.0895724996 661.727606875 l 0
 21.1620713153 670.017602138 22.6525493498 670.979856085 31.7220787624 671.987581575 c 1
 71.9434071982 675.004181208 148.51366664 681 155 681 c 0
 164.641110506 681 164.999984085 674.256230742 164.999984085 663.009771935 c 0
 165.999853571 356.049839606 171 265.068575127 171 64 c 0
EndSplineSet
AlternateSubs2: "'aalt' Access All Alternates lookup 0 subtable" l.sc l.sub l.sup l.denom l.numer
AlternateSubs2: "'aalt' Access All Alternates in Latin lookup 0 subtable" l.sc l.sub l.sup l.denom l.numer l.CAT
Substitution2: "'smcp' Lowercase to Small Capitals in Latin lookup 11 subtable" l.sc
Substitution2: "'subs' Subscript in Latin lookup 8 subtable" l.sub
Substitution2: "'sups' Superscript in Latin lookup 7 subtable" l.sup
Substitution2: "denominators subtable" l.denom
Substitution2: "numerators subtable" l.numer
Substitution2: "catalan subtable" l.CAT
EndChar

StartChar: m
Encoding: 109 109 13
Width: 739
VWidth: 0
Flags: HW
AnchorPoint: "top" 381 500 basechar 0
AnchorPoint: "l;bl" 0 10 basechar 0
AnchorPoint: "l;x" 0 380 basechar 0
AnchorPoint: "l;o" 0 200 basechar 0
AnchorPoint: "r;bl" 739 10 basechar 0
AnchorPoint: "r;o" 739 200 basechar 0
LayerCount: 3
Fore
SplineSet
162 342 m 2
 162 336.949661431 162.120840565 333.333239898 162.285152847 331.39098446 c 1
 167.158178159 335.368056652 l 0
 167.217767728 335.414404094 l 1
 167.279612967 335.457695762 l 0
 197.379425017 356.527564196 251.851832341 391 310 391 c 0
 378.475048798 391 394.674358223 349.740843004 399.248761034 340.346676709 c 1
 401.808260254 341.420015092 404.53404666 343.068172728 409.256285419 346.441200414 c 0
 409.314010232 346.482432423 l 1
 409.373619391 346.520889945 l 0
 440.823865944 366.811371592 497.009555815 389 536 389 c 0
 635.06394838 389 663 326.646637842 663 240 c 0
 663 155.957227748 661 82.9256429817 661 35 c 0
 661 29.0417129516 661.411463516 28 668 28 c 0
 700 28 l 0
 713.319186255 28 717 22.0071758673 717 12 c 0
 717 2.42255130552 714.655328035 -5 700 -5 c 0
 680.809825665 -5 652.878512623 -3 624 -3 c 0
 599.152601962 -3 569.127597878 -5 539 -5 c 0
 524.542533761 -5 523 0.661451141529 523 12 c 0
 523 22.7573044102 529.990555104 28 541 28 c 0
 579.912341436 28 l 1
 586.547459157 43.5152307082 587 172.315203006 587 216 c 0
 587 282.951584379 571.321458217 341 501 341 c 0
 455.19338707 341 413.221509276 318.31687959 407.030360222 313.07113573 c 1
 407.541665962 305.774664628 413 292.94929368 413 236 c 0
 413 66 l 0
 413 46.7676145309 413.478250906 31.2440596382 414.358365741 28 c 1
 447 28 l 0
 460.319186255 28 464 22.0071758673 464 12 c 0
 464 2.42255130552 461.655328035 -5 447 -5 c 0
 427.800233985 -5 402.870896457 -3 374 -3 c 0
 349.185428994 -3 331.157875347 -5 301 -5 c 0
 286.919273956 -5 283 -0.037818502238 283 12 c 0
 283 21.7652861333 286.373800174 28 298 28 c 0
 336.094375753 28 l 1
 339.77322633 35.6520091996 341 79.4240257175 341 122 c 0
 341 165.980096739 340 208.890790126 340 216 c 0
 340 284.683144572 336.917678207 341 271 341 c 0
 221.753983165 341 188.315454506 323.236590879 172.837490849 311.628118137 c 1
 163.22407579 303.937386089 163 301.247438279 163 296 c 0
 163 68 l 0
 163 28.3408397326 162.397079378 28 179 28 c 0
 200 28 l 0
 213.319186255 28 217 22.0071758673 217 12 c 0
 217 2.42255130552 214.655328035 -5 200 -5 c 0
 180.824545772 -5 148.872314011 -3 124 -3 c 0
 99.110310451 -3 56.1572107781 -5 40 -5 c 0
 30.9629902455 -5 25 -1.36549228901 25 11 c 0
 25 20.1714747222 26.8630048797 28 39 28 c 0
 78 28 l 0
 83.359905568 28 85.8832002621 37.047473568 88.0148884294 57.2985111571 c 0
 89.9820405583 76.9700324464 90 118.027064832 90 163 c 0
 90 272 l 0
 90 306.563386172 88.4013358161 338.533588048 86.9724953728 346.922922651 c 1
 76.0374577679 346.414576483 34.8896865364 344 30 344 c 0
 25.5983851545 344 22 345.885374388 22 350 c 0
 22 352.957091432 23.9910842894 362.460085849 26.1715122944 369.001369864 c 1
 29.3387480451 377.447331866 30.0552813583 378.011591993 43.820022684 378.994787802 c 1
 84.9487405448 381.001066722 138.672813154 384 144 384 c 0
 159.445540685 384 162 381.077291278 162 370 c 0
 162 342 l 2
EndSplineSet
AlternateSubs2: "'aalt' Access All Alternates lookup 0 subtable" m.sc m.sub m.sup m.denom m.numer
AlternateSubs2: "'aalt' Access All Alternates in Latin lookup 0 subtable" m.sc m.sub m.sup m.denom m.numer
Substitution2: "'smcp' Lowercase to Small Capitals in Latin lookup 11 subtable" m.sc
Substitution2: "'subs' Subscript in Latin lookup 8 subtable" m.sub
Substitution2: "'sups' Superscript in Latin lookup 7 subtable" m.sup
Substitution2: "denominators subtable" m.denom
Substitution2: "numerators subtable" m.numer
EndChar

StartChar: n
Encoding: 110 110 14
Width: 514
VWidth: 0
Flags: HW
AnchorPoint: "cedilla" 264 -100 basechar 0
AnchorPoint: "top" 272 500 basechar 0
AnchorPoint: "l;bl" 0 10 basechar 0
AnchorPoint: "l;x" 0 380 basechar 0
AnchorPoint: "l;o" 0 200 basechar 0
AnchorPoint: "r;bl" 514 10 basechar 0
AnchorPoint: "r;o" 514 200 basechar 0
LayerCount: 3
Fore
SplineSet
92.0064308682 335.803647842 m 0
 91.0469540266 350.195800465 92.3770087818 347 83 347 c 0
 80.38610538 347 32.3496713184 343 28 343 c 0
 23.0404531935 343 22 347.056980091 22 350 c 0
 22 354.263165561 25.1808159796 362.02978716 27.2024607923 367.083899191 c 1
 30.3102815386 375.371421182 31.096284582 376.014520795 44.78625885 376.992376099 c 0
 58.8269604281 377.995283355 121.788122655 381.992475451 149.800442968 383.993355474 c 0
 166.004679539 385.073637912 166 380.107881643 166 370 c 0
 166 328 l 0
 166 328 174.801842654 334.579676729 176.42544868 335.553840345 c 1
 206.013721728 354.293079942 243.916527564 387 306 387 c 0
 424.451846966 387 442 305.098397693 442 207 c 0
 442 151.905516536 437 51.7663279879 437 37 c 0
 437 26.7320256114 436.005069522 28 445 28 c 0
 475 28 l 0
 487.654435428 28 492 25.1853855892 492 12 c 0
 492 2.94352896184 491.004054967 -5 477 -5 c 0
 457.806813195 -5 430.875949243 -3 402 -3 c 0
 377.152601962 -3 347.127597878 -5 317 -5 c 0
 301.983088645 -5 300 -0.642804023469 300 11 c 0
 300 24.1088719421 304.933819108 28 316 28 c 0
 353 28 l 0
 362.261603408 28 360.056015817 25.7513204436 361.010362725 36.2491364396 c 0
 362.997503172 60.0948218005 365 106.03832883 365 212 c 0
 365 283.7465911 346.528674252 339 272 339 c 0
 232.90138651 339 204.563205875 321.427500971 184.341640786 311.316718427 c 0
 168.891765291 303.591780679 168 299.045232599 168 291 c 0
 168 208.97573686 167 125.975736922 167 44 c 0
 167 27.9042624474 165.829580428 28 177 28 c 0
 213 28 l 0
 226.521497439 28 229 21.6390711572 229 12 c 0
 229 2.80239298519 227.848009554 -5 213 -5 c 0
 193.827779375 -5 160.883487485 -3 132 -3 c 0
 107.145758953 -3 74.122414625 -5 44 -5 c 0
 29.5425337613 -5 28 0.661451141529 28 12 c 0
 28 21.7652861333 31.3738001745 28 43 28 c 0
 82 28 l 0
 89.6849028413 28 87.9520783882 27.3810649588 89.0050715395 43.175962227 c 1
 91.9995126888 102.066638164 94 173.078224262 94 237 c 0
 94 270.998785441 93.997470406 304.942535006 92.0064308682 335.803647842 c 0
EndSplineSet
AlternateSubs2: "'aalt' Access All Alternates lookup 0 subtable" n.sc n.sub n.sup n.denom n.numer
AlternateSubs2: "'aalt' Access All Alternates in Latin lookup 0 subtable" n.sc n.sub n.sup n.denom n.numer
Substitution2: "'smcp' Lowercase to Small Capitals in Latin lookup 11 subtable" n.sc
Substitution2: "'subs' Subscript in Latin lookup 8 subtable" n.sub
Substitution2: "'sups' Superscript in Latin lookup 7 subtable" n.sup
Substitution2: "denominators subtable" n.denom
Substitution2: "numerators subtable" n.numer
EndChar

StartChar: o
Encoding: 111 111 15
Width: 446
VWidth: 0
Flags: HW
AnchorPoint: "top" 230 500 basechar 0
AnchorPoint: "l;o" 0 200 basechar 0
AnchorPoint: "r;o" 446 200 basechar 0
LayerCount: 3
Fore
SplineSet
223 367 m 0
 131.8952364 367 104 279.093438804 104 169 c 0
 104 94.5774907157 143.615363863 14 219 14 c 0
 316.02134868 14 340 113.862264032 340 204 c 0
 340 281.60432878 304.292070243 367 223 367 c 0
235 399 m 0
 345.918837155 399 419 308.281962395 419 197 c 0
 419 72.7197281831 344.804883737 -18 219 -18 c 0
 110.213097232 -18 27 72.5006123561 27 183 c 0
 27 302.431301919 110.226288371 399 235 399 c 0
EndSplineSet
AlternateSubs2: "'aalt' Access All Alternates lookup 0 subtable" o.sc o.sub o.sup o.denom o.numer
AlternateSubs2: "'aalt' Access All Alternates in Latin lookup 0 subtable" o.sc o.sub o.sup o.denom o.numer
Substitution2: "'smcp' Lowercase to Small Capitals in Latin lookup 11 subtable" o.sc
Substitution2: "'subs' Subscript in Latin lookup 8 subtable" o.sub
Substitution2: "'sups' Superscript in Latin lookup 7 subtable" o.sup
Substitution2: "denominators subtable" o.denom
Substitution2: "numerators subtable" o.numer
EndChar

StartChar: p
Encoding: 112 112 16
Width: 512
VWidth: 0
Flags: HW
AnchorPoint: "top" 280 500 basechar 0
AnchorPoint: "l;bl" 5 10 basechar 0
AnchorPoint: "l;x" 0 380 basechar 0
AnchorPoint: "l;o" 5 200 basechar 0
AnchorPoint: "l;lo" 0 -260 basechar 0
AnchorPoint: "r;o" 512 200 basechar 0
LayerCount: 3
Fore
SplineSet
187.546460051 -251 m 1
 257 -251 l 2
 270.521497439 -251 273 -257.360928843 273 -267 c 0
 273 -276.197607015 271.848009554 -284 257 -284 c 0
 237.878272187 -284 179.91256702 -282 151 -282 c 0
 126.128596068 -282 84.109115173 -284 54 -284 c 0
 39.5425337613 -284 38 -278.338548858 38 -267 c 0
 38 -257.234713867 41.3738001745 -251 53 -251 c 2
 105.878365519 -251 l 1
 107.947972252 -236.943764903 108 -164.547152558 108 -94 c 2
 108 48 l 2
 108 263.017194966 103.97465326 293.748279627 101.007623901 334.78625885 c 0
 100.061872207 347.867268053 101.536331288 346 88 346 c 0
 82.1994437316 346 43.2139822297 344 38 344 c 0
 29.3878706442 344 22 342.953841635 22 352 c 0
 22 355.534314928 26.5611311416 377 33.9552338508 377 c 0
 100.882842826 378.997839074 161.654189438 383 166 383 c 0
 174.828649917 383 180 381.027461165 180 366 c 2
 180 342 l 2
 180 339.022002533 180.092109434 336.060985564 180.12212362 335.581696529 c 1
 184.245713553 338.226840128 189.139245358 342.908886695 196.187229696 348.390652292 c 0
 219.6983012 365.768400795 263.077121106 386 306 386 c 0
 422.942565523 386 480 301.082365269 480 194 c 0
 480 91.504512707 400.763841948 -12 268 -12 c 0
 246.555635766 -12 220.37925067 -6.87184705078 201.117742453 -0.867337026166 c 0
 193.287736569 1.5735595174 186.22987112 4.74405143625 182.938550278 4.89734583165 c 0
 181.387258028 4.96959779945 181 5.38333756225 181 2.02380802428 c 2
 183.999373647 -186.936731729 l 2
 184.876313388 -220.26044191 185.148498479 -246.484813821 187.546460051 -251 c 1
275 345 m 0
 247.447841303 345 226.851770296 339.086903733 212.305386844 332.298591456 c 0
 180.771923055 316.531859561 181 304.736246769 181 302 c 2
 181 52 l 2
 181 31.8161441771 233.586302774 13 265 13 c 0
 356.460877182 13 402 107.674153617 402 187 c 0
 402 283.890309045 346.957276318 345 275 345 c 0
EndSplineSet
AlternateSubs2: "'aalt' Access All Alternates lookup 0 subtable" p.sc p.sub p.sup p.denom p.numer
AlternateSubs2: "'aalt' Access All Alternates in Latin lookup 0 subtable" p.sc p.sub p.sup p.denom p.numer
Substitution2: "'smcp' Lowercase to Small Capitals in Latin lookup 11 subtable" p.sc
Substitution2: "'subs' Subscript in Latin lookup 8 subtable" p.sub
Substitution2: "'sups' Superscript in Latin lookup 7 subtable" p.sup
Substitution2: "denominators subtable" p.denom
Substitution2: "numerators subtable" p.numer
EndChar

StartChar: q
Encoding: 113 113 17
Width: 490
VWidth: 0
Flags: HW
AnchorPoint: "l;o" 0 200 basechar 0
AnchorPoint: "r;bl" 490 10 basechar 0
AnchorPoint: "r;x" 490 380 basechar 0
AnchorPoint: "r;o" 490 200 basechar 0
AnchorPoint: "r;lo" 490 -260 basechar 0
LayerCount: 3
Fore
SplineSet
336 291 m 2
 336 328.295072456 298.73562502 351 235 351 c 0
 148.47732404 351 109 268.354209721 109 191 c 0
 109 110.917576115 160.348383597 22 250 22 c 0
 280.793539588 22 336 29.6872820237 336 41 c 2
 336 291 l 2
412 -88 m 2
 412 -159.04460595 412.246668314 -235.012433974 414.135062251 -248 c 1
 453 -248 l 2
 465.186077383 -248 468 -256.618287477 468 -266 c 0
 468 -277.338548858 466.457466239 -283 452 -283 c 2
 425 -283 l 2
 338.053277993 -283 274.847619144 -294 269 -294 c 0
 255.128760324 -294 251 -289.315592073 251 -279 c 0
 251 -269.834063441 252.676225101 -260.183249264 266.721805433 -259.012784236 c 0
 335.480242963 -251.934709784 332.658282483 -260.085751033 333.000120647 -221.973095252 c 2
 335 1 l 2
 335 4.79798731711 334.595664171 6.95433231716 334.595664171 6.95433231716 c 1
 334 7 l 2
 332.136044852 7 326.93311576 5.14660450272 319.84 3.12 c 0
 295.726081677 -3.7696909494 251.54305691 -16 209 -16 c 0
 129.662014214 -16 32 37.239235117 32 180 c 0
 32 297.703034937 122.4857772 384 243 384 c 0
 299.698166571 384 341.921134344 358 360 358 c 0
 374.667509952 358 379.145827884 391 398 391 c 0
 408.824950154 391 417 386.068008825 417 374.949594066 c 0
 412.997132777 255.864294172 412 168.011548185 412 77 c 2
 412 -88 l 2
EndSplineSet
AlternateSubs2: "'aalt' Access All Alternates lookup 0 subtable" q.sc q.sub q.sup q.denom q.numer
AlternateSubs2: "'aalt' Access All Alternates in Latin lookup 0 subtable" q.sc q.sub q.sup q.denom q.numer
Substitution2: "'smcp' Lowercase to Small Capitals in Latin lookup 11 subtable" q.sc
Substitution2: "'subs' Subscript in Latin lookup 8 subtable" q.sub
Substitution2: "'sups' Superscript in Latin lookup 7 subtable" q.sup
Substitution2: "denominators subtable" q.denom
Substitution2: "numerators subtable" q.numer
EndChar

StartChar: r
Encoding: 114 114 18
Width: 329
VWidth: 0
Flags: HW
AnchorPoint: "cedilla" 144 -100 basechar 0
AnchorPoint: "top" 181 500 basechar 0
AnchorPoint: "l;bl" 0 10 basechar 0
AnchorPoint: "l;x" 0 380 basechar 0
AnchorPoint: "l;o" 0 200 basechar 0
AnchorPoint: "r;bl" 329 10 basechar 0
AnchorPoint: "r;x" 329 380 basechar 0
AnchorPoint: "r;o" 329 200 basechar 0
LayerCount: 3
Fore
SplineSet
89.9044288527 347.951733317 m 1
 78.8493184983 347.643391696 31.8142923128 346 28 346 c 0
 23.0404531935 346 22 350.056980091 22 353 c 0
 22 356.629500251 23.1550861431 360.965462568 25.2024607923 366.083899191 c 1
 28.3102815386 374.371421182 29.096284582 375.014520795 42.78625885 375.992376099 c 0
 57.0482401496 377.011089049 140.818090181 379 148 379 c 0
 164.727956454 379 163 375.58141142 163 366 c 0
 163 346.908916752 162 320.909215416 162 302 c 0
 162 299.313650247 162.001505694 297.838328548 162.001505694 297.838328548 c 1
 163.415224292 302.622718803 164.602348419 306.491927294 166.249079996 310.197073342 c 1
 189.478583286 364.735907154 230.107572838 397 262 397 c 0
 293.518764571 397 322 365.432400352 322 351 c 0
 322 338.42896851 300.576204018 307 282 307 c 0
 256.511177862 307 239.278928927 338 222 338 c 0
 176.404416141 338 168 223.72484491 168 137 c 0
 168 81.4200776674 169.739904971 28 177 28 c 0
 240 28 l 0
 253.521497439 28 256 21.6390711572 256 12 c 0
 256 2.80239298519 254.848009554 -5 240 -5 c 0
 220.878272187 -5 162.91256702 -3 134 -3 c 0
 109.15024322 -3 78.125825471 -5 48 -5 c 0
 33.5425337613 -5 32 0.661451141529 32 12 c 0
 32 21.7652861333 35.3738001745 28 47 28 c 0
 89.3713326395 28 l 1
 94.4294145664 35.92014546 96 96.1735443999 96 162 c 0
 96 241.837507649 92.4480681173 333.229068562 89.9044288527 347.951733317 c 1
EndSplineSet
Layer: 2
SplineSet
79.5019298491 325.453481078 m 1
 58.5976396291 324.755173186 37.8417104064 324 33 324 c 0
 9.78263288202 324 10 351.21244826 10 353 c 0
 10 359.960570677 12.302149896 366.007427813 14.7220493578 371.242776296 c 0
 14.8705150531 371.563975447 l 1
 15.0339614161 371.877816559 l 0
 21.4936148853 384.281303503 32.8668055575 387.259951896 46.7264302714 387.972658027 c 1
 62.0998054903 389.065630857 144.916595731 391 153 391 c 0
 174.906503087 391 185 380.320358366 185 366 c 0
 185 365.23380527 184.987961122 362.99037507 184.986480503 362.755197033 c 1
 209.824457781 392.709747564 238.183978774 409 267 409 c 0
 305.163512543 409 344 378.237822726 344 351 c 0
 344 330.315200561 320.748671183 285 287 285 c 0
 255.797437991 285 231.119070611 311.711995753 225.904861997 315.914646886 c 1
 206.050068524 312.446436575 190 228.358531131 190 137 c 0
 190 102.988960172 192.217492026 64.6403744606 194.011134676 50 c 1
 245 50 l 0
 271.633733466 50 278 26.9684030865 278 12 c 0
 278 -1.33864256715 268.939920762 -17 245 -17 c 0
 225.193846854 -17 167.412270211 -15 139 -15 c 0
 115.013810181 -15 83.8265362577 -17 53 -17 c 0
 31.1356816553 -17 20 -4.12343143392 20 12 c 0
 20 27.349546956 26.8479501241 50 52 50 c 0
 80.7456974207 50 l 1
 83.1641374359 71.7882964963 84 115.227341588 84 162 c 0
 84 223.795018449 81.3661150372 296.678818115 79.5019298491 325.453481078 c 1
EndSplineSet
AlternateSubs2: "'aalt' Access All Alternates lookup 0 subtable" r.sc r.sub r.sup r.denom r.numer
AlternateSubs2: "'aalt' Access All Alternates in Latin lookup 0 subtable" r.sc r.sub r.sup r.denom r.numer
Substitution2: "'smcp' Lowercase to Small Capitals in Latin lookup 11 subtable" r.sc
Substitution2: "'subs' Subscript in Latin lookup 8 subtable" r.sub
Substitution2: "'sups' Superscript in Latin lookup 7 subtable" r.sup
Substitution2: "denominators subtable" r.denom
Substitution2: "numerators subtable" r.numer
EndChar

StartChar: s
Encoding: 115 115 19
Width: 337
VWidth: 0
Flags: HW
AnchorPoint: "cedilla" 175 -100 basechar 0
AnchorPoint: "top" 169 500 basechar 0
AnchorPoint: "l;bl" 0 10 basechar 0
AnchorPoint: "l;x" 0 380 basechar 0
AnchorPoint: "l;o" 0 200 basechar 0
AnchorPoint: "r;bl" 337 10 basechar 0
AnchorPoint: "r;x" 337 380 basechar 0
AnchorPoint: "r;o" 337 200 basechar 0
LayerCount: 3
Fore
SplineSet
182 396 m 0
 259.142930798 396 289 351.151677013 289 326 c 0
 289 311.012977857 256.521629419 304 246 304 c 0
 217.499296564 304 231.980498415 369 169 369 c 0
 136.942531974 369 99 351.890577009 99 302 c 0
 99 261.33430878 136.756055703 244.962698478 179.304247197 224.701654909 c 0
 236.719732618 196.983834361 305 167.518983806 305 106 c 0
 305 30.7952508235 236.006932455 -15 161 -15 c 0
 100.082147078 -15 32 15.4735459533 32 50 c 0
 32 67.6071860619 54.4081615501 91 65 91 c 0
 74.3674533262 91 75.7684122137 75.2132913126 86.2913273069 62.9365570372 c 1
 106.220541618 39.0214998634 130.287127817 14 177 14 c 0
 209.799179962 14 240 32.8641354839 240 76 c 0
 240 120.764700052 200.083322877 142.129889846 152.800166632 162.250381865 c 0
 98.3801433112 185.997301132 35 206.683793305 35 280 c 0
 35 349.437734615 110.113198713 396 182 396 c 0
EndSplineSet
AlternateSubs2: "'aalt' Access All Alternates lookup 0 subtable" longs s.sc s.sub s.sup s.denom s.numer
AlternateSubs2: "'aalt' Access All Alternates in Latin lookup 0 subtable" longs s.sc s.sub s.sup s.denom s.numer
Substitution2: "'hist' Historical Forms in Latin lookup 13 subtable" longs
Substitution2: "'smcp' Lowercase to Small Capitals in Latin lookup 11 subtable" s.sc
Substitution2: "'subs' Subscript in Latin lookup 8 subtable" s.sub
Substitution2: "'sups' Superscript in Latin lookup 7 subtable" s.sup
Substitution2: "denominators subtable" s.denom
Substitution2: "numerators subtable" s.numer
EndChar

StartChar: t
Encoding: 116 116 20
Width: 289
VWidth: 0
Flags: HW
AnchorPoint: "top" 142 540 basechar 0
AnchorPoint: "caron" 181 550 basechar 0
AnchorPoint: "cedilla" 155 -100 basechar 0
AnchorPoint: "l;bl" 0 10 basechar 0
AnchorPoint: "l;x" 0 380 basechar 0
AnchorPoint: "l;o" 0 200 basechar 0
AnchorPoint: "r;bl" 289 10 basechar 0
AnchorPoint: "r;x" 289 380 basechar 0
AnchorPoint: "r;o" 289 200 basechar 0
LayerCount: 3
Fore
SplineSet
35.7047028931 353.94734358 m 2
 126.531920976 480.706208378 l 1
 128.915030531 484.28087271 132.908596301 487 138 487 c 0
 144.20666928 487 151 482.871253071 151 474 c 0
 151 470.55670159 145 397.764352848 145 382 c 0
 145 374.329303678 144.649417576 375 153 375 c 0
 248 375 l 0
 251.245756517 375 253.76849715 375.043584575 256.033136092 374.584949325 c 0
 264.082972904 372.954694345 262.593272756 365.340867741 259.923173587 353.32542148 c 0
 256.881665777 340.145554301 252.804228631 335 244 335 c 0
 146.398322616 335 l 1
 145.101897381 329.911523058 145 314.0372523 145 292 c 0
 145 100 l 0
 145 68.8575225813 146.573957296 41 190 41 c 0
 228.563663424 41 260.058717559 57 270 57 c 0
 277.555278741 57 277 43.2814132568 277 38 c 0
 277 28.4178903871 188.679703325 -12 148 -12 c 0
 89.0242090406 -12 73 29.0047264734 73 60.0208323287 c 1
 74.0003935183 132.049165644 75 247.02584178 75 276 c 0
 75 314.986019511 72.5949344523 334 66 334 c 0
 41 334 l 0
 34.9595884765 334 32 339.024497193 32 344 c 0
 32 347.627788574 32.9969135465 351.239554234 35.7047028931 353.94734358 c 2
EndSplineSet
AlternateSubs2: "'aalt' Access All Alternates lookup 0 subtable" t.sc t.sub t.sup t.denom t.numer
AlternateSubs2: "'aalt' Access All Alternates in Latin lookup 0 subtable" t.sc t.sub t.sup t.denom t.numer
Substitution2: "'smcp' Lowercase to Small Capitals in Latin lookup 11 subtable" t.sc
Substitution2: "'subs' Subscript in Latin lookup 8 subtable" t.sub
Substitution2: "'sups' Superscript in Latin lookup 7 subtable" t.sup
Substitution2: "denominators subtable" t.denom
Substitution2: "numerators subtable" t.numer
EndChar

StartChar: u
Encoding: 117 117 21
Width: 510
VWidth: 0
Flags: HW
AnchorPoint: "top" 240 500 basechar 0
AnchorPoint: "l;bl" 10 10 basechar 0
AnchorPoint: "l;x" 0 380 basechar 0
AnchorPoint: "l;o" 0 200 basechar 0
AnchorPoint: "r;bl" 510 10 basechar 0
AnchorPoint: "r;x" 510 380 basechar 0
AnchorPoint: "r;o" 510 200 basechar 0
LayerCount: 3
Fore
SplineSet
342.323962471 355.955835961 m 1
 332.572377997 355.627016884 295.974120139 354 292 354 c 0
 287.768653641 354 285 356.768653641 285 361 c 0
 285 361.199118926 l 1
 285.026316298 361.39649116 l 0
 286.907622428 375.506287136 285.729049767 382.834174169 300.806088639 383.99394639 c 1
 319.978984266 385.00304616 408.716044621 389 414 389 c 0
 420.772160822 389 423.999973763 386.279687423 423.999973763 379.987453233 c 0
 423.999973763 379.987453233 423 140.984856587 423 79 c 0
 423 29.000283187 426.429978096 23 439 23 c 0
 441.307439857 23 477.224543743 29 480 29 c 0
 487.137367795 29 488 21.51531714 488 16 c 0
 488 1.19960301214 484.90850324 -0.89545874936 471.436481971 -2.96807740609 c 0
 437.305474592 -7.98734319725 374.83212883 -18 367 -18 c 0
 359.652003868 -18 354.106382685 -14.3062925864 353.009048479 -2.23561632178 c 1
 352.212383912 9.71435218827 351.709152579 27.194928904 350.640573326 32.4340796069 c 1
 334.727519051 25.9041976435 258.991559664 -14 189 -14 c 0
 91.6076499533 -14 77 54.7688047396 77 122 c 0
 77 279 l 0
 77 325.298949879 75.2905935154 353 68 353 c 0
 65.1089302605 353 23.0989950936 352 19 352 c 0
 13.844842064 352 12 356.387417475 12 360 c 0
 12 363.700828079 13.2218108781 367.132274406 15.2024607923 372.083899191 c 1
 18.4147571559 380.650022828 20.6948443927 381.984969011 32.8072517439 382.99433629 c 1
 55.0244424444 384.004208595 137.747469317 387 143 387 c 0
 149.772132396 387 153 384.269416608 153 378 c 0
 153 106 l 0
 153 52.9482502409 201.728978049 42 261 42 c 0
 295.185279816 42 349 47.9444628008 349 55 c 0
 349 173 l 0
 349 200.720239048 346.715736562 338.284411119 342.323962471 355.955835961 c 1
EndSplineSet
AlternateSubs2: "'aalt' Access All Alternates lookup 0 subtable" u.sc u.sub u.sup u.denom u.numer
AlternateSubs2: "'aalt' Access All Alternates in Latin lookup 0 subtable" u.sc u.sub u.sup u.denom u.numer
Substitution2: "'smcp' Lowercase to Small Capitals in Latin lookup 11 subtable" u.sc
Substitution2: "'subs' Subscript in Latin lookup 8 subtable" u.sub
Substitution2: "'sups' Superscript in Latin lookup 7 subtable" u.sup
Substitution2: "denominators subtable" u.denom
Substitution2: "numerators subtable" u.numer
EndChar

StartChar: v
Encoding: 118 118 22
Width: 461
VWidth: 0
Flags: HW
AnchorPoint: "l;x" 0 380 basechar 0
AnchorPoint: "l;o" 20 200 basechar 0
AnchorPoint: "r;x" 461 380 basechar 0
AnchorPoint: "r;o" 431 200 basechar 0
LayerCount: 3
Fore
SplineSet
397.588332413 343.480943182 m 0
 375.861102853 303.976889437 315.773614107 144.846116099 270.699442322 50.6911794804 c 0
 254.42344458 17.1219341387 247.175571861 18.855030879 221.496150883 -19.6641005887 c 0
 221.42393494 -19.7724245025 l 1
 221.342606428 -19.8740851427 l 0
 217.021319543 -25.2756937499 212.321995022 -28 208 -28 c 0
 191.038536122 -28 181.475111984 21.0882025244 175.145666444 40.0765391438 c 0
 164.198737341 73.9125018263 106.16117617 235.023908991 66.2071424439 338.90439668 c 1
 60.4142750277 353.38656522 61.6338450365 352 47 352 c 0
 38 352 l 0
 24.4785025613 352 22 358.360928843 22 368 c 0
 22 377.197607015 23.1519904456 385 38 385 c 0
 57.224749237 385 76.1437877857 383 105 383 c 0
 129.884865325 383 171.849552431 385 190 385 c 0
 204.457466239 385 206 379.338548858 206 368 c 0
 206 358.234713867 202.626199826 352 191 352 c 0
 161 352 l 0
 149.892593623 352 146.293879615 350.316555356 145.996049691 347.232428219 c 1
 148.092654303 337.555816799 211.450324177 151.557052452 239.75743509 85.1817578957 c 0
 244.319265653 74.5374865832 247.963792292 70.0623647796 248.973612675 69.203747448 c 1
 250.186025859 70.5689647732 252.237264759 75.6709091081 255.224606699 83.1392639573 c 1
 279.188149948 140.052679174 349 307.690642761 349 339 c 0
 349 348.787132453 346.38634102 352 342 352 c 0
 316 352 l 0
 302.478502561 352 300 358.360928843 300 368 c 0
 300 377.577448694 302.344671965 385 317 385 c 0
 325.271317718 385 354.127811541 383 374 383 c 0
 395.80645898 383 409.708354126 385 425 385 c 0
 436.715938713 385 439 379.32212862 439 368 c 0
 439 358.234713867 435.626199826 352 424 352 c 0
 408 352 l 0
 401.225197029 352 402.874353311 351.938576618 397.588332413 343.480943182 c 0
EndSplineSet
AlternateSubs2: "'aalt' Access All Alternates lookup 0 subtable" v.sc v.sub v.sup v.denom v.numer
AlternateSubs2: "'aalt' Access All Alternates in Latin lookup 0 subtable" v.sc v.sub v.sup v.denom v.numer
Substitution2: "'smcp' Lowercase to Small Capitals in Latin lookup 11 subtable" v.sc
Substitution2: "'subs' Subscript in Latin lookup 8 subtable" v.sub
Substitution2: "'sups' Superscript in Latin lookup 7 subtable" v.sup
Substitution2: "denominators subtable" v.denom
Substitution2: "numerators subtable" v.numer
EndChar

StartChar: w
Encoding: 119 119 23
Width: 697
VWidth: 0
Flags: HW
AnchorPoint: "top" 367 500 basechar 0
AnchorPoint: "l;x" 0 380 basechar 0
AnchorPoint: "l;o" 20 200 basechar 0
AnchorPoint: "r;x" 697 380 basechar 0
AnchorPoint: "r;o" 677 200 basechar 0
LayerCount: 3
Fore
SplineSet
479.644237751 -19.4197284302 m 0
 476.00642893 -26.6953460728 469.640896203 -28 466 -28 c 0
 449.005199703 -28 438.575659959 21.0650253081 433.109121154 40.1979111284 c 1
 426.129665201 66.1216046656 395.127725285 170.130837128 364.153950106 264.051316702 c 0
 361.752670698 271.255154926 359.991687013 276.226101336 358.830878891 278.832489634 c 1
 356.615700848 274.845169155 355.254464455 271.276560385 352.82691385 263.993908569 c 1
 327.793733483 197.9063124 297.84409267 111.990456064 268.699442322 51.6911794804 c 0
 252.310326088 17.8886272476 243.255459237 21.8727586612 220.65821293 -19.3917780716 c 1
 216.957445428 -26.7933130764 209.476145817 -28 206 -28 c 0
 190.973980896 -28 177.64102279 20.8365834964 172.121903495 40.153501028 c 0
 162.198185564 73.8941419934 107.169763812 225.005092022 68.1539501058 339.051316702 c 0
 63.4564818619 353.143721434 62.7321584623 352 49 352 c 2
 38 352 l 0
 24.4785025613 352 22 358.360928843 22 368 c 0
 22 377.197607015 23.1519904456 385 38 385 c 0
 57.224749237 385 76.1437877857 383 105 383 c 0
 129.884865325 383 171.849552431 385 190 385 c 0
 204.457466239 385 206 379.338548858 206 368 c 0
 206 358.234713867 202.626199826 352 191 352 c 0
 166 352 l 0
 154.892082711 352 151.295344647 350.331726241 150.994286056 347.214165205 c 1
 152.935515396 337.373979093 210.490332512 151.463251867 238.745694047 85.20930068 c 1
 242.050596487 77.9385153138 244.598292755 72.6046238459 245.268356437 71.5413122044 c 1
 247.365522474 73.9281021663 250.797002678 81.0702016451 255.210580161 92.104145353 c 0
 274.229237307 140.151279196 314.194512423 238.065586965 335.183539146 298.034234746 c 1
 340.204097662 311.087686887 342 317.610192267 342 324 c 0
 342 329.507091982 341.388074702 330.515646664 337.316718427 338.658359214 c 0
 331.12117235 351.049451368 321.066189148 352 306 352 c 0
 296 352 l 0
 282.478502561 352 280 358.360928843 280 368 c 0
 280 377.197607015 281.151990446 385 296 385 c 0
 321.203415908 385 335.150773792 383 369 383 c 0
 394.829012355 383 413.818228648 385 439 385 c 0
 453.457466239 385 455 379.338548858 455 368 c 0
 455 358.234713867 451.626199826 352 440 352 c 0
 419 352 l 0
 408.812698826 352 409.18207081 351.605160979 408.991186093 347.213408926 c 1
 410.837600431 337.200007223 464.457453857 151.421693866 490.773344566 85.1446357862 c 1
 494.97594612 75.3385654921 498.998348046 66.8366867278 500.136204624 65.0194505814 c 1
 502.414084878 68.6979759548 505.280305496 76.7785109504 508.225563975 84.1416571494 c 1
 530.066294303 135.76520156 592 321.557690782 592 344 c 0
 592 349.656541745 590.646140174 352 583 352 c 0
 552 352 l 0
 538.478502561 352 536 358.360928843 536 368 c 0
 536 377.577448694 538.344671965 385 553 385 c 0
 561.271317718 385 590.127811541 383 610 383 c 0
 631.879882363 383 653.654093129 385 661 385 c 0
 672.715938713 385 675 379.32212862 675 368 c 0
 675 358.234713867 671.626199826 352 660 352 c 0
 654 352 l 0
 647.005756739 352 646.555514098 351.402824264 642.670625711 343.633047489 c 1
 620.949679248 302.16578606 570.834917888 144.974172885 525.699442322 50.6911794804 c 0
 509.39062335 17.0542403512 502.346819328 20.0630221378 479.644237751 -19.4197284302 c 0
EndSplineSet
AlternateSubs2: "'aalt' Access All Alternates lookup 0 subtable" w.sc w.sub w.sup w.denom w.numer
AlternateSubs2: "'aalt' Access All Alternates in Latin lookup 0 subtable" w.sc w.sub w.sup w.denom w.numer
Substitution2: "'smcp' Lowercase to Small Capitals in Latin lookup 11 subtable" w.sc
Substitution2: "'subs' Subscript in Latin lookup 8 subtable" w.sub
Substitution2: "'sups' Superscript in Latin lookup 7 subtable" w.sup
Substitution2: "denominators subtable" w.denom
Substitution2: "numerators subtable" w.numer
EndChar

StartChar: x
Encoding: 120 120 24
Width: 468
VWidth: 0
Flags: HW
AnchorPoint: "l;bl" 0 10 basechar 0
AnchorPoint: "l;x" 20 380 basechar 0
AnchorPoint: "l;o" 25 200 basechar 0
AnchorPoint: "r;bl" 468 10 basechar 0
AnchorPoint: "r;x" 468 380 basechar 0
AnchorPoint: "r;o" 448 200 basechar 0
LayerCount: 3
Fore
SplineSet
352.427521223 338.543487266 m 1
 355.747120654 344.076152984 358 346.845400462 358 348 c 0
 358 348.225838906 356.038907732 352 335 352 c 0
 322 352 l 0
 308.478502561 352 306 358.360928843 306 368 c 0
 306 377.577448694 308.344671965 385 323 385 c 0
 342.233644052 385 357.221313528 383 377 383 c 0
 398.814874182 383 414.724046533 385 430 385 c 0
 441.293846165 385 446 380.047534427 446 368 c 0
 446 358.234713867 442.626199826 352 431 352 c 0
 413.764964847 352 404.593250338 338.316710076 389.042050559 323.802256949 c 0
 349.132379904 286.885811594 305.166033797 240.92339311 284.121320344 219.878679656 c 0
 276.615365409 212.372724722 275 210.784850891 275 210 c 0
 275 209.160829275 278.086923758 205.217434989 284.420927403 196.772096795 c 1
 309.452726939 161.727577446 373.399475827 73.8025030352 400.375119962 39.8331733844 c 1
 409.666434814 27.4447535817 407.912948237 28 416 28 c 0
 428 28 l 0
 441.521497439 28 444 21.6390711572 444 12 c 0
 444 2.80239298519 442.848009554 -5 428 -5 c 0
 408.784536581 -5 387.861070182 -3 359 -3 c 0
 334.147790158 -3 309.200714911 -5 291 -5 c 0
 276.542533761 -5 275 0.661451141529 275 12 c 0
 275 21.7652861333 278.373800174 28 290 28 c 0
 301 28 l 0
 316.959264851 28 317.808125383 29.2339663089 318.006632556 32.8259013518 c 1
 316.812728872 36.3422527106 306.77554725 50.4283522123 297.47938234 64.3725995774 c 1
 277.520285234 96.3071549469 247.586922247 137.217437003 232.6 157.2 c 0
 229.765404504 160.979460661 227.723209052 163.58092927 226.375447665 164.740123158 c 0
 224.814646615 166.082549982 224.663679887 166.910302091 217.297114594 158.070423741 c 0
 196.256194866 133.021709779 146.249459964 76.9895160974 123.441200414 45.2562854188 c 0
 118.119173393 37.8054475899 114 32.9409683253 114 31 c 0
 114 30.5388897873 115.146057428 28 129 28 c 0
 157 28 l 0
 170.521497439 28 173 21.6390711572 173 12 c 0
 173 2.80239298519 171.848009554 -5 157 -5 c 0
 137.753531024 -5 122.845995941 -3 94 -3 c 0
 69.1620542411 -3 53.2795864252 -5 38 -5 c 0
 25.651169496 -5 22 0.177817961917 22 12 c 0
 22 21.7652861333 25.3738001745 28 37 28 c 0
 55.1266397685 28 56.6318186377 29.8653026183 81.8526541549 56.0949715562 c 0
 201.865585585 179.108226272 l 1
 211.685439738 188.928080426 211.118702755 185.818058922 204.611681257 194.184229419 c 1
 97.5807850124 338.225909009 l 0
 86.5907919713 353.212263156 88.6610710083 352 74 352 c 0
 58 352 l 0
 44.4785025613 352 42 358.360928843 42 368 c 0
 42 377.197607015 43.1519904456 385 58 385 c 0
 77.1821103934 385 108.113675523 383 137 383 c 0
 161.82378671 383 176.74670077 385 195 385 c 0
 209.457466239 385 211 379.338548858 211 368 c 0
 211 358.234713867 207.626199826 352 196 352 c 0
 180.005424492 352 179 349.376065011 179 349 c 0
 179 346.837252367 183.337771721 339.888514752 188.458472221 332.719534051 c 1
 251.472125773 240.699586469 l 0
 255.353282639 235.05426739 257.909319655 231.700328132 258.447812328 231.233634483 c 1
 260.230945418 232.662175914 262.774569835 236.017210522 267.878679656 241.121320344 c 1
EndSplineSet
AlternateSubs2: "'aalt' Access All Alternates lookup 0 subtable" x.sc x.sub x.sup x.denom x.numer
AlternateSubs2: "'aalt' Access All Alternates in Latin lookup 0 subtable" x.sc x.sub x.sup x.denom x.numer
Substitution2: "'smcp' Lowercase to Small Capitals in Latin lookup 11 subtable" x.sc
Substitution2: "'subs' Subscript in Latin lookup 8 subtable" x.sub
Substitution2: "'sups' Superscript in Latin lookup 7 subtable" x.sup
Substitution2: "denominators subtable" x.denom
Substitution2: "numerators subtable" x.numer
EndChar

StartChar: y
Encoding: 121 121 25
Width: 467
VWidth: 0
Flags: HW
AnchorPoint: "top" 251 500 basechar 0
AnchorPoint: "l;x" 0 380 basechar 0
AnchorPoint: "l;o" 20 200 basechar 0
AnchorPoint: "l;lo" 40 -260 basechar 0
AnchorPoint: "r;x" 467 380 basechar 0
AnchorPoint: "r;o" 447 200 basechar 0
LayerCount: 3
Fore
SplineSet
90.986667126 -212.175499965 m 0
 117.802642464 -201.861663296 169.029711907 -189.735452744 179.20674366 -162.905096305 c 1
 196.168588784 -120.999361292 223 -53.2894460207 223 -43 c 0
 223 -28.1537406915 108.148070118 239.048022628 67.2145699273 338.885827971 c 0
 61.3252628339 353.609095705 63.5515034879 352 49 352 c 0
 38 352 l 0
 24.4785025613 352 22 358.360928843 22 368 c 0
 22 377.197607015 23.1519904456 385 38 385 c 0
 57.196380166 385 83.1265898842 383 112 383 c 0
 136.889146384 383 181.855922229 385 200 385 c 0
 214.457466239 385 216 379.338548858 216 368 c 0
 216 358.234713867 212.626199826 352 201 352 c 0
 182 352 l 0
 167.775688473 352 159 350.191154649 159 345 c 0
 159 328.779116464 216.893120099 172.850340033 247.778277079 97.1318906619 c 0
 255.714513735 77.6520370516 261.351693539 65.1200740893 263.931308326 60.6173485467 c 1
 267.253605324 66.9088055275 271.747257606 78.4408170939 278.172353065 97.0022039769 c 0
 306.067616997 175.706698641 360 336.735644813 360 348 c 0
 360 351.059713905 356.75824347 352 332 352 c 0
 309 352 l 0
 295.478502561 352 293 358.360928843 293 368 c 0
 293 377.577448694 295.344671965 385 310 385 c 0
 329.187549337 385 354.178299877 383 374 383 c 0
 395.822416798 383 413.738292317 385 429 385 c 0
 440.293846165 385 445 380.047534427 445 368 c 0
 445 358.234713867 441.626199826 352 430 352 c 2
 416 352 l 0
 408.730232492 352 408.632465214 352.410562661 405.83323219 344.012863589 c 1
 389.746946328 299.775577469 280.838078216 22.0174483295 272.771844629 1.85186436187 c 1
 269.915955343 -4.81187730487 251.830617902 -59.993693007 232.828971001 -114.998460353 c 0
 214.896187958 -165.808012306 211.452555345 -182.738678909 168.342270963 -235.874610822 c 1
 153.5560262 -254.603854188 151.517793048 -259.599161246 126.298193203 -271.704569172 c 0
 101.179748832 -283.76142247 70.7896466782 -298 63 -298 c 0
 46.722431694 -298 42 -284.681740071 42 -275 c 0
 42 -261.69050257 51.5059119271 -245.330328142 61.5306824703 -231.295649381 c 1
 68.182995374 -221.317180026 81.7796277001 -215.244513106 90.986667126 -212.175499965 c 0
EndSplineSet
Layer: 2
SplineSet
58.7051582648 325.005850858 m 1
 57.3324924301 325.005850858 57.2473041854 325 56 325 c 2
 45 325 l 2
 18.366266534 325 12 348.031596913 12 363 c 0
 12 376.338642567 21.0600792384 392 45 392 c 0
 65.2855942918 392 90.868861626 390 119 390 c 0
 143.249505718 390 188.051309422 392 207 392 c 0
 228.864318345 392 240 379.123431434 240 363 c 0
 240 347.650453044 233.152049876 325 208 325 c 2
 187.145495383 325 l 1
 201.573312553 278.154436854 243.137553721 167.347140574 267.993709918 106.721793284 c 1
 290.19920113 169.12734033 329.025325013 284.91853257 342.74296682 329.991719259 c 1
 340.857525551 330.001052384 339.42748616 330 337 330 c 2
 314 330 l 2
 287.366266534 330 281 353.031596913 281 368 c 0
 281 383.598475175 292.811963865 397 315 397 c 0
 335.223190369 397 360.214176146 395 379 395 c 0
 399.766458676 395 417.304454805 397 434 397 c 0
 450.617994652 397 467 387.788255907 467 368 c 0
 467 352.650453044 460.152049876 330 435 330 c 2
 423.135138902 330 l 1
 404.01172066 304.829795246 288.021518301 -0.20119400517 288.021518301 -0.20119400517 c 1
 293.488795595 -2.66058602891 l 1
 290.464999461 -10.1919894547 272.565005956 -64.7066773174 253.874727492 -118.951351591 c 0
 236.184105281 -168.460965819 230.466816491 -189.917843994 186.501932837 -243.486296266 c 0
 172.418554862 -260.646008704 165.296936644 -270.093015299 138.556361456 -282.569764702 c 0
 113.591428761 -294.218026076 84.648652164 -310 68 -310 c 0
 41.0327410459 -310 30 -289.621165232 30 -275 c 0
 30 -254.093286961 42.321926453 -233.96082613 52.2485555349 -219.164038172 c 0
 62.100513818 -203.019696446 79.9722716546 -195.171153305 90.2086538419 -191.443484347 c 0
 121.01345425 -180.225644282 163.595286803 -166.581714377 168.467167802 -154.60555465 c 0
 183.683357882 -117.200798077 207.266616813 -54.1156871697 210.67320562 -42.8238589838 c 1
 201.120476602 -10.7418926202 97.1605418816 231.809960389 58.7051582648 325.005850858 c 1
EndSplineSet
AlternateSubs2: "'aalt' Access All Alternates lookup 0 subtable" y.sc y.sub y.sup y.denom y.numer
AlternateSubs2: "'aalt' Access All Alternates in Latin lookup 0 subtable" y.sc y.sub y.sup y.denom y.numer
Substitution2: "'smcp' Lowercase to Small Capitals in Latin lookup 11 subtable" y.sc
Substitution2: "'subs' Subscript in Latin lookup 8 subtable" y.sub
Substitution2: "'sups' Superscript in Latin lookup 7 subtable" y.sup
Substitution2: "denominators subtable" y.denom
Substitution2: "numerators subtable" y.numer
EndChar

StartChar: A
Encoding: 65 65 26
Width: 698
VWidth: 0
Flags: HW
AnchorPoint: "top" 371 780 basechar 0
AnchorPoint: "l;bl" 0 10 basechar 0
AnchorPoint: "l;x" 70 380 basechar 0
AnchorPoint: "l;o" 40 200 basechar 0
AnchorPoint: "r;bl" 698 10 basechar 0
AnchorPoint: "r;x" 638 380 basechar 0
AnchorPoint: "r;o" 668 200 basechar 0
AnchorPoint: "l;hi" 130 650 basechar 0
AnchorPoint: "r;hi" 598 650 basechar 0
LayerCount: 3
Fore
SplineSet
394.87507257 680.869026596 m 2
 514.822977775 344.01528148 l 0
 554.57636116 233.481483774 622.668451692 41.1244102572 635.491876947 30 c 1
 667 30 l 0
 679.189772879 30 681 26.3318988665 681 14 c 0
 681 -1.09434643566 678.745404972 -6 667 -6 c 0
 651.758628294 -6 606.863142096 -3 577 -3 c 0
 547.137617078 -3 489.163085876 -6 466 -6 c 0
 451.794460233 -6 449 -2.42613207383 449 15 c 0
 449 28.7107827894 454.077861804 30 470 30 c 0
 522 30 l 1
 522 52.4742660293 472.105002682 199.186351241 452.164041339 255.021043001 c 1
 446.074370129 273.290056632 448.97291422 272 435 272 c 0
 234 272 l 0
 216.278159517 272 218.947001579 269.305445085 213.791225178 255.900426445 c 0
 187.860338733 190.075868544 133 50.2536990267 133 30 c 0
 209 30 l 0
 221.189772879 30 223 26.3318988665 223 14 c 0
 223 -1.09434643566 220.745404972 -6 209 -6 c 0
 185.788710751 -6 146.833765493 -3 117 -3 c 0
 87.2148701486 -3 67.2934468887 -6 44 -6 c 0
 29.7944602326 -6 27 -2.42613207383 27 15 c 0
 27 28.7107827894 32.0778618044 30 48 30 c 0
 75.2441188381 30 l 1
 91.4148723652 47.1699930354 205.77523817 328.399392729 219.244887379 359.187162349 c 0
 325.229247871 605.150866888 l 1
 333.699628311 626.326817988 350.589043962 635.033496853 361.231919306 661.156918154 c 1
 366.959924226 674.522262966 373.813158048 690 383 690 c 0
 389.424129327 690 393.598635769 685.974773803 394.87507257 680.869026596 c 2
247 302 m 2
 426 302 l 0
 436.4246744 302 436 304 436 304 c 0
 436 305.769671287 434.220693818 309.851344545 432.161037583 316.030313249 c 0
 349.146180504 559.07381048 l 1
 346.717821622 566.965976847 344.651438256 572.902722613 343.870750943 574.659269067 c 1
 341.64419465 570.637599916 339.840155792 566.216571694 336.77737764 558.86590413 c 0
 238.767611582 318.841987251 l 1
 235.752323083 311.806314088 234 306.874646068 234 305 c 0
 234 304.234340279 234.398910791 302 247 302 c 2
EndSplineSet
AlternateSubs2: "'aalt' Access All Alternates lookup 0 subtable" A.c2
AlternateSubs2: "'aalt' Access All Alternates in Latin lookup 0 subtable" A.c2
Position2: "'cpsp' Capital Spacing in Latin lookup 2 subtable" dx=4 dy=0 dh=8 dv=0
Substitution2: "'c2sc' Capitals to Small Capitals in Latin lookup 12 subtable" A.c2
EndChar

StartChar: B
Encoding: 66 66 27
Width: 587
VWidth: 0
Flags: HW
AnchorPoint: "top" 291 780 basechar 0
AnchorPoint: "l;bl" 0 10 basechar 0
AnchorPoint: "l;x" 0 380 basechar 0
AnchorPoint: "l;hi" 0 650 basechar 0
AnchorPoint: "l;o" 0 200 basechar 0
AnchorPoint: "r;bl" 567 10 basechar 0
AnchorPoint: "r;x" 587 380 basechar 0
AnchorPoint: "r;hi" 567 650 basechar 0
AnchorPoint: "r;o" 587 200 basechar 0
LayerCount: 3
Fore
SplineSet
282 351 m 2
 299.092103027 351 309.290188614 350 315 350 c 0
 320.702195246 350 328.45647119 350.98110139 334.088758246 352.858530409 c 1
 379.276455126 366.61130772 431 405.529322469 431 488 c 0
 431 585.053431067 357.866605192 641 257 641 c 0
 241.574859094 641 228.404107154 640.687135243 216.227851213 637.505124168 c 1
 212.976774157 619.953643625 212 480.722221395 212 406 c 0
 212 358 l 0
 212 351.790601835 211.281887309 351 225 351 c 0
 282 351 l 2
279 30 m 2
 422.512041374 30 456 102.316521985 456 176 c 0
 456 246.315379142 433.578563787 292.637220287 371.081972459 313.143914316 c 0
 343.833967989 321.902201467 297.943078547 323 254 323 c 0
 220 323 l 0
 211.884842221 323 212 320.437692551 212 315 c 0
 212 256.344715142 212.855083307 49.4763881008 219.41922211 30 c 1
 279 30 l 2
171 -3 m 0
 141.100748081 -3 74.2080009643 -6 65 -6 c 0
 50.7944602326 -6 48 -2.42613207383 48 15 c 0
 48 28.7107827894 53.0778618044 30 69 30 c 0
 121.631523943 30 l 1
 123.492019763 33.0268051803 124 47.5125406588 124 69 c 0
 124 392 l 0
 124 505.790924731 120.783475989 616.781943464 115.711833617 630.952955026 c 1
 60.0526153896 629 l 1
 47.5926390065 629 37 631.921752288 37 649 c 0
 37 666.242348107 47.1672643362 667 60 667 c 0
 76.1204011932 667 143.072583898 665 173 665 c 0
 211.851148134 665 254.858298621 668 296 668 c 0
 416.333680457 668 521 627.531888005 521 504 c 0
 521 404.526290639 412.749453663 361.08033772 369.069969987 345.196889111 c 1
 365.883973612 343.922490561 360.289988282 341.853101028 360.116131801 341.789183204 c 1
 398.164253423 336.181119859 550 320.00330566 550 169 c 0
 550 11.7771085448 378.467695432 -5 267 -5 c 0
 220.943824587 -5 183.801121174 -3 171 -3 c 0
EndSplineSet
AlternateSubs2: "'aalt' Access All Alternates lookup 0 subtable" B.c2
AlternateSubs2: "'aalt' Access All Alternates in Latin lookup 0 subtable" B.c2
Position2: "'cpsp' Capital Spacing in Latin lookup 2 subtable" dx=4 dy=0 dh=8 dv=0
Substitution2: "'c2sc' Capitals to Small Capitals in Latin lookup 12 subtable" B.c2
EndChar

StartChar: C
Encoding: 67 67 28
Width: 731
VWidth: 0
Flags: HW
AnchorPoint: "cedilla" 396 -100 basechar 0
AnchorPoint: "top" 395 780 basechar 0
AnchorPoint: "l;x" 0 380 basechar 0
AnchorPoint: "l;o" 0 200 basechar 0
AnchorPoint: "r;bl" 731 10 basechar 0
AnchorPoint: "r;x" 731 380 basechar 0
AnchorPoint: "r;hi" 731 650 basechar 0
AnchorPoint: "r;o" 731 200 basechar 0
AnchorPoint: "l;bl" 20 10 basechar 0
AnchorPoint: "l;hi" 20 650 basechar 0
LayerCount: 3
Fore
SplineSet
42 335 m 0
 42 545.734938859 198.56702746 683 402 683 c 0
 520.984693664 683 590.864958722 624.35649558 610.720387033 610.457695762 c 0
 610.782232272 610.414404094 l 1
 610.841821841 610.368056652 l 0
 616.727305383 605.790458341 621.103297094 603.355653525 621.709821358 603.446743249 c 1
 621.846463215 603.55672328 623 605.408401444 623 611 c 0
 623 638 l 0
 623 649.756734534 625.103726312 654 641 654 c 0
 655.904166473 654 664 652.198180268 664 638 c 0
 664 619.85083332 660 495.924436311 660 445 c 0
 660 431.957007068 655.278609836 426 641 426 c 0
 622.4939955 426 619 430.545832427 619 441 c 0
 619 445.255809888 623 522.197219051 623 531 c 0
 623 541.627237819 527.238247618 647 395 647 c 0
 252.23252099 647 150 513.038065619 150 333 c 0
 150 165.353129481 271.964431532 26 424 26 c 0
 536.051814962 26 613.83995144 82.9069976889 616.013365198 91.2881735425 c 1
 629.024347997 204.383639416 l 1
 631.238782956 219.88468413 637.772310665 223.051807823 654.335358771 220.981426809 c 1
 665.812681514 219.833694535 669 212.861670149 669 205 c 0
 669 194.481451371 664.977911262 161.635215537 652.978024326 71.6360635183 c 1
 650.557390767 49.8503614916 522.876532916 -19 396 -19 c 0
 210.738356802 -19 42 92.1964122109 42 335 c 0
EndSplineSet
AlternateSubs2: "'aalt' Access All Alternates lookup 0 subtable" C.c2
AlternateSubs2: "'aalt' Access All Alternates in Latin lookup 0 subtable" C.c2
Position2: "'cpsp' Capital Spacing in Latin lookup 2 subtable" dx=4 dy=0 dh=8 dv=0
Substitution2: "'c2sc' Capitals to Small Capitals in Latin lookup 12 subtable" C.c2
EndChar

StartChar: D
Encoding: 68 68 29
Width: 758
VWidth: 0
Flags: HW
AnchorPoint: "top" 342 780 basechar 0
AnchorPoint: "l;bl" 0 10 basechar 0
AnchorPoint: "l;x" 0 380 basechar 0
AnchorPoint: "l;hi" 0 650 basechar 0
AnchorPoint: "l;o" 0 200 basechar 0
AnchorPoint: "r;x" 758 380 basechar 0
AnchorPoint: "r;o" 748 200 basechar 0
AnchorPoint: "r;bl" 718 10 basechar 0
AnchorPoint: "r;hi" 718 650 basechar 0
LayerCount: 3
Fore
SplineSet
332 681 m 0
 549.207789828 681 716 550.915806384 716 335 c 0
 716 114.143018645 548.325465686 -4.98537758175 368.016759253 -7 c 1
 302.85435385 -7 237.88850341 -3 173 -3 c 0
 145.125064938 -3 57.2106035898 -7 46 -7 c 0
 33.4635109714 -7 32 -2.14147359555 32 10 c 0
 32 26.6126655556 38.7687077925 28 52 28 c 0
 115.910654423 28 l 1
 121.570479896 60.2247201726 128 405.218525944 128 563 c 0
 128 601.954027349 127.206367673 630.544472723 126.535064731 637.928349038 c 1
 59.0428484001 636 l 1
 49.7290631765 636 43 637.270412311 43 651 c 0
 43 663.077106713 44.1910441854 670 59 670 c 0
 63.1621076786 670 94.0160261579 669 128 669 c 0
 201.750225554 669 291.569313181 681 332 681 c 0
217.337414761 28.1491483322 m 1
 225.515749705 25.1182171553 253.29898108 25 272 25 c 0
 605.57673784 25 609 261.145800529 609 348 c 0
 609 488.58584441 494.068902303 649 311 649 c 0
 285.574011078 649 244.409514693 648.575038579 223.021764139 643.416612632 c 1
 219.732163822 630.522392688 216.999950186 541.374152279 216.999950186 499.982711727 c 0
 216.204087442 361.880507131 215.83984375 224.471303911 215.83984375 85.9755859375 c 0
 215.83984375 57.5196055082 216.387796008 33.163625301 217.337414761 28.1491483322 c 1
EndSplineSet
AlternateSubs2: "'aalt' Access All Alternates lookup 0 subtable" D.c2
AlternateSubs2: "'aalt' Access All Alternates in Latin lookup 0 subtable" D.c2
Position2: "'cpsp' Capital Spacing in Latin lookup 2 subtable" dx=4 dy=0 dh=8 dv=0
Substitution2: "'c2sc' Capitals to Small Capitals in Latin lookup 12 subtable" D.c2
EndChar

StartChar: E
Encoding: 69 69 30
Width: 605
VWidth: 0
Flags: HW
AnchorPoint: "top" 316 780 basechar 0
AnchorPoint: "l;bl" 0 10 basechar 0
AnchorPoint: "l;x" 0 380 basechar 0
AnchorPoint: "l;hi" 0 650 basechar 0
AnchorPoint: "l;o" 0 200 basechar 0
AnchorPoint: "r;bl" 605 10 basechar 0
AnchorPoint: "r;x" 605 380 basechar 0
AnchorPoint: "r;hi" 605 650 basechar 0
AnchorPoint: "r;o" 605 200 basechar 0
LayerCount: 3
Fore
SplineSet
480.024665182 678.396278682 m 0
 481.158674627 689.736373134 487.087272702 693 496 693 c 0
 510.020657829 693 516 690.957346793 516 679 c 0
 516 659.646296065 512 626.942668073 512 549 c 0
 512 539.209398165 507.281887309 536 493 536 c 0
 479.775783324 536 475 541.801099351 475 553 c 0
 475 557.823887322 477.611810273 617.01546353 477.957573019 628.910662447 c 1
 456.968110316 632.319892196 310.178105976 634.980104481 209.940002058 634.999935029 c 1
 206.279193166 627.254628657 205 579.481796732 205 510 c 0
 205 467.026014915 205.998604951 418.099749471 207 368.029997001 c 0
 207 354.97157212 205.763955756 355 216 355 c 2
 383 355 l 2
 402.888734046 355 435 356.410506942 435 368 c 2
 435 418 l 2
 435 427.370301646 447.241944834 430 455 430 c 0
 462.043952848 430 472 427.147761485 472 419 c 0
 472 409.744948907 470 376.950661228 470 341 c 0
 470 305.07936978 472 271.208520966 472 258 c 0
 472 250.113138436 463.254641126 247 456 247 c 0
 448.391126352 247 435 249.458896055 435 259 c 2
 435 305 l 2
 435 312.774361658 437.053980889 322 383 322 c 2
 220 322 l 2
 204.56933299 322 207 324.209000571 207 310.03146507 c 0
 209.778199806 177.603940969 213.065706023 52.8227244203 217.588544462 37.000245024 c 1
 317.118768753 37.0399274138 512.683688661 40 517 40 c 0
 532.00302836 40 531.04174486 37.6094286607 533.009554164 60.2392356668 c 0
 534.994749741 85.0541803773 535.001282865 108.088486947 536 147.038455219 c 0
 536 155.922934009 545.147670249 158 553 158 c 0
 561.592822162 158 573 156.212972588 573 146 c 0
 573 95.9021216276 570 37.844454966 570 8 c 0
 570 -4.48706605019 554.323464563 -6 545 -6 c 0
 521.956956691 -6 204.960494979 -3 175 -3 c 0
 145.122167335 -3 76.1486576202 -6 53 -6 c 0
 38.6257430012 -6 37 -2.11312772851 37 15 c 0
 37 28.4236463003 40.9254758686 30 57 30 c 2
 117.81752596 30 l 1
 120.341104903 32.7893696324 122 53.6518515306 122 102 c 2
 122 198 l 2
 122 308.97692781 118 485.86610482 118 492 c 0
 118 558.117481494 113.709200319 624.339889794 109.111784695 633 c 1
 67 633 l 2
 55.0985927607 633 45 633.807067586 45 651 c 0
 45 664.217451059 50.845949534 668 60 668 c 0
 67.2336583321 668 132.078954954 665 167 665 c 0
 219.939398391 665 372.930138785 668 416 668 c 0
 484.070569746 668 478.413890737 668.731632011 480.024665182 678.396278682 c 0
EndSplineSet
AlternateSubs2: "'aalt' Access All Alternates lookup 0 subtable" E.c2
AlternateSubs2: "'aalt' Access All Alternates in Latin lookup 0 subtable" E.c2
Position2: "'cpsp' Capital Spacing in Latin lookup 2 subtable" dx=4 dy=0 dh=8 dv=0
Substitution2: "'c2sc' Capitals to Small Capitals in Latin lookup 12 subtable" E.c2
EndChar

StartChar: F
Encoding: 70 70 31
Width: 550
VWidth: 0
Flags: HW
AnchorPoint: "top" 308 780 basechar 0
AnchorPoint: "l;bl" 0 10 basechar 0
AnchorPoint: "l;x" 0 380 basechar 0
AnchorPoint: "l;hi" 0 650 basechar 0
AnchorPoint: "l;o" 0 200 basechar 0
AnchorPoint: "r;x" 550 380 basechar 0
AnchorPoint: "r;hi" 550 650 basechar 0
AnchorPoint: "r;o" 530 200 basechar 0
LayerCount: 3
Fore
SplineSet
482.024665182 678.396278682 m 0
 483.158674627 689.736373134 489.087272702 693 498 693 c 0
 512.020657829 693 518 690.957346793 518 679 c 0
 518 659.646296065 514 626.942668073 514 549 c 0
 514 539.209398165 509.281887309 536 495 536 c 0
 481.775783324 536 477 541.801099351 477 553 c 0
 477 557.814606498 479.612475585 617.038352132 479.956833292 628.885213801 c 1
 458.486436917 632.293882971 302.39179865 634.980774229 201.986715781 634.999924318 c 1
 198.110324063 625.95633493 197 577.223875096 197 524 c 0
 197 461.011441423 197.999176322 391.084131196 199 368.065186599 c 1
 199 352.61270838 196.666899061 355 212 355 c 0
 385 355 l 0
 404.888734046 355 437 356.410506942 437 368 c 0
 437 418 l 0
 437 427.370301646 449.241944834 430 457 430 c 0
 464.043952848 430 474 427.147761485 474 419 c 0
 474 409.744948907 472 376.950661228 472 341 c 0
 472 305.073612058 474 261.175879713 474 248 c 0
 474 240.113138436 465.254641126 237 458 237 c 0
 450.391126352 237 437 239.458896055 437 249 c 0
 437 305 l 0
 437 312.774361658 439.053980889 322 385 322 c 0
 212 322 l 0
 198.321179402 322 199 322.574818581 199 305.031911283 c 1
 201.779421293 174.399110525 200.764271299 46.0028077679 204.685893632 30 c 1
 286 30 l 0
 298.189772879 30 300 26.3318988665 300 14 c 0
 300 -1.09434643566 297.745404972 -6 286 -6 c 0
 262.842193807 -6 195.885016697 -3 166 -3 c 0
 136.146701587 -3 86.182733449 -6 63 -6 c 0
 48.7944602326 -6 46 -2.42613207383 46 15 c 0
 46 28.7107827894 51.0778618044 30 67 30 c 0
 109.81752596 30 l 1
 112.341104903 32.7893696324 114 53.6518515306 114 102 c 0
 114 198 l 0
 114 308.97692781 110 485.86610482 110 492 c 0
 110 558.117481494 105.709200319 624.339889794 101.111784695 633 c 1
 59 633 l 0
 47.0985927607 633 37 633.807067586 37 651 c 0
 37 664.217451059 42.845949534 668 52 668 c 0
 59.2336583321 668 124.078954954 665 159 665 c 0
 211.941779388 665 374.933404032 668 418 668 c 0
 486.070569746 668 480.413890737 668.731632011 482.024665182 678.396278682 c 0
EndSplineSet
AlternateSubs2: "'aalt' Access All Alternates lookup 0 subtable" F.c2
AlternateSubs2: "'aalt' Access All Alternates in Latin lookup 0 subtable" F.c2
Position2: "'cpsp' Capital Spacing in Latin lookup 2 subtable" dx=4 dy=0 dh=8 dv=0
Substitution2: "'c2sc' Capitals to Small Capitals in Latin lookup 12 subtable" F.c2
EndChar

StartChar: G
Encoding: 71 71 32
Width: 764
VWidth: 0
Flags: HW
AnchorPoint: "cedilla" 416 -100 basechar 0
AnchorPoint: "top" 404 780 basechar 0
AnchorPoint: "l;x" 0 380 basechar 0
AnchorPoint: "l;o" 0 200 basechar 0
AnchorPoint: "r;bl" 744 10 basechar 0
AnchorPoint: "r;x" 744 380 basechar 0
AnchorPoint: "r;hi" 744 650 basechar 0
AnchorPoint: "r;o" 764 200 basechar 0
AnchorPoint: "l;bl" 20 10 basechar 0
AnchorPoint: "l;hi" 20 650 basechar 0
LayerCount: 3
Fore
SplineSet
674 73 m 0
 674 50.588197738 531.427351899 -21 396 -21 c 0
 210.763723035 -21 42 86.2024385831 42 335 c 0
 42 557.843413476 204.747970999 680 408 680 c 0
 519.83017208 680 590.459024902 634.640649253 610.720387033 620.457695762 c 0
 610.782232272 620.414404094 l 1
 610.841821841 620.368056652 l 0
 616.727305383 615.790458341 621.103297094 613.355653525 621.709821358 613.446743249 c 1
 621.846463215 613.55672328 623 615.408401444 623 621 c 0
 623 646 l 0
 623 657.756734534 625.103726312 662 641 662 c 0
 656.041438226 662 663 659.973533691 663 646 c 0
 663 631.874892625 660 515.943917069 660 465 c 0
 660 451.957007068 655.278609836 446 641 446 c 0
 622.4939955 446 619 450.545832427 619 461 c 0
 619 465.349769367 623 532.130859089 623 541 c 0
 623 551.637523826 539.349997821 647 404 647 c 0
 261.139056188 647 150 512.897484836 150 333 c 0
 150 165.176300423 264.113163825 15 424 15 c 0
 536.99032604 15 583.318640133 60.6411245096 584.015912441 68.3111198976 c 1
 585.987102459 85.066235054 587 127.062638183 587 162 c 0
 587 195.110966703 583.256573604 217 580 217 c 0
 493 217 l 0
 484.40010246 217 482 224.806635884 482 232 c 0
 482 240.4490622 483.582342284 253 494.030609058 253 c 1
 543.133015175 251.997910079 594.088914382 250 626 250 c 0
 657.841022764 250 668.78371303 251.996077113 715.968088717 253 c 1
 725.980829885 253 727 243.576843276 727 236 c 0
 727 228.743863719 726.376465616 217 716 217 c 0
 685 217 l 0
 676.287849876 217 675 199.018524122 675 162 c 0
 675 136.92369886 674 105.941987108 674 73 c 0
EndSplineSet
AlternateSubs2: "'aalt' Access All Alternates lookup 0 subtable" G.c2
AlternateSubs2: "'aalt' Access All Alternates in Latin lookup 0 subtable" G.c2
Position2: "'cpsp' Capital Spacing in Latin lookup 2 subtable" dx=4 dy=0 dh=8 dv=0
Substitution2: "'c2sc' Capitals to Small Capitals in Latin lookup 12 subtable" G.c2
EndChar

StartChar: H
Encoding: 72 72 33
Width: 791
VWidth: 0
Flags: HW
AnchorPoint: "top" 402 780 basechar 0
AnchorPoint: "l;bl" 0 10 basechar 0
AnchorPoint: "l;x" 0 380 basechar 0
AnchorPoint: "l;hi" 0 650 basechar 0
AnchorPoint: "l;o" 0 200 basechar 0
AnchorPoint: "r;bl" 791 10 basechar 0
AnchorPoint: "r;x" 791 380 basechar 0
AnchorPoint: "r;hi" 791 650 basechar 0
AnchorPoint: "r;o" 791 200 basechar 0
LayerCount: 3
Fore
SplineSet
114.183132481 636 m 1
 73 636 l 0
 61.2207339731 636 50 636.626237657 50 654 c 0
 50 671.242348107 60.1672643362 672 73 672 c 0
 89.2380546009 672 133.141143163 669 163 669 c 0
 192.857296652 669 245.824475954 672 269 672 c 0
 283.205539767 672 286 668.426132074 286 651 c 0
 286 637.289217211 280.922138196 636 265 636 c 0
 212.132008164 636 l 1
 208.12402751 625.817343026 207 566.793864169 207 505 c 0
 207 455.034116882 208 403.055217283 208 373 c 0
 208 356.526950137 207.092472837 358 220 358 c 0
 585 358 l 0
 599.118665171 358 597 356.603932495 597 370 c 0
 597 492 l 0
 597 557.777983117 593.722141214 626.082837672 589.06003725 636 c 1
 533 636 l 0
 520.523123067 636 515 637.718991265 515 654 c 0
 515 670.08604123 519.459581604 672 533 672 c 0
 549.194787543 672 608.121467491 669 638 669 c 0
 667.889586663 669 722.758899808 672 733 672 c 0
 747.205539767 672 750 668.426132074 750 651 c 0
 750 637.289217211 744.922138196 636 729 636 c 0
 685.718185992 636 l 1
 684.817276959 617.269241975 684 513.771562825 684 397 c 0
 684 237.671653099 685.010967886 53.5364894 687.398975299 30 c 1
 740 30 l 0
 752.189772879 30 754 26.3318988665 754 14 c 0
 754 -1.09434643566 751.745404972 -6 740 -6 c 0
 716.794526361 -6 675.837732482 -3 646 -3 c 0
 616.137617078 -3 558.163085876 -6 535 -6 c 0
 520.794460233 -6 518 -2.42613207383 518 15 c 0
 518 28.7107827894 523.077861804 30 539 30 c 0
 592.49478608 30 l 1
 596.0174028 42.3204028872 597 111.31781598 597 192 c 0
 597 316 l 0
 597 330.178684206 598.281106408 328 591 328 c 0
 217 328 l 0
 207.374833957 328 208 329.706345859 208 314 c 0
 208 191.188465946 210.552693524 46.0305460915 217.134956178 30 c 1
 281 30 l 0
 293.189772879 30 295 26.3318988665 295 14 c 0
 295 -1.09434643566 292.745404972 -6 281 -6 c 0
 257.829931698 -6 200.865779917 -3 171 -3 c 0
 141.133392919 -3 77.1479337187 -6 54 -6 c 0
 39.7944602326 -6 37 -2.42613207383 37 15 c 0
 37 28.7107827894 42.0778618044 30 58 30 c 0
 113.33495543 30 l 1
 117.932018058 47.5530500767 119 179.565844474 119 285 c 0
 119 387 l 0
 119 500.549231649 117.736479486 620.161335243 114.183132481 636 c 1
EndSplineSet
AlternateSubs2: "'aalt' Access All Alternates lookup 0 subtable" H.c2
AlternateSubs2: "'aalt' Access All Alternates in Latin lookup 0 subtable" H.c2
Position2: "'cpsp' Capital Spacing in Latin lookup 2 subtable" dx=4 dy=0 dh=8 dv=0
Substitution2: "'c2sc' Capitals to Small Capitals in Latin lookup 12 subtable" H.c2
EndChar

StartChar: I
Encoding: 73 73 34
Width: 333
VWidth: 0
Flags: HW
AnchorPoint: "top" 168 780 basechar 0
AnchorPoint: "l;bl" 0 10 basechar 0
AnchorPoint: "l;x" 0 380 basechar 0
AnchorPoint: "l;hi" 0 650 basechar 0
AnchorPoint: "l;o" 0 200 basechar 0
AnchorPoint: "r;bl" 333 10 basechar 0
AnchorPoint: "r;x" 333 380 basechar 0
AnchorPoint: "r;hi" 333 650 basechar 0
AnchorPoint: "r;o" 333 200 basechar 0
LayerCount: 3
Fore
SplineSet
115.06003725 636 m 1
 54 636 l 0
 42.2207339731 636 31 636.626237657 31 654 c 0
 31 671.242348107 41.1672643362 672 54 672 c 0
 70.1719295818 672 144.096240177 669 174 669 c 0
 203.865370132 669 265.847033053 672 289 672 c 0
 303.205539767 672 306 668.426132074 306 651 c 0
 306 637.289217211 300.922138196 636 285 636 c 0
 222.60024632 636 l 1
 215.674324852 625.652374174 214 533.200961327 214 481 c 0
 214 346 l 0
 214 218.127085076 215.629054446 48.107910996 222.265560676 30 c 1
 292 30 l 0
 304.189772879 30 306 26.3318988665 306 14 c 0
 306 -1.09434643566 303.745404972 -6 292 -6 c 0
 268.842193807 -6 201.885016697 -3 172 -3 c 0
 142.116054003 -3 67.1400564033 -6 44 -6 c 0
 29.7944602326 -6 27 -2.42613207383 27 15 c 0
 27 28.7107827894 32.0778618044 30 48 30 c 0
 114.579645156 30 l 1
 121.809495088 52.2137857857 123 263.101136318 123 394 c 0
 123 492 l 0
 123 557.777983117 119.722141214 626.082837672 115.06003725 636 c 1
EndSplineSet
AlternateSubs2: "'aalt' Access All Alternates lookup 0 subtable" I.c2
AlternateSubs2: "'aalt' Access All Alternates in Latin lookup 0 subtable" I.c2
Position2: "'cpsp' Capital Spacing in Latin lookup 2 subtable" dx=4 dy=0 dh=8 dv=0
Substitution2: "'c2sc' Capitals to Small Capitals in Latin lookup 12 subtable" I.c2
EndChar

StartChar: J
Encoding: 74 74 35
Width: 333
VWidth: 0
Flags: HW
AnchorPoint: "top" 167 780 basechar 0
AnchorPoint: "l;bl" 0 10 basechar 0
AnchorPoint: "l;x" 0 380 basechar 0
AnchorPoint: "l;hi" 0 650 basechar 0
AnchorPoint: "l;o" 0 200 basechar 0
AnchorPoint: "l;k;lo" -40 -260 basechar 0
AnchorPoint: "r;bl" 333 10 basechar 0
AnchorPoint: "r;x" 333 380 basechar 0
AnchorPoint: "r;hi" 333 650 basechar 0
AnchorPoint: "r;o" 333 200 basechar 0
LayerCount: 3
Fore
SplineSet
126 -5 m 2
 126 492 l 0
 126 557.777983117 122.722141214 626.082837672 118.06003725 636 c 1
 54 636 l 0
 42.2207339731 636 31 636.626237657 31 654 c 0
 31 671.242348107 41.1672643362 672 54 672 c 0
 70.1594500833 672 147.105042854 669 177 669 c 0
 206.851794572 669 255.8148988 672 279 672 c 0
 293.205539767 672 296 668.426132074 296 651 c 0
 296 637.289217211 290.922138196 636 275 636 c 0
 226.448665841 636 l 1
 221.261201855 619.129774266 221 492.070097991 221 370 c 0
 221 130 l 0
 221 43.8890889768 213.056701583 -66.1280784453 134.190814241 -150.049471386 c 0
 105.220409827 -181.017834725 70.5307702258 -215 23 -215 c 0
 0.462946326584 -215 -33 -205.74440398 -33 -188 c 0
 -33 -150.238018908 28.5889867331 -121 37 -121 c 0
 55.4594577656 -121 69.9007053482 -142 89 -142 c 0
 123.0254168 -142 126 -92.5850065231 126 -5 c 2
EndSplineSet
AlternateSubs2: "'aalt' Access All Alternates lookup 0 subtable" J.c2
AlternateSubs2: "'aalt' Access All Alternates in Latin lookup 0 subtable" J.c2
Position2: "'cpsp' Capital Spacing in Latin lookup 2 subtable" dx=4 dy=0 dh=8 dv=0
Substitution2: "'c2sc' Capitals to Small Capitals in Latin lookup 12 subtable" J.c2
EndChar

StartChar: K
Encoding: 75 75 36
Width: 650
VWidth: 0
Flags: HW
AnchorPoint: "cedilla" 336 -100 basechar 0
AnchorPoint: "l;bl" 0 10 basechar 0
AnchorPoint: "l;x" 0 380 basechar 0
AnchorPoint: "l;hi" 0 650 basechar 0
AnchorPoint: "l;o" 0 200 basechar 0
AnchorPoint: "r;bl" 650 10 basechar 0
AnchorPoint: "r;x" 610 380 basechar 0
AnchorPoint: "r;hi" 645 650 basechar 0
AnchorPoint: "r;o" 630 200 basechar 0
LayerCount: 3
Fore
SplineSet
466.599486712 614.800676557 m 0
 471.768021476 622.036625226 475 626.760263131 475 629 c 0
 475 629.210881134 472.313480262 631 463 631 c 0
 426 631 l 0
 414.220733973 631 403 631.626237657 403 649 c 0
 403 666.242348107 413.167264336 667 426 667 c 0
 442.257465528 667 481.148807098 664 511 664 c 0
 540.803516767 664 567.74737594 667 591 667 c 0
 605.205539767 667 608 663.426132074 608 646 c 0
 608 632.289217211 602.922138196 631 587 631 c 0
 539.283080175 631 l 1
 525.407116208 615.354647154 379.796481286 440.095532122 324.25899028 374.025068684 c 1
 315.165988857 364.022767119 316.908866237 368.395510322 327.28549018 355.94356159 c 1
 596.248056045 45.9867012988 l 1
 605.131378832 36.1163426469 612.223300097 30 625 30 c 2
 639 30 l 0
 651.189772879 30 653 26.3318988665 653 14 c 0
 653 -1.09434643566 650.745404972 -6 639 -6 c 0
 615.809530329 -6 568.84942545 -3 539 -3 c 0
 509.152314308 -3 462.188646291 -6 439 -6 c 0
 424.794460233 -6 422 -2.42613207383 422 15 c 0
 422 28.7107827894 427.077861804 30 443 30 c 0
 473 30 l 0
 480.999520001 30 485.46410827 31.052427354 486.686758033 31.5252489419 c 1
 484.279823529 34.6361470858 480.461547975 37.5185485902 475.707812555 43.0645732468 c 0
 258.724864642 300.044377918 l 1
 251.990272164 307.741055036 254.100557696 307 239 307 c 0
 219 307 l 0
 207.281069128 307 208 308.615890993 208 298 c 0
 208 179.160695514 209.112511056 43.7033393634 216.750862412 30 c 1
 289 30 l 0
 301.189772879 30 303 26.3318988665 303 14 c 0
 303 -1.09434643566 300.745404972 -6 289 -6 c 0
 265.842193807 -6 198.885016697 -3 169 -3 c 0
 139.134629868 -3 77.1529669475 -6 54 -6 c 0
 39.7944602326 -6 37 -2.42613207383 37 15 c 0
 37 28.7107827894 42.0778618044 30 58 30 c 0
 111.978431185 30 l 1
 116.818221653 41.3975100288 118 113.63146078 118 197 c 0
 118 487 l 0
 118 552.738160754 116.365095888 621.144193808 112.015105221 631 c 1
 69 631 l 0
 57.2207339731 631 46 631.626237657 46 649 c 0
 46 666.242348107 56.1672643362 667 69 667 c 0
 85.2018167853 667 141.125377552 664 171 664 c 0
 200.857296652 664 253.824475954 667 277 667 c 0
 291.205539767 667 294 663.426132074 294 646 c 0
 294 632.289217211 288.922138196 631 273 631 c 0
 219.562292812 631 l 1
 212.227289295 620.493804691 208 528.157497651 208 476 c 0
 208 351 l 0
 208 336.844974424 208.352321583 334 218 334 c 0
 240 334 l 0
 261.335790983 334 429.017771368 567.061740849 466.599486712 614.800676557 c 0
EndSplineSet
AlternateSubs2: "'aalt' Access All Alternates lookup 0 subtable" K.c2
AlternateSubs2: "'aalt' Access All Alternates in Latin lookup 0 subtable" K.c2
Position2: "'cpsp' Capital Spacing in Latin lookup 2 subtable" dx=4 dy=0 dh=8 dv=0
Substitution2: "'c2sc' Capitals to Small Capitals in Latin lookup 12 subtable" K.c2
EndChar

StartChar: L
Encoding: 76 76 37
Width: 592
VWidth: 0
Flags: HW
AnchorPoint: "caron" 337 550 basechar 0
AnchorPoint: "cedilla" 332 -100 basechar 0
AnchorPoint: "top" 172 780 basechar 0
AnchorPoint: "l;bl" 0 10 basechar 0
AnchorPoint: "l;x" 0 380 basechar 0
AnchorPoint: "l;hi" 0 650 basechar 0
AnchorPoint: "l;o" 0 200 basechar 0
AnchorPoint: "r;bl" 592 10 basechar 0
AnchorPoint: "r;o" 592 200 basechar 0
LayerCount: 3
Fore
SplineSet
223.885119035 34.0001207839 m 1
 326.298283019 34.0341070196 504.992809569 39.011717511 515.770583211 39.9915151148 c 1
 531.370221671 40.9664925186 533.151077554 39.3110549898 536.030151519 60.4242640687 c 0
 548.041927553 144.506696304 l 1
 548.058257973 144.588348405 l 0
 549.367517346 151.13464527 554.927031764 155 562 155 c 0
 571.788736941 155 585 151.428307535 585 142 c 0
 585 133.070114051 567.974409239 36.6085452333 563.977276378 7.62933198993 c 1
 562.651630763 -4.30147854629 548.624419148 -6 539 -6 c 0
 515.956141527 -6 204.959904531 -3 175 -3 c 0
 145.122167335 -3 76.1486576202 -6 53 -6 c 0
 38.6257430012 -6 37 -2.11312772851 37 15 c 0
 37 28.4236463003 40.9254758686 30 57 30 c 0
 117.72520863 30 l 1
 123.733109594 46.085827504 125 181.276877428 125 319 c 0
 125 550 l 0
 125 598.265696533 123.204745941 631.239395541 120.361814438 636 c 1
 63 636 l 0
 49.4036021477 636 44 638.687193082 44 654 c 0
 44 669.771124796 50.812716214 672 67 672 c 0
 83.185212072 672 147.113908715 669 177 669 c 0
 206.867175061 669 271.854565271 672 295 672 c 0
 311.618669688 672 315 669.007412438 315 654 c 0
 315 640.808682282 310.841473313 636 294 636 c 0
 225.120952527 636 l 1
 219.301721424 622.163208675 218 513.679419963 218 424 c 0
 218 147 l 0
 218 86.7308273355 220.429603171 40.9353650039 223.885119035 34.0001207839 c 1
EndSplineSet
AlternateSubs2: "'aalt' Access All Alternates lookup 0 subtable" L.c2
AlternateSubs2: "'aalt' Access All Alternates in Latin lookup 0 subtable" L.c2 L.CAT
Position2: "'cpsp' Capital Spacing in Latin lookup 2 subtable" dx=4 dy=0 dh=8 dv=0
Substitution2: "'c2sc' Capitals to Small Capitals in Latin lookup 12 subtable" L.c2
Substitution2: "catalan subtable" L.CAT
EndChar

StartChar: M
Encoding: 77 77 38
Width: 895
VWidth: 0
Flags: HW
AnchorPoint: "top" 458 780 basechar 0
AnchorPoint: "l;bl" 0 10 basechar 0
AnchorPoint: "l;x" 0 380 basechar 0
AnchorPoint: "l;hi" 0 650 basechar 0
AnchorPoint: "l;o" 0 200 basechar 0
AnchorPoint: "r;bl" 895 10 basechar 0
AnchorPoint: "r;x" 895 380 basechar 0
AnchorPoint: "r;hi" 895 650 basechar 0
AnchorPoint: "r;o" 895 200 basechar 0
LayerCount: 3
Fore
SplineSet
400.222761102 19.8655331898 m 2
 167.230808533 594.84567365 l 1
 160.949552575 609.501937554 156.397345537 619.142615721 154.752794154 621.575911163 c 1
 153.877124884 616.730102267 153.647226405 607.523347281 152.997850109 593.886445072 c 0
 148.000314346 461.951500911 145 259.955038482 145 129 c 0
 145 76.4320258428 146.773860735 38.3688563874 148.730264894 30 c 1
 219 30 l 0
 231.189772879 30 233 26.3318988665 233 14 c 0
 233 -1.09434643566 230.745404972 -6 219 -6 c 0
 195.776010324 -6 160.825198553 -3 131 -3 c 0
 101.18972327 -3 72.246172749 -6 49 -6 c 0
 34.7944602326 -6 32 -2.42613207383 32 15 c 0
 32 28.7107827894 37.0778618044 30 53 30 c 0
 94.4622645149 30 l 1
 98.2275015185 36.4286504012 98.3409219663 75.0058059205 101.003621489 129.147362878 c 0
 103.999802947 190.069719203 119 556.200909175 119 626 c 0
 119 634.069223187 118.768955225 636 100 636 c 0
 54 636 l 0
 41.8102271207 636 40 639.668101134 40 652 c 0
 40 667.094346436 42.2545950276 672 54 672 c 0
 68.1689613369 672 140.12907214 669 161 669 c 0
 182.836474999 669 213.585439071 672 220 672 c 0
 230.439767032 672 237.33502577 670.195938153 242.777092534 657.134977919 c 1
 452.785430073 133.114172029 l 0
 456.762916351 123.170456333 459.937259829 116.035945252 461.047234227 114.109883339 c 1
 463.578114747 118.315377408 465.888112071 123.806355047 469.186495251 133.041827952 c 1
 665.196536795 644.067985983 l 0
 673.230722959 665.157724661 676.905747553 669 693 669 c 0
 739 669 l 0
 768.847685692 669 815.811353709 672 839 672 c 0
 853.205539767 672 856 668.426132074 856 651 c 0
 856 637.289217211 850.922138196 636 835 636 c 0
 789.532448761 636 l 1
 786.449541299 631.374808928 785 602.154655218 785 559 c 0
 785 469 l 0
 785 297.105251518 791.152196688 52.292258054 799.326768399 30 c 1
 852 30 l 0
 863.776112898 30 868 27.0834052636 868 14 c 0
 868 -1.09434643566 865.745404972 -6 854 -6 c 0
 830.824942589 -6 776.860354439 -3 747 -3 c 0
 717.142703348 -3 664.175524046 -6 641 -6 c 0
 626.794460233 -6 624 -2.42613207383 624 15 c 0
 624 28.7107827894 629.077861804 30 645 30 c 0
 689.986864759 30 l 1
 694.921995598 40.9838979552 697 114.879344924 697 204 c 0
 697 307.761490008 693.749857521 557.586065604 691.047160092 610.14593108 c 1
 666.578688154 552.683444638 558.541429429 265.278509831 493.772784279 107.854719537 c 0
 474.535567534 61.2804053105 461.369910259 58.0316165852 437.704239595 10.7002752572 c 1
 431.886365582 -1.90511843657 426.674242107 -10 420 -10 c 0
 411.633266658 -10 406.824763586 3.83209858551 400.222761102 19.8655331898 c 2
EndSplineSet
AlternateSubs2: "'aalt' Access All Alternates lookup 0 subtable" M.c2
AlternateSubs2: "'aalt' Access All Alternates in Latin lookup 0 subtable" M.c2
Position2: "'cpsp' Capital Spacing in Latin lookup 2 subtable" dx=4 dy=0 dh=8 dv=0
Substitution2: "'c2sc' Capitals to Small Capitals in Latin lookup 12 subtable" M.c2
EndChar

StartChar: N
Encoding: 78 78 39
Width: 814
VWidth: 0
Flags: HW
AnchorPoint: "cedilla" 414 -100 basechar 0
AnchorPoint: "top" 421 780 basechar 0
AnchorPoint: "l;bl" 0 10 basechar 0
AnchorPoint: "l;x" 0 380 basechar 0
AnchorPoint: "l;hi" 0 650 basechar 0
AnchorPoint: "l;o" 0 200 basechar 0
AnchorPoint: "r;bl" 814 10 basechar 0
AnchorPoint: "r;x" 814 380 basechar 0
AnchorPoint: "r;hi" 814 650 basechar 0
AnchorPoint: "r;o" 814 200 basechar 0
LayerCount: 3
Fore
SplineSet
243.334871823 657.883753399 m 2
 649.321871898 158.899713371 l 0
 656.367448527 150.288453045 661.862683857 142.954893447 664.461263577 140.561320618 c 1
 665.500673995 143.939404477 666 151.673928301 666 165 c 0
 666 207 l 0
 666 304.969396232 664 481.970172254 664 583 c 0
 664 610.09824375 663.901382641 630.350092106 663.512509572 636 c 1
 572 636 l 0
 559.810227121 636 558 639.668101134 558 652 c 0
 558 667.094346436 560.254595028 672 572 672 c 0
 595.176892126 672 648.141398471 669 678 669 c 0
 707.81027673 669 736.753827251 672 760 672 c 0
 774.205539767 672 777 668.426132074 777 651 c 0
 777 637.289217211 771.922138196 636 756 636 c 0
 711.17391886 636 l 1
 709.866759698 628.95494265 707.999937567 609.483310044 707.999937567 579.980645564 c 0
 706.999734473 424.949166031 695 14.8241360914 695 4 c 0
 695 -12.0213320417 689.97089715 -21 682 -21 c 0
 674.422865178 -21 667.352260408 -10.5207427047 661.702538874 -3.92940091451 c 1
 169.670244701 594.109850946 l 1
 163.703265335 601.568575153 158.738844276 608.323855387 156.884031304 610.137012699 c 1
 156.153461438 606.025580553 156 602.217425645 156 593.940023981 c 1
 154.999322719 568.923091963 155 525.031962331 155 472 c 0
 155 365.983916527 154 223.982226104 154 129 c 0
 154 76.4320258428 155.773860735 38.3688563874 157.730264894 30 c 1
 242 30 l 0
 254.189772879 30 256 26.3318988665 256 14 c 0
 256 -1.09434643566 253.745404972 -6 242 -6 c 0
 218.823107874 -6 165.858601529 -3 136 -3 c 0
 106.18972327 -3 77.246172749 -6 54 -6 c 0
 39.7944602326 -6 37 -2.42613207383 37 15 c 0
 37 28.7107827894 42.0778618044 30 58 30 c 0
 102 30 l 0
 110.160057142 30 108.911017669 65.3345747803 111.001266774 129.087172477 c 0
 115.723981135 291.548546484 118.665081486 602.4973007 118.972664484 636 c 1
 54 636 l 0
 41.8102271207 636 40 639.668101134 40 652 c 0
 40 667.094346436 42.2545950276 672 54 672 c 0
 68.1633941059 672 145.11880082 669 166 669 c 0
 187.839767172 669 214.526639568 672 221 672 c 0
 233.088721256 672 235.60297263 667.54862739 243.334871823 657.883753399 c 2
EndSplineSet
AlternateSubs2: "'aalt' Access All Alternates lookup 0 subtable" N.c2
AlternateSubs2: "'aalt' Access All Alternates in Latin lookup 0 subtable" N.c2
Position2: "'cpsp' Capital Spacing in Latin lookup 2 subtable" dx=4 dy=0 dh=8 dv=0
Substitution2: "'c2sc' Capitals to Small Capitals in Latin lookup 12 subtable" N.c2
EndChar

StartChar: O
Encoding: 79 79 40
Width: 752
VWidth: 0
Flags: HW
AnchorPoint: "top" 375 780 basechar 0
AnchorPoint: "l;x" 0 380 basechar 0
AnchorPoint: "l;o" 10 200 basechar 0
AnchorPoint: "r;x" 752 380 basechar 0
AnchorPoint: "l;bl" 40 10 basechar 0
AnchorPoint: "l;hi" 40 650 basechar 0
AnchorPoint: "r;bl" 712 10 basechar 0
AnchorPoint: "r;hi" 712 650 basechar 0
AnchorPoint: "r;o" 742 200 basechar 0
LayerCount: 3
Fore
SplineSet
370 -14 m 0
 208.619345691 -14 42 102.167107339 42 318 c 0
 42 535.591449868 199.369841378 678 385 678 c 0
 584.903543889 678 710 519.269330714 710 324 c 0
 710 122.390565051 568.53876664 -14 370 -14 c 0
371 20 m 0
 533.490627144 20 612 179.629194086 612 333 c 0
 612 485.402614633 535.465779528 644 375 644 c 0
 234.415453486 644 142 497.144754152 142 345 c 0
 142 165.597089764 228.543424401 20 371 20 c 0
EndSplineSet
AlternateSubs2: "'aalt' Access All Alternates lookup 0 subtable" O.c2
AlternateSubs2: "'aalt' Access All Alternates in Latin lookup 0 subtable" O.c2
Position2: "'cpsp' Capital Spacing in Latin lookup 2 subtable" dx=4 dy=0 dh=8 dv=0
Substitution2: "'c2sc' Capitals to Small Capitals in Latin lookup 12 subtable" O.c2
EndChar

StartChar: P
Encoding: 80 80 41
Width: 564
VWidth: 0
Flags: HW
AnchorPoint: "top" 304 780 basechar 0
AnchorPoint: "l;bl" 0 10 basechar 0
AnchorPoint: "l;x" 0 380 basechar 0
AnchorPoint: "l;hi" 0 650 basechar 0
AnchorPoint: "l;o" 0 200 basechar 0
AnchorPoint: "r;x" 554 380 basechar 0
AnchorPoint: "r;hi" 564 650 basechar 0
AnchorPoint: "r;o" 524 200 basechar 0
LayerCount: 3
Fore
SplineSet
455 486 m 0
 455 580.587501915 365.299555577 638 247 638 c 0
 236.518436134 638 224.043190147 637.850279427 215.074470053 637.083606969 c 1
 212.993022252 632.196224786 212 611.087513902 212 586 c 0
 212 325 l 0
 212 317.121018152 229.49005744 315 247 315 c 0
 360.346277776 315 455 359.242087719 455 486 c 0
547 471 m 0
 547 340.709162963 446.59225089 287 305 287 c 0
 268.815082733 287 245.75756928 290 218 290 c 0
 210.130297081 290 211 287.933159319 211 282 c 0
 211 216 l 0
 211 142.984497727 212.17354699 44.8164251023 214.959039933 30 c 1
 286 30 l 0
 298.189772879 30 300 26.3318988665 300 14 c 0
 300 -1.09434643566 297.745404972 -6 286 -6 c 0
 262.836770019 -6 200.875262422 -3 171 -3 c 0
 141.100978515 -3 73.2041432639 -6 64 -6 c 0
 49.7944602326 -6 47 -2.42613207383 47 15 c 0
 47 28.7107827894 52.0778618044 30 68 30 c 0
 117.22969102 30 l 1
 123.939221204 58.6197803435 125 349.886872785 125 474 c 0
 125 526 l 0
 125 580.809946281 123.856287153 622.353813468 121.530327245 630.951832387 c 1
 60.0476070559 629 l 1
 47.5968019631 629 37 631.921752288 37 649 c 0
 37 666.242348107 47.1672643362 667 60 667 c 0
 76.1204011932 667 143.072583898 665 173 665 c 0
 202.811543505 665 280.772850384 670 304 670 c 0
 440.796420795 670 547 608.175486177 547 471 c 0
EndSplineSet
AlternateSubs2: "'aalt' Access All Alternates lookup 0 subtable" P.c2
AlternateSubs2: "'aalt' Access All Alternates in Latin lookup 0 subtable" P.c2
Position2: "'cpsp' Capital Spacing in Latin lookup 2 subtable" dx=4 dy=0 dh=8 dv=0
Substitution2: "'c2sc' Capitals to Small Capitals in Latin lookup 12 subtable" P.c2
EndChar

StartChar: Q
Encoding: 81 81 42
Width: 783
VWidth: 0
Flags: HW
AnchorPoint: "l;hi" 40 650 basechar 0
AnchorPoint: "l;bl" 40 10 basechar 0
AnchorPoint: "l;o" 10 200 basechar 0
AnchorPoint: "l;x" 0 380 basechar 0
AnchorPoint: "r;bl" 783 10 basechar 0
AnchorPoint: "r;x" 783 380 basechar 0
AnchorPoint: "r;o" 783 200 basechar 0
AnchorPoint: "r;k;lo" 763 -260 basechar 0
AnchorPoint: "r;hi" 743 650 basechar 0
LayerCount: 3
Fore
SplineSet
434 21 m 0
 462.798103399 21 637 109.520875324 637 332 c 0
 637 484.108437872 542.636650436 644 382 644 c 0
 241.121693967 644 135 507.802378292 135 356 c 0
 135 264.72174336 168.77779035 178.384082091 219.255579115 120.977969377 c 0
 275.277739023 57.0930501838 412.077676162 21 434 21 c 0
42 340 m 0
 42 557.85127246 206.700162725 678 392 678 c 0
 591.513841998 678 741 535.698856708 741 340 c 0
 741 177.657237834 639.059640483 52.4696944093 494.812236731 11.1120471795 c 0
 467.67335652 3.47923712026 343.558867087 -51.2577876906 313.604216114 -65.7769810592 c 1
 338.84815344 -68.1202012599 411.494124031 -69.2777155041 459.646228968 -80.0704286796 c 0
 527.910395391 -95.1287006848 596.006706924 -121 639 -121 c 0
 706.761390965 -121 735.702669796 -91 745 -91 c 0
 750.346882415 -91 762 -101.139608933 762 -111 c 0
 762 -127.741710632 677.421510863 -190 603 -190 c 0
 465.16654615 -190 306.172717753 -107 254 -107 c 0
 229.958796805 -107 196.93191211 -125 187 -125 c 0
 171.271125138 -125 148 -92.5896997603 148 -80 c 0
 148 -65.453275543 159.036290108 -62 176 -62 c 0
 183.268805632 -62 191.268805632 -63 198 -63 c 0
 214.862446369 -63 233.658141735 -61.997532947 254.268615842 -57.0902772073 c 1
 282.563956727 -49.6003340321 366.165007051 -12.7756485937 388.22116872 -0.706971171593 c 1
 385.052956699 -0.415294509366 383.911957689 -0.303594446313 381.603839236 0.0261367611847 c 1
 202.925299228 22.1100012566 42 116.036182338 42 340 c 0
EndSplineSet
AlternateSubs2: "'aalt' Access All Alternates lookup 0 subtable" Q.c2
AlternateSubs2: "'aalt' Access All Alternates in Latin lookup 0 subtable" Q.c2
Position2: "'cpsp' Capital Spacing in Latin lookup 2 subtable" dx=4 dy=0 dh=8 dv=0
Substitution2: "'c2sc' Capitals to Small Capitals in Latin lookup 12 subtable" Q.c2
EndChar

StartChar: R
Encoding: 82 82 43
Width: 641
VWidth: 0
Flags: HW
AnchorPoint: "cedilla" 362 -100 basechar 0
AnchorPoint: "top" 297 780 basechar 0
AnchorPoint: "l;bl" 0 10 basechar 0
AnchorPoint: "l;x" 0 380 basechar 0
AnchorPoint: "l;hi" 0 650 basechar 0
AnchorPoint: "l;o" 0 200 basechar 0
AnchorPoint: "r;bl" 641 10 basechar 0
AnchorPoint: "r;o" 641 200 basechar 0
AnchorPoint: "r;x" 621 380 basechar 0
AnchorPoint: "r;hi" 591 650 basechar 0
LayerCount: 3
Fore
SplineSet
351.04410811 336 m 0
 355.606888063 336 358.725637565 335.216920749 361.703825505 336.706014719 c 1
 408.87853321 358.32775575 448 401.106737829 448 484 c 0
 448 580.798452004 358.973497362 639 266 639 c 0
 249.592110203 639 230.199308579 637.945357691 214.928560642 637.049398679 c 1
 212.309257378 631.814016193 210 611.075727139 210 586 c 0
 210 345 l 0
 210 338.790601835 209.252960637 338 223.034879006 338 c 1
 266.069210704 336.999201588 316.943977414 337.00294502 351.04410811 336 c 0
219.830080305 30 m 1
 279 30 l 0
 291.189772879 30 293 26.3318988665 293 14 c 0
 293 -1.09434643566 290.745404972 -6 279 -6 c 0
 255.826689064 -6 200.862135827 -3 171 -3 c 0
 141.105578238 -3 82.2325173 -6 73 -6 c 0
 58.7944602326 -6 56 -2.42613207383 56 15 c 0
 56 28.7107827894 61.0778618044 30 77 30 c 0
 120.363786333 30 l 1
 123.042219775 40.2704970016 124 93.3609669372 124 156 c 0
 124 289 l 0
 124 428.002507048 122.177312202 612.839777382 114.014776764 630.962190885 c 1
 60.0545274349 629 l 1
 47.5910497031 629 37 631.921752288 37 649 c 0
 37 666.242348107 47.1672643362 667 60 667 c 0
 76.1204011932 667 143.072583898 665 173 665 c 0
 202.796005464 665 294.759199665 671 318 671 c 0
 418.227087086 671 539 640.591432133 539 498 c 0
 539 403.825924502 445.256271212 351.275713201 403.257174532 332.276121846 c 0
 398.859263758 330.246316874 392.604538485 327.858673297 391.962685983 327.626001765 c 1
 395.239338104 326.909889094 398.436326639 326.138239484 402.845239506 324.878550094 c 1
 466.46299738 305.692242163 565.940731466 257.6747745 571.998154981 92.1051984204 c 0
 574.056608852 33.4392631211 575.848146507 30 583 30 c 0
 629 30 l 0
 639.688991258 30 644 26.2466859553 644 5 c 0
 644 -2.9547174833 635.852335335 -6 624 -6 c 0
 589.852439905 -6 490.954614899 -3 490.954614899 -3 c 1
 483.489042853 -3 480 -1.06100091266 480 8 c 0
 480 66 l 0
 480 186.24021703 470.245010009 306.050197269 309.972394976 309 c 1
 288.967507901 309 245.927064208 310 218 310 c 0
 209.884842221 310 210 307.437692551 210 302 c 0
 210 243.897301622 214.949411642 50.6980593269 219.830080305 30 c 1
EndSplineSet
AlternateSubs2: "'aalt' Access All Alternates lookup 0 subtable" R.c2
AlternateSubs2: "'aalt' Access All Alternates in Latin lookup 0 subtable" R.c2
Position2: "'cpsp' Capital Spacing in Latin lookup 2 subtable" dx=4 dy=0 dh=8 dv=0
Substitution2: "'c2sc' Capitals to Small Capitals in Latin lookup 12 subtable" R.c2
EndChar

StartChar: S
Encoding: 83 83 44
Width: 528
VWidth: 0
Flags: HW
AnchorPoint: "cedilla" 278 -100 basechar 0
AnchorPoint: "top" 269 780 basechar 0
AnchorPoint: "l;bl" 0 10 basechar 0
AnchorPoint: "l;x" 0 380 basechar 0
AnchorPoint: "l;hi" 0 650 basechar 0
AnchorPoint: "l;o" 0 200 basechar 0
AnchorPoint: "r;bl" 528 10 basechar 0
AnchorPoint: "r;x" 518 380 basechar 0
AnchorPoint: "r;hi" 518 650 basechar 0
AnchorPoint: "r;o" 528 200 basechar 0
LayerCount: 3
Fore
SplineSet
425 648.136083052 m 1
 425 659.716153456 426.804823544 665 443 665 c 0
 458.348558658 665 465 661.802466821 465 648 c 0
 465 636.734662232 460 541.911969449 460 491 c 0
 460 477.957007068 455.278609836 472 441 472 c 0
 422.4939955 472 419 476.545832427 419 487 c 0
 419 491.285208924 422 542.197829768 422 551 c 0
 422 572.977648997 343.957845768 646 271 646 c 0
 196.532404755 646 141 592.303870812 141 520 c 0
 141 338.373929262 496 414.590253645 496 178 c 0
 496 51.7821112023 380.997502997 -18 269 -18 c 0
 158.898531969 -18 69.4551115961 16.2992571755 68.0082947164 30.7674259724 c 1
 66.0007537431 66.9031634918 58 160.542616321 58 175 c 0
 58 183.502047731 60.8873517553 192 73 192 c 0
 78 192 l 0
 91.3794982615 192 95.9210329784 186.072387995 96.991881565 173.222204956 c 1
 102.993355474 81.1995570316 l 0
 104.716803764 55.3478326724 219.309814504 21 278 21 c 0
 347.644957909 21 408 71.9555638813 408 139 c 0
 408 313.611635433 52 252.496010379 52 488 c 0
 52 602.115185263 159.79908902 680 269 680 c 0
 305.277023004 680 349.140364731 675.851664857 405.684504255 637.482427323 c 0
 405.782041557 637.416241297 l 1
 405.874085143 637.342606428 l 0
 410.816387628 633.38876444 416.449989171 630 420 630 c 0
 421.993760306 630 423.062228107 629.684598099 424.016896731 637.321947094 c 1
 425 648.136083052 l 1
EndSplineSet
AlternateSubs2: "'aalt' Access All Alternates lookup 0 subtable" S.c2
AlternateSubs2: "'aalt' Access All Alternates in Latin lookup 0 subtable" S.c2
Position2: "'cpsp' Capital Spacing in Latin lookup 2 subtable" dx=4 dy=0 dh=8 dv=0
Substitution2: "'c2sc' Capitals to Small Capitals in Latin lookup 12 subtable" S.c2
EndChar

StartChar: T
Encoding: 84 84 45
Width: 690
VWidth: 0
Flags: HW
AnchorPoint: "cedilla" 350 -100 basechar 0
AnchorPoint: "l;x" 60 380 basechar 0
AnchorPoint: "l;hi" 0 650 basechar 0
AnchorPoint: "l;o" 100 200 basechar 0
AnchorPoint: "r;x" 620 380 basechar 0
AnchorPoint: "r;hi" 690 650 basechar 0
AnchorPoint: "r;o" 590 200 basechar 0
LayerCount: 3
Fore
SplineSet
669 545 m 0
 669 535.209398165 664.281887309 532 650 532 c 0
 636.775783324 532 632 537.801099351 632 549 c 0
 632 554.031526756 634.743582817 616.101476568 634.986246661 626.021181012 c 1
 626.544148166 629.970383634 575.909108173 632 525 632 c 2
 409.617586545 632 l 1
 402.968158989 621.802068756 402.931949854 530.094827917 402 476.973686235 c 0
 402 473.889999375 396 216.952681754 396 92 c 0
 396 59.8780420127 396.244035256 35.5792267923 397.054211437 30 c 1
 469 30 l 2
 481.189772879 30 483 26.3318988665 483 14 c 0
 483 -1.09434643566 480.745404972 -6 469 -6 c 0
 445.842193807 -6 378.885016697 -3 349 -3 c 0
 319.123127348 -3 251.149954499 -6 228 -6 c 0
 213.794460233 -6 211 -2.42613207383 211 15 c 0
 211 28.7107827894 216.077861804 30 232 30 c 2
 292.362685204 30 l 1
 301.138316499 62.2948895831 305 441.035090559 305 545 c 0
 305 588.808659999 303.299449194 626.196142885 300.237591839 632 c 1
 157 632 l 2
 102.95943978 632 63.6303255464 628.1536286 62.9851115706 621.701488843 c 2
 55.9885291893 551.735665029 l 2
 54.962044409 538.391362886 50.8697869782 532 40 532 c 0
 31.1581092378 532 17 531.466657025 17 544 c 0
 17 547.045452252 30.0067076727 622.203478612 34.0088365435 672.230089497 c 0
 35.098395274 685.849573628 37.2594936664 689 53 689 c 0
 60.0090917802 689 69 689.217796046 69 680 c 2
 69 670.030327982 l 1
 77.6698972746 666.38344232 126.868039586 666 174 666 c 2
 531 666 l 2
 591.222836871 666 636.468245864 668.8320855 637.014888429 674.298511157 c 0
 638.148897875 685.638605609 644.087272702 689 653 689 c 0
 667.020657829 689 673 686.957346793 673 675 c 0
 673 655.646296065 669 622.942668073 669 545 c 0
EndSplineSet
AlternateSubs2: "'aalt' Access All Alternates lookup 0 subtable" T.c2
AlternateSubs2: "'aalt' Access All Alternates in Latin lookup 0 subtable" T.c2
Position2: "'cpsp' Capital Spacing in Latin lookup 2 subtable" dx=4 dy=0 dh=8 dv=0
Substitution2: "'c2sc' Capitals to Small Capitals in Latin lookup 12 subtable" T.c2
EndChar

StartChar: U
Encoding: 85 85 46
Width: 755
VWidth: 0
Flags: HW
AnchorPoint: "top" 384 780 basechar 0
AnchorPoint: "l;x" 0 380 basechar 0
AnchorPoint: "l;hi" 0 650 basechar 0
AnchorPoint: "l;o" 0 200 basechar 0
AnchorPoint: "r;bl" 725 10 basechar 0
AnchorPoint: "r;x" 755 380 basechar 0
AnchorPoint: "r;hi" 755 650 basechar 0
AnchorPoint: "r;o" 755 200 basechar 0
AnchorPoint: "l;bl" 20 10 basechar 0
LayerCount: 3
Fore
SplineSet
632 -10 m 0
 607.882245322 -10 589.207516553 63 570 63 c 0
 563.615574881 63 543.363894209 53.3258422915 525.475726909 43.387971569 c 1
 478.086233807 16.1642202126 394.743436036 -14 318 -14 c 0
 113.853458046 -14 96 104.679935848 96 227 c 0
 96 260.019224181 97 496.011527832 97 575 c 0
 97 605.877745769 96.2019492958 627.169764115 94.3202345732 631 c 1
 58 631 l 0
 45.9682283995 631 37 632.004669151 37 649 c 0
 37 665.841693242 44.9099581975 667 58 667 c 0
 74.2311453349 667 120.138230575 664 150 664 c 0
 179.864693835 664 240.84450471 667 264 667 c 0
 278.205539767 667 281 663.426132074 281 646 c 0
 281 632.289217211 275.922138196 631 260 631 c 0
 196.683339564 631 l 1
 188.758986988 601.306408928 184 269.678840433 184 228 c 0
 184 102.370442938 241.390546635 37 382 37 c 0
 466.153924366 37 524.537482816 71.6330596751 552.313069936 90.4807795062 c 0
 576.090134255 106.649183243 576 101.291059396 576 247 c 0
 576 552 l 0
 576 593.453950898 574.343703639 626.017409596 571.346496954 631 c 1
 523 631 l 0
 511.220733973 631 500 631.626237657 500 649 c 0
 500 666.242348107 510.167264336 667 523 667 c 0
 539.208010089 667 593.12646052 664 623 664 c 0
 652.849255011 664 690.718364797 667 701 667 c 0
 715.205539767 667 718 663.426132074 718 646 c 0
 718 632.289217211 712.922138196 631 697 631 c 0
 673.867561285 631 l 1
 665.873425368 615.351494457 666.759428698 462.640046097 662.999280987 316.934322314 c 0
 659.999617892 179.949707605 656 45.850326286 656 25 c 0
 656 17.6552864755 655.3695498 -10 632 -10 c 0
EndSplineSet
AlternateSubs2: "'aalt' Access All Alternates lookup 0 subtable" U.c2
AlternateSubs2: "'aalt' Access All Alternates in Latin lookup 0 subtable" U.c2
Position2: "'cpsp' Capital Spacing in Latin lookup 2 subtable" dx=4 dy=0 dh=8 dv=0
Substitution2: "'c2sc' Capitals to Small Capitals in Latin lookup 12 subtable" U.c2
EndChar

StartChar: V
Encoding: 86 86 47
Width: 685
VWidth: 0
Flags: HW
AnchorPoint: "l;x" 30 380 basechar 0
AnchorPoint: "l;hi" 0 650 basechar 0
AnchorPoint: "l;o" 70 200 basechar 0
AnchorPoint: "r;x" 635 380 basechar 0
AnchorPoint: "r;hi" 685 650 basechar 0
AnchorPoint: "r;o" 595 200 basechar 0
LayerCount: 3
Fore
SplineSet
322 -28 m 0
 306.930610274 -28 300.085154119 29.925967276 265.304451747 108.682892574 c 1
 262.248838489 114.79411909 74.4984554709 602.344034481 57.6170019258 631 c 1
 28 631 l 0
 15.9682283995 631 7 632.004669151 7 649 c 0
 7 665.841693242 14.9099581975 667 28 667 c 0
 44.2311453349 667 90.1382305748 664 120 664 c 0
 149.885912915 664 226.862409023 667 250 667 c 0
 264.205539767 667 267 663.426132074 267 646 c 0
 267 632.289217211 261.922138196 631 246 631 c 0
 176.231218108 631 l 1
 176.059721217 630.314012437 176 629.834768325 176 629 c 0
 176 618.798912903 181.908119276 594.789019009 187.824109733 579.013044457 c 1
 224.828143132 471.001271293 305.821008396 250.02221312 346.793555693 143.093857979 c 1
 356.172787579 119.645778263 363.682795461 102.715439722 366.36615042 98.1544401493 c 1
 370.698701389 104.064980929 377.709399584 118.692638094 386.201942494 141.082069403 c 0
 438.639038472 276.675969077 558 568.751406855 558 618 c 0
 558 628.422493762 557.15838283 631 552 631 c 0
 481 631 l 0
 468.968228399 631 460 632.004669151 460 649 c 0
 460 665.08604123 464.459581604 667 478 667 c 0
 494.194787543 667 553.121467491 664 583 664 c 0
 612.849255011 664 650.718364797 667 661 667 c 0
 675.205539767 667 678 663.426132074 678 646 c 0
 678 632.289217211 672.922138196 631 657 631 c 0
 630.824460093 631 631.659935497 627.598211517 623.751183861 609.803520336 c 1
 392.753366843 66.8086517613 l 1
 381.590287997 41.4380180205 376.136534688 39.8124695868 365.457695762 24.2796129669 c 0
 345.372330236 -4.41376635573 340.834220487 -28 322 -28 c 0
EndSplineSet
AlternateSubs2: "'aalt' Access All Alternates lookup 0 subtable" V.c2
AlternateSubs2: "'aalt' Access All Alternates in Latin lookup 0 subtable" V.c2
Position2: "'cpsp' Capital Spacing in Latin lookup 2 subtable" dx=4 dy=0 dh=8 dv=0
Substitution2: "'c2sc' Capitals to Small Capitals in Latin lookup 12 subtable" V.c2
EndChar

StartChar: W
Encoding: 87 87 48
Width: 1008
VWidth: 0
Flags: HW
AnchorPoint: "top" 502 780 basechar 0
AnchorPoint: "l;x" 20 380 basechar 0
AnchorPoint: "l;hi" 0 650 basechar 0
AnchorPoint: "l;o" 60 200 basechar 0
AnchorPoint: "r;x" 958 380 basechar 0
AnchorPoint: "r;hi" 1008 650 basechar 0
AnchorPoint: "r;o" 918 200 basechar 0
LayerCount: 3
Fore
SplineSet
655 -28 m 0
 632.91862905 -28 625.487977544 33.0492343869 600.153950106 109.051316702 c 0
 599.042769493 112.384858541 550.127079593 292.135384685 508.121903495 439.153501028 c 0
 504.578633924 451.200617569 502.122118224 459.080549939 500.943374571 461.312673624 c 1
 499.065978963 458.51352172 496.157529466 450.542889139 491.802746446 438.930134421 c 0
 349.794263904 66.9079125486 l 1
 339.60163315 41.426335664 333.061030325 39.7026450588 322.457695762 24.2796129669 c 0
 302.247058873 -4.59272544492 294.936563972 -28 279 -28 c 0
 256.91862905 -28 249.487977544 33.0492343869 224.153950106 109.051316702 c 0
 222.236939575 114.802348296 77.8468530418 601.928990927 63.477515879 631 c 1
 30 631 l 0
 18.2207339731 631 7 631.626237657 7 649 c 0
 7 666.242348107 17.1672643362 667 30 667 c 0
 46.2279286819 667 93.1367032927 664 123 664 c 0
 152.854717277 664 203.819648219 667 227 667 c 0
 241.205539767 667 244 663.426132074 244 646 c 0
 244 632.289217211 238.922138196 631 223 631 c 0
 173 631 l 0
 170.349987914 631 166.55890603 630.885782056 165.96951809 625.290898726 c 1
 166.860588487 617.537140086 189.939388629 536.642212097 192.87778244 526.847566061 c 0
 235.855567341 380.922994071 307.849790849 162.94100368 313.860420585 142.905571225 c 1
 319.551172634 125.833315077 322.590481121 114.1719934 324.209255315 110.249216324 c 1
 327.277500554 115.827844031 330.773701459 125.94054097 337.198718108 143.073918701 c 1
 480.198718108 508.073918701 l 1
 483.212623691 516.111000253 485 520.84945896 485 525 c 0
 485 531.643879532 480.194880976 538.851159219 476.100650239 555.228082167 c 1
 464.743250673 595.415803709 453.755487858 625.306247444 450.622982652 631 c 1
 392 631 l 0
 379.82913671 631 372 632.221018481 372 649 c 0
 372 665.612665556 378.768707792 667 392 667 c 0
 408.183578239 667 473.112258892 664 503 664 c 0
 532.868226006 664 599.8595155 667 623 667 c 0
 637.205539767 667 640 663.426132074 640 646 c 0
 640 631.975536233 632.861129017 631 620 631 c 0
 556.792530481 631 l 1
 556.234834457 629.457885993 556 627.613740241 556 625 c 0
 556 601.849158916 570.95613458 538.544778559 573.903127832 526.75680555 c 1
 611.863513623 386.902752636 677.896123343 163.783733132 683.870311747 142.874073719 c 1
 692.939552685 114.841874456 697.205611458 97.4664698985 699.900063036 93.4411066992 c 1
 703.405873277 98.433344041 708.711012715 114.451408207 719.19970305 141.076545212 c 1
 770.130990401 276.893311482 884 568.702290173 884 618 c 0
 884 628.422493762 883.15838283 631 878 631 c 0
 813 631 l 0
 800.82913671 631 793 632.221018481 793 649 c 0
 793 665.612665556 799.768707792 667 813 667 c 0
 829.199361515 667 886.124123136 664 916 664 c 0
 945.855512592 664 973.619467304 667 984 667 c 0
 998.239962088 667 1001 662.551258643 1001 648 c 0
 1001 634.641230749 996.558783459 631 980 631 c 0
 953.827503679 631 954.651626665 627.579516646 946.760747936 609.825039505 c 1
 725.785430073 66.8858279709 l 0
 715.613082379 41.4549587365 709.0526306 39.690427277 698.457695762 24.2796129669 c 0
 678.247058873 -4.59272544492 670.936563972 -28 655 -28 c 0
EndSplineSet
AlternateSubs2: "'aalt' Access All Alternates lookup 0 subtable" W.c2
AlternateSubs2: "'aalt' Access All Alternates in Latin lookup 0 subtable" W.c2
Position2: "'cpsp' Capital Spacing in Latin lookup 2 subtable" dx=4 dy=0 dh=8 dv=0
Substitution2: "'c2sc' Capitals to Small Capitals in Latin lookup 12 subtable" W.c2
EndChar

StartChar: X
Encoding: 88 88 49
Width: 638
VWidth: 0
Flags: HW
AnchorPoint: "l;bl" 0 10 basechar 0
AnchorPoint: "l;x" 60 380 basechar 0
AnchorPoint: "l;hi" 0 650 basechar 0
AnchorPoint: "l;o" 20 200 basechar 0
AnchorPoint: "r;bl" 638 10 basechar 0
AnchorPoint: "r;x" 578 380 basechar 0
AnchorPoint: "r;hi" 638 650 basechar 0
AnchorPoint: "r;o" 618 200 basechar 0
LayerCount: 3
Fore
SplineSet
278 335.091673087 m 1
 263.25136217 360.212894515 106.440562095 616.129091531 91.151710873 631 c 1
 53 631 l 2
 40.9682283995 631 32 632.004669151 32 649 c 0
 32 665.841693242 39.9099581975 667 53 667 c 0
 69.1752970901 667 140.101735406 664 170 664 c 0
 199.843123248 664 243.802946588 667 267 667 c 0
 281.205539767 667 284 663.426132074 284 646 c 0
 284 632.289217211 278.922138196 631 263 631 c 2
 222 631 l 2
 216.684656146 631 213.358065415 630.549313177 212.905080957 630.386238772 c 0
 213.028335084 629.03459801 214.419441596 625.637076049 216.765875787 620.162062936 c 0
 237.619261214 569.518126898 305.637087342 448.432982983 337.593045013 393.508680735 c 1
 337.420175346 393.408102019 338.758742973 392.399713606 342.207260095 386.65218507 c 1
 355.96207312 404.501319353 418.504828553 501.211586873 428.496277636 516.652917273 c 0
 461.523139779 565.692803486 491 614.971952911 491 630 c 2
 490.934630389 631 l 1
 435 631 l 2
 419.077861804 631 414 632.289217211 414 646 c 0
 414 663.426132074 416.794460233 667 431 667 c 0
 454.263272567 667 479.20155975 664 509 664 c 0
 538.825752003 664 568.71180201 667 585 667 c 0
 598.381374265 667 604 665.361589216 604 649 c 0
 604 632.458317142 597.319123854 631 585 631 c 2
 560.097378531 631 l 1
 555.458646203 626.163196987 537.419072433 603.903958751 515.464487166 572.289355967 c 0
 456.413101898 487.255361181 383.285262517 395.019566863 363.52061766 365.372599577 c 0
 361.415085873 362.003748717 360.310099438 360.153539488 360.249725881 360 c 0
 360.583796557 359.150405522 361.62633144 357.658249603 363.541191684 354.594473213 c 0
 394.432522371 305.36141493 560.6703828 45.1576381062 575.892436842 30 c 1
 610 30 l 2
 622.031771601 30 631 28.9953308493 631 12 c 0
 631 -4.84169324196 623.090041803 -6 610 -6 c 0
 593.798183215 -6 537.874622448 -3 508 -3 c 0
 478.133993394 -3 415.150445391 -6 392 -6 c 0
 377.794460233 -6 375 -2.42613207383 375 15 c 0
 375 28.7107827894 380.077861804 30 396 30 c 2
 446 30 l 2
 451.465121848 30 454.797128071 30.4218098393 455.530495232 30.6902177725 c 0
 455.303973441 32.4002319443 453.914133275 35.4635295165 451.316718427 40.6583592135 c 0
 425.451014996 92.3897660757 344.404024117 226.496086807 306.427521223 290.456512734 c 0
 304.495546299 293.710365237 302.958292579 296.755227543 302.394156761 297.723341977 c 1
 301.131439204 296.241384316 300.230328018 294.937165114 298.473170452 292.301428764 c 0
 269.470576437 251.297761364 173.449290995 112.255266688 135.574875542 50.4601677913 c 0
 128.450622555 38.2471626702 124.085156426 31.6713902726 123.998647384 30.9869832928 c 0
 125.548171947 30.3282568366 128.34958371 30 134 30 c 2
 188 30 l 2
 203.922138196 30 209 28.7107827894 209 15 c 0
 209 -2.42613207383 206.205539767 -6 192 -6 c 0
 168.757805226 -6 138.813016219 -3 109 -3 c 0
 79.1524798173 -3 42.2658665041 -6 26 -6 c 0
 12.6186257353 -6 7 -4.36158921597 7 12 c 0
 7 28.5416828575 13.680876146 30 26 30 c 2
 62.9259013445 30 l 1
 69.3324529343 31.9812648731 98.5598951588 76.2057012104 134.515671584 128.681699236 c 0
 178.99316507 193.594797837 230.692911227 255.92058428 278.613774703 317.818366271 c 0
 284.081235432 325.10831391 284.147936043 325.869769022 278.503849117 334.335899411 c 2
 278 335.091673087 l 1
EndSplineSet
AlternateSubs2: "'aalt' Access All Alternates lookup 0 subtable" X.c2
AlternateSubs2: "'aalt' Access All Alternates in Latin lookup 0 subtable" X.c2
Position2: "'cpsp' Capital Spacing in Latin lookup 2 subtable" dx=4 dy=0 dh=8 dv=0
Substitution2: "'c2sc' Capitals to Small Capitals in Latin lookup 12 subtable" X.c2
EndChar

StartChar: Y
Encoding: 89 89 50
Width: 597
VWidth: 0
Flags: HW
AnchorPoint: "top" 328 780 basechar 0
AnchorPoint: "l;x" 30 380 basechar 0
AnchorPoint: "l;hi" 0 650 basechar 0
AnchorPoint: "l;o" 30 200 basechar 0
AnchorPoint: "r;x" 547 380 basechar 0
AnchorPoint: "r;hi" 597 650 basechar 0
AnchorPoint: "r;o" 547 200 basechar 0
LayerCount: 3
Fore
SplineSet
359.184233517 30 m 1
 429 30 l 0
 441.189772879 30 443 26.3318988665 443 14 c 0
 443 -1.09434643566 440.745404972 -6 429 -6 c 0
 405.842193807 -6 338.885016697 -3 309 -3 c 0
 279.136795154 -3 220.160558516 -6 197 -6 c 0
 182.794460233 -6 180 -2.42613207383 180 15 c 0
 180 28.7107827894 185.077861804 30 201 30 c 0
 252.128782826 30 l 1
 258.576983605 42.759840903 260 146.856646062 260 271 c 0
 260 282.443254005 257.507464299 285.315244166 253.38221529 292.534429931 c 1
 220.540952133 352.421439218 71.7254965065 619.433020975 56.1211345518 636 c 1
 28 636 l 0
 15.9682283995 636 7 637.004669151 7 654 c 0
 7 670.841693242 14.9099581975 672 28 672 c 0
 44.199361515 672 101.124123136 669 131 669 c 0
 160.865370132 669 222.847033053 672 246 672 c 0
 260.205539767 672 263 668.426132074 263 651 c 0
 263 637.289217211 257.922138196 636 242 636 c 0
 183 636 l 0
 177.684656146 636 174.358065415 635.549313177 173.905080957 635.386238772 c 1
 174.028335084 634.03459801 175.419441596 630.637076049 177.765875787 625.162062936 c 1
 198.617953874 574.521301869 290.628837729 408.447429912 319.673766869 352.360670195 c 1
 323.790244606 344.12771472 326.939366425 338.267699631 328.134582661 337.075094938 c 1
 329.67437908 338.102546539 332.413226072 342.321185015 336.35439346 349.415286313 c 1
 371.271017417 417.253298571 476 612.291508839 476 636 c 0
 421 636 l 0
 405.077861804 636 400 637.289217211 400 651 c 0
 400 668.426132074 402.794460233 672 417 672 c 0
 440.263272567 672 465.20155975 669 495 669 c 0
 524.825752003 669 554.71180201 672 571 672 c 0
 584.381374265 672 590 670.361589216 590 654 c 0
 590 637.458317142 583.319123854 636 571 636 c 0
 536.150218895 636 l 1
 522.158961836 618.261572905 398.618990191 393.378997421 353.552848553 322.423795694 c 1
 350.883019899 317.97408127 351 315.920358406 351 313 c 0
 351 198.2711007 352.75741444 45.7683804298 359.184233517 30 c 1
EndSplineSet
AlternateSubs2: "'aalt' Access All Alternates lookup 0 subtable" Y.c2
AlternateSubs2: "'aalt' Access All Alternates in Latin lookup 0 subtable" Y.c2
Position2: "'cpsp' Capital Spacing in Latin lookup 2 subtable" dx=4 dy=0 dh=8 dv=0
Substitution2: "'c2sc' Capitals to Small Capitals in Latin lookup 12 subtable" Y.c2
EndChar

StartChar: Z
Encoding: 90 90 51
Width: 601
VWidth: 0
Flags: HW
AnchorPoint: "top" 314 780 basechar 0
AnchorPoint: "l;bl" 0 10 basechar 0
AnchorPoint: "l;x" 40 380 basechar 0
AnchorPoint: "l;hi" 0 650 basechar 0
AnchorPoint: "l;o" 20 200 basechar 0
AnchorPoint: "r;bl" 601 10 basechar 0
AnchorPoint: "r;x" 591 380 basechar 0
AnchorPoint: "r;hi" 601 650 basechar 0
AnchorPoint: "r;o" 601 200 basechar 0
LayerCount: 3
Fore
SplineSet
100.943687687 618.417277906 m 0
 96.9436002267 595.416775008 89.0098713872 544.670168672 87.9104275004 540.272393125 c 0
 86.2024385665 533.440437389 85.1266467156 523 76 523 c 0
 64.9124541466 523 49 525.07077643 49 535 c 0
 49 542.972120109 61.9870000941 614.092000142 70 676.192749412 c 0
 70 682.473609714 77.3573878502 685 89 685 c 0
 95.536127492 685 105 683.473201944 105 676 c 0
 105 670 l 0
 105 666.967854787 106.170946762 664 161 664 c 0
 542 664 l 0
 554.585531367 664 562 660.701843374 562 646 c 0
 562 627.881040093 324.572779653 301.456629096 182.567653905 58.4478575695 c 1
 177.300348909 50.0201695755 173 44.0658086906 173 42 c 0
 173 41.9548139771 172.852277926 40 181 40 c 0
 518 40 l 0
 532.503661574 40 527.95238505 36.5817908483 530.009554164 60.2392356668 c 0
 531.994749741 85.0541803773 532.001282865 108.088486947 533 147.038455219 c 1
 533 156.70095697 546.782295069 158 554 158 c 0
 562.592822162 158 574 156.212972588 574 146 c 0
 574 95.9021216276 571 37.844454966 571 8 c 0
 571 -4.48706605019 555.323464563 -6 546 -6 c 0
 433.967794872 -6 151.966001715 -3 48 -3 c 0
 39.1317254416 -3 37 1.08213724219 37 15 c 0
 37 30.0172782975 271.436831084 373.560080576 427.469440929 618.611294755 c 0
 427.531109346 618.708145794 l 1
 427.6 618.8 l 0
 429.89076249 621.854349986 431.583041295 624.768556846 431.821725131 625.327636102 c 1
 428.896143979 625.969592195 422.779881866 626 411 626 c 0
 109 626 l 0
 100.040558075 626 102.973534997 627.551590802 100.943687687 618.417277906 c 0
EndSplineSet
Layer: 2
SplineSet
25.0253811548 12.7846489373 m 0
 25.0253811548 13.2244282841 25 14.2065915667 25 15 c 0
 25 18.9481737151 25.944918208 22.0139082732 26.8628938321 25.188712056 c 0
 29.5421703186 33.7839147056 33.9093041397 41.0853794722 42.118346043 54.4603688044 c 2
 46.4163734623 61.0436840691 l 1
 78.5084392752 112.854605578 147.409638359 215.612849298 224.02464104 330.360922684 c 2
 404.340077181 604 l 1
 119.934057224 604 l 1
 115.371390654 584.36769143 109.68475193 536.564559681 109.636848055 536.166466823 c 2
 109.590181111 535.778653154 l 1
 109.526837254 535.474275705 l 2
 109.229888148 532.697045251 107.527205802 501 81 501 c 0
 72.6621386087 501 37 502.055384583 37 535 c 0
 37 547.93316239 49.9865449612 615.360155513 58 676.650768023 c 1
 58 700.103495354 89.9978412727 697.053362561 93.843384025 697.000202457 c 0
 96.3702270769 697.253540607 125.627731114 699.217045822 126.967301499 677.307270923 c 1
 136.275426921 676.470923396 150.50090942 676 166 676 c 2
 547 676 l 2
 560.900006932 676 584 671.021513209 584 646 c 0
 584 612.057537529 348.523321429 299.255651915 207.83610081 62 c 1
 518.050966277 62 l 1
 518.082314092 62.256180361 l 2
 519.939220566 85.3907150004 520.012391688 109.022354012 521 147.385428744 c 0
 521 178.728669032 553.572684203 180 559 180 c 0
 568.525404674 180 596 175.938853755 596 146 c 0
 596 95.3547510184 593 36.9560675472 593 8 c 0
 593 -21.5444905103 552.953798166 -18 551 -18 c 0
 438.785357955 -18 156.773287963 -15 53 -15 c 0
 47.4026536822 -15 40.6847700095 -14.3976946024 34.6780248676 -10.1627650005 c 2
 34.0027693461 -9.68669026628 l 1
 33.3838848616 -9.13933374024 l 2
 27.1424787166 -3.61928198488 25 4.08616472233 25 11 c 0
 25 11.6044065225 24.9899860555 11.9663142406 25.0253811548 12.7846489373 c 0
EndSplineSet
AlternateSubs2: "'aalt' Access All Alternates lookup 0 subtable" Z.c2
AlternateSubs2: "'aalt' Access All Alternates in Latin lookup 0 subtable" Z.c2
Position2: "'cpsp' Capital Spacing in Latin lookup 2 subtable" dx=4 dy=0 dh=8 dv=0
Substitution2: "'c2sc' Capitals to Small Capitals in Latin lookup 12 subtable" Z.c2
EndChar

StartChar: zero
Encoding: 48 48 52
Width: 500
VWidth: 0
Flags: HW
AnchorPoint: "l;bl" 0 10 basechar 0
AnchorPoint: "l;x" 0 380 basechar 0
AnchorPoint: "l;hi" 0 650 basechar 0
AnchorPoint: "l;o" 0 200 basechar 0
AnchorPoint: "l;lo" 0 -260 basechar 0
AnchorPoint: "r;bl" 500 10 basechar 0
AnchorPoint: "r;x" 500 380 basechar 0
AnchorPoint: "r;hi" 500 650 basechar 0
AnchorPoint: "r;o" 500 200 basechar 0
AnchorPoint: "r;lo" 500 -260 basechar 0
LayerCount: 3
Fore
SplineSet
55 189 m 0
 55 301.692668501 142.446536007 383 251 383 c 0
 374.744702174 383 445 293.399039409 445 188 c 0
 445 73.2901206504 356.518549318 -8 245 -8 c 0
 139.204358353 -8 55 83.4572732881 55 189 c 0
402 202 m 0
 402 280.896376105 327.803571152 337 247 337 c 0
 165.568459707 337 94 270.207368032 94 189 c 0
 94 101.830341004 162.376484394 46 244 46 c 0
 354.263225753 46 402 117.275398335 402 202 c 0
EndSplineSet
AlternateSubs2: "'aalt' Access All Alternates lookup 0 subtable" zero.p zero.u zero.sub zero.sup zero.denom zero.numer
AlternateSubs2: "'aalt' Access All Alternates in Latin lookup 0 subtable" zero.p zero.u zero.sub zero.sup zero.denom zero.numer
Substitution2: "'pnum' Proportional Numbers in Latin lookup 10 subtable" zero.p
Substitution2: "lining_figures subtable" zero.u
Substitution2: "'subs' Subscript in Latin lookup 8 subtable" zero.sub
Substitution2: "'sups' Superscript in Latin lookup 7 subtable" zero.sup
Substitution2: "denominators subtable" zero.denom
Substitution2: "numerators subtable" zero.numer
EndChar

StartChar: one
Encoding: 49 49 53
Width: 500
VWidth: 0
Flags: HW
AnchorPoint: "l;bl" 0 10 basechar 0
AnchorPoint: "l;x" 0 380 basechar 0
AnchorPoint: "l;hi" 0 650 basechar 0
AnchorPoint: "l;o" 0 200 basechar 0
AnchorPoint: "l;lo" 0 -260 basechar 0
AnchorPoint: "r;bl" 500 10 basechar 0
AnchorPoint: "r;x" 500 380 basechar 0
AnchorPoint: "r;hi" 500 650 basechar 0
AnchorPoint: "r;o" 500 200 basechar 0
AnchorPoint: "r;lo" 500 -260 basechar 0
LayerCount: 3
Fore
SplineSet
294.992275806 350.773131193 m 0
 292.000007203 292.922604872 292 195.989114686 292 117 c 0
 292 89.9851518474 291.999113012 64.0794851916 293 37.0555365166 c 1
 293 28.9324568659 293.294574983 28 302 28 c 0
 342 28 l 0
 353.849409717 28 356 21.3633236434 356 12 c 0
 356 3.09498112248 355.172330471 -5 342 -5 c 0
 322.863666499 -5 275.890389112 -3 251 -3 c 0
 226.110918312 -3 180.138225393 -5 161 -5 c 0
 148.236417146 -5 147 0.939196673081 147 12 c 0
 147 21.7624947763 149.623405407 28 164 28 c 0
 206 28 l 0
 215.660506783 28 214 27.322475669 214 37.0517087713 c 1
 215.001794664 66.1037540222 215 94.9648242611 215 125 c 0
 215 214 l 0
 215 259.999173675 214.998740217 306.959568591 213.003094379 350.863777017 c 0
 213 350.931853363 l 1
 213 351 l 2
 213 359.880389487 214.238215301 360 206 360 c 0
 164 360 l 0
 152.150590283 360 150 366.636676357 150 376 c 0
 150 384.905018878 150.827669529 393 164 393 c 0
 183.136333501 393 230.109610888 391 255 391 c 0
 279.889081688 391 325.861774607 393 345 393 c 0
 357.763582854 393 359 387.060803327 359 376 c 0
 359 366.237505224 356.376594593 360 342 360 c 0
 303 360 l 0
 293.467769203 360 296.011535067 360.96572381 294.992275806 350.773131193 c 0
EndSplineSet
AlternateSubs2: "'aalt' Access All Alternates lookup 0 subtable" one.p one.u one.sub one.sup one.denom one.numer
AlternateSubs2: "'aalt' Access All Alternates in Latin lookup 0 subtable" one.p one.u one.sub one.sup one.denom one.numer
Substitution2: "'pnum' Proportional Numbers in Latin lookup 10 subtable" one.p
Substitution2: "lining_figures subtable" one.u
Substitution2: "'subs' Subscript in Latin lookup 8 subtable" one.sub
Substitution2: "'sups' Superscript in Latin lookup 7 subtable" one.sup
Substitution2: "denominators subtable" one.denom
Substitution2: "numerators subtable" one.numer
EndChar

StartChar: two
Encoding: 50 50 54
Width: 500
VWidth: 0
Flags: HW
AnchorPoint: "l;bl" 0 10 basechar 0
AnchorPoint: "l;x" 0 380 basechar 0
AnchorPoint: "l;hi" 0 650 basechar 0
AnchorPoint: "l;o" 0 200 basechar 0
AnchorPoint: "l;lo" 0 -260 basechar 0
AnchorPoint: "r;bl" 500 10 basechar 0
AnchorPoint: "r;x" 500 380 basechar 0
AnchorPoint: "r;hi" 500 650 basechar 0
AnchorPoint: "r;o" 500 200 basechar 0
AnchorPoint: "r;lo" 500 -260 basechar 0
LayerCount: 3
Fore
SplineSet
74.0310308207 30.266699199 m 0
 127.229729771 80.3962424405 287 150.358986345 287 270 c 0
 287 328.652782012 253.286677825 361 206 361 c 0
 138.768875188 361 86.1979346466 300 77 300 c 0
 68.4460831776 300 57 314.39265501 57 323 c 0
 57 341.813878487 154.613036673 409 230 409 c 0
 305.6007247 409 361 352.633399819 361 280 c 0
 361 192.551101876 238.339993904 109.308570781 178.503108812 74.4037211436 c 0
 167.683054876 68.1394793913 159.709851844 63.5219075173 155.753536341 61 c 1
 387.551636215 61 l 1
 393.750399902 66.3452357265 418.189190414 127 425 127 c 0
 429.322449799 127 446 124.373784952 446 117 c 0
 446 104.748449837 427.955323121 37.4273021166 418.88795282 5.18776326925 c 0
 418.844725888 5.0340675091 l 1
 418.785430073 4.88582797094 l 0
 416.352578007 -1.19630219432 412.38383198 -3 405 -3 c 0
 79 -3 l 0
 66.9568394385 -3 61 3.13021160468 61 11 c 0
 61 18.997843653 69.0067547854 26.2472783708 74.0310308207 30.266699199 c 0
EndSplineSet
AlternateSubs2: "'aalt' Access All Alternates lookup 0 subtable" two.p two.u two.sub two.sup two.denom two.numer
AlternateSubs2: "'aalt' Access All Alternates in Latin lookup 0 subtable" two.p two.u two.sub two.sup two.denom two.numer
Substitution2: "'pnum' Proportional Numbers in Latin lookup 10 subtable" two.p
Substitution2: "lining_figures subtable" two.u
Substitution2: "'subs' Subscript in Latin lookup 8 subtable" two.sub
Substitution2: "'sups' Superscript in Latin lookup 7 subtable" two.sup
Substitution2: "denominators subtable" two.denom
Substitution2: "numerators subtable" two.numer
EndChar

StartChar: three
Encoding: 51 51 55
Width: 500
VWidth: 0
Flags: HW
AnchorPoint: "l;bl" 0 10 basechar 0
AnchorPoint: "l;x" 0 380 basechar 0
AnchorPoint: "l;hi" 0 650 basechar 0
AnchorPoint: "l;o" 0 200 basechar 0
AnchorPoint: "l;lo" 0 -260 basechar 0
AnchorPoint: "r;bl" 500 10 basechar 0
AnchorPoint: "r;x" 500 380 basechar 0
AnchorPoint: "r;hi" 500 650 basechar 0
AnchorPoint: "r;o" 500 200 basechar 0
AnchorPoint: "r;lo" 500 -260 basechar 0
LayerCount: 3
Fore
SplineSet
425 -27 m 0
 425 -138.990632524 323.345987857 -216 223 -216 c 0
 175.089287472 -216 77 -196.389197306 77 -164 c 0
 77 -150.721724107 97.8783637555 -141 118 -141 c 0
 135.837203089 -141 145.686017036 -147.513039084 160.543487266 -156.427521223 c 0
 181.229463166 -168.839106763 192.933322935 -185 233 -185 c 0
 293.853469259 -185 356 -115.664086629 356 -39 c 0
 356 53.2771916218 310.040901814 89 208 89 c 0
 187.159001413 89 160.495400624 86 155 86 c 0
 141.359278507 86 140.731106655 98.3198470535 138.153950106 106.051316702 c 0
 137.158835499 109.036660522 136 112.336374961 136 116 c 0
 136 129.670097779 149.75855149 133.0596574 159.160696605 135.880300934 c 1
 258.022895871 163.841326989 308 200.027497638 308 272 c 0
 308 321.824693667 274.917516647 366 226 366 c 0
 151.271815381 366 124.88865494 316 114 316 c 0
 104.336522495 316 93 325.948098334 93 336 c 0
 93 351.599614149 165.46931339 410 238 410 c 0
 321.346595706 410 375 359.738018677 375 284 c 0
 375 214.343699681 328.631331235 179.438146622 282.168919973 159.237098247 c 0
 263.25268096 151.234074049 245.801007476 143.343268648 238.979013098 139.645981491 c 1
 245.803983343 138.689762913 257.422331297 138.263191089 275.229989998 136.991215467 c 1
 361.336171111 129.900118199 425 86.5936029082 425 -27 c 0
EndSplineSet
AlternateSubs2: "'aalt' Access All Alternates lookup 0 subtable" three.p three.u three.sub three.sup three.denom three.numer
AlternateSubs2: "'aalt' Access All Alternates in Latin lookup 0 subtable" three.p three.u three.sub three.sup three.denom three.numer
Substitution2: "'pnum' Proportional Numbers in Latin lookup 10 subtable" three.p
Substitution2: "lining_figures subtable" three.u
Substitution2: "'subs' Subscript in Latin lookup 8 subtable" three.sub
Substitution2: "'sups' Superscript in Latin lookup 7 subtable" three.sup
Substitution2: "denominators subtable" three.denom
Substitution2: "numerators subtable" three.numer
EndChar

StartChar: four
Encoding: 52 52 56
Width: 500
VWidth: 0
Flags: HW
AnchorPoint: "l;bl" 0 10 basechar 0
AnchorPoint: "l;x" 0 380 basechar 0
AnchorPoint: "l;hi" 0 650 basechar 0
AnchorPoint: "l;o" 0 200 basechar 0
AnchorPoint: "l;lo" 0 -260 basechar 0
AnchorPoint: "r;bl" 500 10 basechar 0
AnchorPoint: "r;x" 500 380 basechar 0
AnchorPoint: "r;hi" 500 650 basechar 0
AnchorPoint: "r;o" 500 200 basechar 0
AnchorPoint: "r;lo" 500 -260 basechar 0
LayerCount: 3
Fore
SplineSet
369 368 m 2
 369 72 l 0
 369 54.5859139358 367.891627219 57 381 57 c 0
 439 57 l 0
 446.117638109 57 449 54.5005578809 449 44 c 0
 449 10 l 0
 449 -0.944320533481 446.392538967 -3 434 -3 c 0
 382 -3 l 0
 368.533952586 -3 370.065822712 -0.814511424177 370.994745168 -13.8194258052 c 1
 374.002224376 -74.9715030346 380 -193.664960149 380 -199 c 0
 380 -207.92356289 374.566340201 -211.965298018 361.247863185 -212.98979625 c 1
 316.133070994 -217 l 1
 316 -217 l 0
 308.336465745 -217 302 -211.349626666 302 -201 c 0
 302 -15 l 0
 302 -0.973244397448 303.49307797 -3 289 -3 c 0
 58 -3 l 0
 51.0050279023 -3 37 -2.69879812643 37 8 c 0
 37 36.3171722048 97.7616792486 111.998398019 121.707471169 139.93515526 c 1
 254.724748645 299.955940193 l 1
 262.409724678 308.601538229 336.674983105 397 353 397 c 0
 363.744375743 397 369 387.030144415 369 368 c 2
286.315990288 293.093097995 m 2
 112.321871898 83.1002866292 l 0
 103.021398603 71.7330414919 96 63.862343061 96 60 c 0
 96 59.9379139959 97.6668402171 57 118 57 c 0
 286 57 l 0
 303.134351886 57 302 55.7066196839 302 74 c 0
 302 290 l 0
 302 301.444018282 301.824240576 308.825883908 301.403251431 311.799119738 c 1
 298.182082099 308.321397097 292.829717602 301.054320269 286.315990288 293.093097995 c 2
EndSplineSet
AlternateSubs2: "'aalt' Access All Alternates lookup 0 subtable" four.p four.u four.sub four.sup four.denom four.numer
AlternateSubs2: "'aalt' Access All Alternates in Latin lookup 0 subtable" four.p four.u four.sub four.sup four.denom four.numer
Substitution2: "'pnum' Proportional Numbers in Latin lookup 10 subtable" four.p
Substitution2: "lining_figures subtable" four.u
Substitution2: "'subs' Subscript in Latin lookup 8 subtable" four.sub
Substitution2: "'sups' Superscript in Latin lookup 7 subtable" four.sup
Substitution2: "denominators subtable" four.denom
Substitution2: "numerators subtable" four.numer
EndChar

StartChar: five
Encoding: 53 53 57
Width: 500
VWidth: 0
Flags: HW
AnchorPoint: "l;bl" 0 10 basechar 0
AnchorPoint: "l;x" 0 380 basechar 0
AnchorPoint: "l;hi" 0 650 basechar 0
AnchorPoint: "l;o" 0 200 basechar 0
AnchorPoint: "l;lo" 0 -260 basechar 0
AnchorPoint: "r;bl" 500 10 basechar 0
AnchorPoint: "r;x" 500 380 basechar 0
AnchorPoint: "r;hi" 500 650 basechar 0
AnchorPoint: "r;o" 500 200 basechar 0
AnchorPoint: "r;lo" 500 -260 basechar 0
LayerCount: 3
Fore
SplineSet
182.925046816 326 m 0
 172.582756169 326 166.358896525 324.785717678 164.93548371 318.380360008 c 1
 157.985962053 283.632751726 145 217.953752109 145 212 c 0
 145 209.637958098 145.401668832 208.744026565 145.401668832 208.744026565 c 1
 145.939496479 208.508161073 148.848974528 208.54222484 153.327230238 207.982442876 c 1
 280.499279785 195.966186226 383 153.318293718 383 19 c 0
 383 -156.900390676 149.697021649 -224 113 -224 c 0
 103.665075338 -224 102 -213.398246217 102 -203 c 0
 102 -194.762292312 104.348981642 -187.400455128 112.463401397 -186.048051835 c 1
 178.095877498 -173.120442906 306 -117.526295608 306 3 c 0
 306 104.484497213 217.577795753 143 115 143 c 0
 104.325475042 143 97 147.035616125 97 158 c 0
 97 173.248614313 129.025785591 305.416343749 144.045799508 385.523084638 c 0
 145.571322101 394.676220198 156.961067006 394 162 394 c 0
 170.364838707 394 306.114922644 385 369 385 c 0
 380.018615837 385 389.43885537 386.174885635 390.214569927 388.114172029 c 1
 390.214569927 388.114172029 398.394700278 414 403 414 c 0
 407 414 l 0
 412.153827926 414 423 413.610148377 423 405 c 0
 423 404.896674439 l 1
 422.992890985 404.793593725 l 0
 420.99030108 375.756040094 419.998045257 362.89168542 418.996303948 335.844670092 c 1
 417.761737413 317.326172067 393.194465652 316 379 316 c 0
 300.814796377 316 262.779339995 322.007285341 182.925046816 326 c 0
EndSplineSet
Layer: 2
SplineSet
187.500192835 304 m 0
 187.148066159 304 184.59480528 303.931002838 184.58875773 303.930813259 c 1
 178.240675097 272.185402905 172.26893384 241.43641694 169.090705917 223.979760355 c 1
 295.176704997 210.257139456 405 162.731988227 405 19 c 0
 405 -169.87177265 158.276015826 -236 118 -236 c 0
 92.0660090349 -236 90 -210.276576957 90 -203 c 0
 90 -192.832837182 91.729672281 -169.152641811 114.150476058 -164.441789992 c 1
 178.522814336 -152.096475898 294 -100.066307019 294 3 c 0
 294 90.3089460412 220.200257413 126 120 126 c 0
 104.706313405 126 85 134.762924569 85 158 c 0
 85 180.038960008 117.240786648 307.547105317 132.33512164 387.725341788 c 0
 132.454593852 388.359955457 l 1
 132.628164172 388.981953418 l 0
 138.623475308 410.466452044 166.335328775 406.133005817 167.365206538 405.997451414 c 1
 179.639123523 405.837281525 292.534791855 397.982245247 371.124983728 397 c 1
 373.614932039 397 377.064973275 396.849554412 377.837939745 396.812971733 c 1
 380.018272147 401.169783316 389.033351997 427 414 427 c 0
 429.202040794 427 445 417.30137704 445 400 c 0
 445 369.911091549 441.920473363 360.291574731 440.979001696 334.72098078 c 1
 438.730459123 293.772259154 394.77927908 294 384 294 c 0
 304.770834663 294 266.52331064 300.048408699 187.500192835 304 c 0
EndSplineSet
AlternateSubs2: "'aalt' Access All Alternates lookup 0 subtable" five.p five.u five.sub five.sup five.denom five.numer
AlternateSubs2: "'aalt' Access All Alternates in Latin lookup 0 subtable" five.p five.u five.sub five.sup five.denom five.numer
Substitution2: "'pnum' Proportional Numbers in Latin lookup 10 subtable" five.p
Substitution2: "lining_figures subtable" five.u
Substitution2: "'subs' Subscript in Latin lookup 8 subtable" five.sub
Substitution2: "'sups' Superscript in Latin lookup 7 subtable" five.sup
Substitution2: "denominators subtable" five.denom
Substitution2: "numerators subtable" five.numer
EndChar

StartChar: six
Encoding: 54 54 58
Width: 500
VWidth: 0
Flags: HW
AnchorPoint: "l;bl" 0 10 basechar 0
AnchorPoint: "l;x" 0 380 basechar 0
AnchorPoint: "l;hi" 0 650 basechar 0
AnchorPoint: "l;o" 0 200 basechar 0
AnchorPoint: "l;lo" 0 -260 basechar 0
AnchorPoint: "r;bl" 500 10 basechar 0
AnchorPoint: "r;x" 500 380 basechar 0
AnchorPoint: "r;hi" 500 650 basechar 0
AnchorPoint: "r;o" 500 200 basechar 0
AnchorPoint: "r;lo" 500 -260 basechar 0
LayerCount: 3
Fore
SplineSet
378.046198254 626.186455091 m 0
 238.288026482 568.69727805 168.664686591 431.566139694 146.812319798 373.955354512 c 1
 142.773482691 362.848552468 138.217910313 351.549264175 137.991918561 348.043917659 c 1
 141.216299164 347.443297743 152.017223549 351.37758519 161.476915362 352.954200492 c 1
 193.602813946 358.977806477 221.891731721 361 253 361 c 0
 358.26486365 361 444 291.944830391 444 189 c 0
 444 65.2527919167 353.405409923 -8 244 -8 c 0
 128.165226978 -8 45 74.81271068 45 231 c 0
 45 507.955751624 338.909139402 658 367 658 c 0
 375.769734689 658 385 644.161302949 385 635 c 0
 385 630.385229067 381.772377957 627.428514992 378.046198254 626.186455091 c 0
126.936941259 297.388137238 m 0
 121.988331759 273.634811636 118 238.786510397 118 201 c 0
 118 120.686983857 160.443644606 29 258 29 c 0
 323.621443091 29 370 99.9666179735 370 168 c 0
 370 261.871042994 321.128151492 333 217 333 c 0
 203.341820845 333 169.207300475 329.993244227 151.514023524 327.044364736 c 0
 129.62252158 323.237147006 131.975592194 321.573661723 126.936941259 297.388137238 c 0
EndSplineSet
AlternateSubs2: "'aalt' Access All Alternates lookup 0 subtable" six.p six.u six.sub six.sup six.denom six.numer
AlternateSubs2: "'aalt' Access All Alternates in Latin lookup 0 subtable" six.p six.u six.sub six.sup six.denom six.numer
Substitution2: "'pnum' Proportional Numbers in Latin lookup 10 subtable" six.p
Substitution2: "lining_figures subtable" six.u
Substitution2: "'subs' Subscript in Latin lookup 8 subtable" six.sub
Substitution2: "'sups' Superscript in Latin lookup 7 subtable" six.sup
Substitution2: "denominators subtable" six.denom
Substitution2: "numerators subtable" six.numer
EndChar

StartChar: seven
Encoding: 55 55 59
Width: 500
VWidth: 0
Flags: HW
AnchorPoint: "l;bl" 0 10 basechar 0
AnchorPoint: "l;x" 0 380 basechar 0
AnchorPoint: "l;hi" 0 650 basechar 0
AnchorPoint: "l;o" 0 200 basechar 0
AnchorPoint: "l;lo" 0 -260 basechar 0
AnchorPoint: "r;bl" 500 10 basechar 0
AnchorPoint: "r;x" 500 380 basechar 0
AnchorPoint: "r;hi" 500 650 basechar 0
AnchorPoint: "r;o" 500 200 basechar 0
AnchorPoint: "r;lo" 500 -260 basechar 0
LayerCount: 3
Fore
SplineSet
111.967470033 274.552987018 m 2
 111.190859004 268.340098784 104.054659116 267.03564761 99.0401550523 266.989484166 c 0
 92.2223755862 266.926719798 81 269.425270286 81 278 c 0
 81 288.603116738 87.0049794833 335.193431848 93.0155028327 399.305680908 c 1
 95.1240396711 418.282512454 101.228384477 420 112 420 c 0
 125.260947517 420 127.741108753 408.917376113 127.982317487 398.92929616 c 1
 143.622191285 396.053794249 228.538442032 396 289 396 c 2
 455 396 l 0
 463.592822162 396 475 394.212972588 475 384 c 0
 475 379.673895461 472.562175666 376.4161474 470.662432089 372.616660246 c 1
 348.312070619 145.820868252 170.350623719 -219 159 -219 c 0
 140.92261735 -219 120 -204.49723853 120 -188 c 0
 120 -181.135514519 343.289608964 202.304752682 408.388383968 315.476469227 c 1
 413.181134925 324.103420949 416.716653494 329.676407749 416.971598456 330.761670037 c 1
 415.057335283 331.553740737 410.692684885 332 402 332 c 0
 203 332 l 0
 174.775883402 332 126.474675507 328.97979757 120.885990467 325.091269476 c 1
 111.967470033 274.552987018 l 2
EndSplineSet
AlternateSubs2: "'aalt' Access All Alternates lookup 0 subtable" seven.p seven.u seven.sub seven.sup seven.denom seven.numer
AlternateSubs2: "'aalt' Access All Alternates in Latin lookup 0 subtable" seven.p seven.u seven.sub seven.sup seven.denom seven.numer
Substitution2: "'pnum' Proportional Numbers in Latin lookup 10 subtable" seven.p
Substitution2: "lining_figures subtable" seven.u
Substitution2: "'subs' Subscript in Latin lookup 8 subtable" seven.sub
Substitution2: "'sups' Superscript in Latin lookup 7 subtable" seven.sup
Substitution2: "denominators subtable" seven.denom
Substitution2: "numerators subtable" seven.numer
EndChar

StartChar: eight
Encoding: 56 56 60
Width: 500
VWidth: 0
Flags: HW
AnchorPoint: "l;bl" 0 10 basechar 0
AnchorPoint: "l;x" 0 380 basechar 0
AnchorPoint: "l;hi" 0 650 basechar 0
AnchorPoint: "l;o" 0 200 basechar 0
AnchorPoint: "l;lo" 0 -260 basechar 0
AnchorPoint: "r;bl" 500 10 basechar 0
AnchorPoint: "r;x" 500 380 basechar 0
AnchorPoint: "r;hi" 500 650 basechar 0
AnchorPoint: "r;o" 500 200 basechar 0
AnchorPoint: "r;lo" 500 -260 basechar 0
LayerCount: 3
Fore
SplineSet
306.549203858 334.569048822 m 0
 339.110857123 314.83471351 433 274.884456492 433 154 c 0
 433 57.1439497931 359.255950281 -9 248 -9 c 0
 151.721677458 -9 68 57.0264318244 68 154 c 0
 68 261.806039554 146.636866484 301.672535208 182.658359214 319.683281573 c 0
 187.939556113 322.323880023 194.348298927 324.545845528 195.093669855 324.780631426 c 1
 191.051224435 327.01094614 185.982809735 329.901617043 179.303414933 334.525813444 c 0
 144.180058434 358.610400758 77 413.261757793 77 495 c 0
 77 587.765188989 154.466932362 661 250 661 c 0
 338.394616971 661 411 599.816355162 411 508 c 0
 411 410.327494675 340.460200105 368.349979869 306.826385167 343.619233591 c 1
 303.699924684 341.118065205 299.976716906 338.498448979 299.65728309 338.23185977 c 1
 301.097431282 337.415118192 303.628300284 336.321590967 306.549203858 334.569048822 c 0
252 25 m 0
 319.834003099 25 362 87.0736438265 362 153 c 0
 362 236.165579424 303.717915825 269.282522089 244.556354008 301.370148837 c 1
 236.063489582 306.088406852 221.301951831 312.536413781 219.021757166 312.996843409 c 1
 215.571775086 312.205130196 200.006263629 301.047862136 187.745819974 292.559862682 c 1
 165.283273025 275.957110589 127 237.817270024 127 164 c 0
 127 81.2877837461 176.834416828 25 252 25 c 0
289.027069388 359.259990394 m 0
 319.467766606 385.772855713 360 449.370657387 360 500 c 0
 360 586.75752702 312.179667153 633 248 633 c 0
 181.135469559 633 141 574.959502656 141 507 c 0
 141 459.291321053 168.17035798 423.111643613 208.832033297 391.375701902 c 1
 229.672955907 375.496903723 249.678713686 362.529321621 262.237857219 356.732793837 c 1
 271.511241804 352.611289577 275.766180319 350 277 350 c 0
 277.993590575 350 280.695944476 351.970256096 289.027069388 359.259990394 c 0
EndSplineSet
AlternateSubs2: "'aalt' Access All Alternates lookup 0 subtable" eight.p eight.u eight.sub eight.sup eight.denom eight.numer
AlternateSubs2: "'aalt' Access All Alternates in Latin lookup 0 subtable" eight.p eight.u eight.sub eight.sup eight.denom eight.numer
Substitution2: "'pnum' Proportional Numbers in Latin lookup 10 subtable" eight.p
Substitution2: "lining_figures subtable" eight.u
Substitution2: "'subs' Subscript in Latin lookup 8 subtable" eight.sub
Substitution2: "'sups' Superscript in Latin lookup 7 subtable" eight.sup
Substitution2: "denominators subtable" eight.denom
Substitution2: "numerators subtable" eight.numer
EndChar

StartChar: nine
Encoding: 57 57 61
Width: 500
VWidth: 0
Flags: HW
AnchorPoint: "l;bl" 0 10 basechar 0
AnchorPoint: "l;x" 0 380 basechar 0
AnchorPoint: "l;hi" 0 650 basechar 0
AnchorPoint: "l;o" 0 200 basechar 0
AnchorPoint: "l;lo" 0 -260 basechar 0
AnchorPoint: "r;bl" 500 10 basechar 0
AnchorPoint: "r;x" 500 380 basechar 0
AnchorPoint: "r;hi" 500 650 basechar 0
AnchorPoint: "r;o" 500 200 basechar 0
AnchorPoint: "r;lo" 500 -260 basechar 0
LayerCount: 3
Fore
SplineSet
57 204 m 0
 57 327.666771974 143.535949747 401 253 401 c 0
 365.77446082 401 456 318.30226937 456 162 c 0
 456 -134.811300286 91.8036753544 -221 73 -221 c 0
 62.8127006604 -221 60 -200.152420909 60 -193 c 0
 60 -179.03110157 291.972963595 -143.771347308 364.165076825 56.9820634551 c 1
 365.242630124 60.2147233527 368.677514982 69.6686182056 369.404273256 72.0335417077 c 1
 365.54593849 69.7588433125 360.210836165 66.2016728342 354.61873102 62.4736027381 c 1
 328.03127571 46.1120917781 281.661885097 29 228 29 c 0
 122.341747866 29 57 101.562675067 57 204 c 0
128 214 m 0
 128 139.986485535 173.218310959 66 255 66 c 0
 322.38116757 66 363.161303274 89.8289740404 378.386304533 116.472726243 c 1
 382.572276832 124.007476382 384 154.111396796 384 172 c 0
 384 264.808318153 346.128788684 365 256 365 c 0
 169.115823824 365 128 298.092636204 128 214 c 0
EndSplineSet
AlternateSubs2: "'aalt' Access All Alternates lookup 0 subtable" nine.p nine.u nine.sub nine.sup nine.denom nine.numer
AlternateSubs2: "'aalt' Access All Alternates in Latin lookup 0 subtable" nine.p nine.u nine.sub nine.sup nine.denom nine.numer
Substitution2: "'pnum' Proportional Numbers in Latin lookup 10 subtable" nine.p
Substitution2: "lining_figures subtable" nine.u
Substitution2: "'subs' Subscript in Latin lookup 8 subtable" nine.sub
Substitution2: "'sups' Superscript in Latin lookup 7 subtable" nine.sup
Substitution2: "denominators subtable" nine.denom
Substitution2: "numerators subtable" nine.numer
EndChar

StartChar: comma
Encoding: 44 44 63
Width: 203
VWidth: 0
Flags: HW
AnchorPoint: "l;bl" 0 10 basechar 0
AnchorPoint: "l;o" 20 200 basechar 0
AnchorPoint: "r;bl" 203 10 basechar 0
AnchorPoint: "r;o" 203 200 basechar 0
LayerCount: 3
Fore
SplineSet
42 47 m 0
 42 70.9545415213 84.8973059206 91 92 91 c 0
 109.603403481 91 166 52.7040081333 166 25 c 0
 166 -61.2553945479 63.2125014283 -159 51 -159 c 0
 41.9056785794 -159 37 -146.442226885 37 -139 c 0
 37 -130.08764091 107 -83.7704071728 107 -34 c 0
 107 10.7579733067 42 27.3812516909 42 47 c 0
EndSplineSet
AlternateSubs2: "'aalt' Access All Alternates lookup 0 subtable" comma.sub comma.sup comma.denom comma.numer
AlternateSubs2: "'aalt' Access All Alternates in Latin lookup 0 subtable" comma.sub comma.sup comma.denom comma.numer
Substitution2: "'subs' Subscript in Latin lookup 8 subtable" comma.sub
Substitution2: "'sups' Superscript in Latin lookup 7 subtable" comma.sup
Substitution2: "denominators subtable" comma.denom
Substitution2: "numerators subtable" comma.numer
EndChar

StartChar: quotedblright
Encoding: 8221 8221 64
Width: 394
VWidth: 0
Flags: HW
AnchorPoint: "r;x" 394 380 basechar 0
AnchorPoint: "r;hi" 394 650 basechar 0
AnchorPoint: "r;o" 354 200 basechar 0
AnchorPoint: "l;x" 0 380 basechar 0
AnchorPoint: "l;hi" 0 650 basechar 0
AnchorPoint: "l;o" 40 200 basechar 0
LayerCount: 3
Fore
SplineSet
78 621 m 0
 78 643.245898981 108.110362201 686 128 686 c 0
 139.669965575 686 182 623.923351007 182 598 c 0
 182 524.681616353 86.2726467588 432 76 432 c 0
 67.6635660371 432 57 444.298655985 57 453 c 0
 57 461.796414382 126 511.546008275 126 543 c 0
 126 566.103776208 78 592.107176237 78 621 c 0
263 621 m 0
 263 643.245898981 293.110362201 686 313 686 c 0
 324.669965575 686 367 623.923351007 367 598 c 0
 367 524.681616353 271.272646759 432 261 432 c 0
 252.663566037 432 242 444.298655985 242 453 c 0
 242 461.796414382 311 511.546008275 311 543 c 0
 311 566.103776208 263 592.107176237 263 621 c 0
EndSplineSet
EndChar

StartChar: quotedblleft
Encoding: 8220 8220 65
Width: 394
VWidth: 0
Flags: HW
AnchorPoint: "r;o" 354 200 basechar 0
AnchorPoint: "r;hi" 394 650 basechar 0
AnchorPoint: "r;x" 394 380 basechar 0
AnchorPoint: "l;o" 40 200 basechar 0
AnchorPoint: "l;hi" 0 650 basechar 0
AnchorPoint: "l;x" 0 380 basechar 0
LayerCount: 3
Fore
SplineSet
316 497 m 0
 316 474.754101019 285.889637799 432 266 432 c 0
 254.330034425 432 212 494.076648993 212 520 c 0
 212 593.318383647 307.727353241 686 318 686 c 0
 326.336433963 686 337 673.701344015 337 665 c 0
 337 656.203585618 268 606.453991725 268 575 c 0
 268 551.896223792 316 525.892823763 316 497 c 0
131 497 m 0
 131 474.754101019 100.889637799 432 81 432 c 0
 69.3300344251 432 27 494.076648993 27 520 c 0
 27 593.318383647 122.727353241 686 133 686 c 0
 141.336433963 686 152 673.701344015 152 665 c 0
 152 656.203585618 83 606.453991725 83 575 c 0
 83 551.896223792 131 525.892823763 131 497 c 0
EndSplineSet
EndChar

StartChar: quoteright
Encoding: 8217 8217 66
Width: 209
VWidth: 0
Flags: HW
AnchorPoint: "l;o" 40 200 basechar 0
AnchorPoint: "l;hi" 0 650 basechar 0
AnchorPoint: "l;x" 0 380 basechar 0
AnchorPoint: "r;o" 169 200 basechar 0
AnchorPoint: "r;hi" 209 650 basechar 0
AnchorPoint: "r;x" 209 380 basechar 0
LayerCount: 3
Fore
SplineSet
78 621 m 0
 78 643.245898981 108.110362201 686 128 686 c 0
 139.669965575 686 182 623.923351007 182 598 c 0
 182 524.681616353 86.2726467588 432 76 432 c 0
 67.6635660371 432 57 444.298655985 57 453 c 0
 57 461.796414382 126 511.546008275 126 543 c 0
 126 566.103776208 78 592.107176237 78 621 c 0
EndSplineSet
EndChar

StartChar: quoteleft
Encoding: 8216 8216 67
Width: 209
VWidth: 0
Flags: HW
AnchorPoint: "l;x" 0 380 basechar 0
AnchorPoint: "l;hi" 0 650 basechar 0
AnchorPoint: "l;o" 40 200 basechar 0
AnchorPoint: "r;x" 209 380 basechar 0
AnchorPoint: "r;hi" 209 650 basechar 0
AnchorPoint: "r;o" 169 200 basechar 0
LayerCount: 3
Fore
SplineSet
131 497 m 0
 131 474.754101019 100.889637799 432 81 432 c 0
 69.3300344251 432 27 494.076648993 27 520 c 0
 27 593.318383647 122.727353241 686 133 686 c 0
 141.336433963 686 152 673.701344015 152 665 c 0
 152 656.203585618 83 606.453991725 83 575 c 0
 83 551.896223792 131 525.892823763 131 497 c 0
EndSplineSet
EndChar

StartChar: period
Encoding: 46 46 68
Width: 221
VWidth: 0
Flags: HW
AnchorPoint: "l;bl" 0 10 basechar 0
AnchorPoint: "l;o" 20 200 basechar 0
AnchorPoint: "r;bl" 221 10 basechar 0
AnchorPoint: "r;o" 221 200 basechar 0
LayerCount: 3
Fore
SplineSet
57 38 m 0
 57 60.2054258023 85.1040995255 100 104 100 c 0
 123.069449834 100 164 77.7248048884 164 50 c 0
 164 17.5107324262 131.530735291 -11 119 -11 c 0
 89.433617749 -11 57 20.5286275002 57 38 c 0
EndSplineSet
AlternateSubs2: "'aalt' Access All Alternates lookup 0 subtable" period.sub period.sup period.denom period.numer
AlternateSubs2: "'aalt' Access All Alternates in Latin lookup 0 subtable" period.sub period.sup period.denom period.numer
Substitution2: "'subs' Subscript in Latin lookup 8 subtable" period.sub
Substitution2: "'sups' Superscript in Latin lookup 7 subtable" period.sup
Substitution2: "denominators subtable" period.denom
Substitution2: "numerators subtable" period.numer
EndChar

StartChar: colon
Encoding: 58 58 69
Width: 221
VWidth: 0
Flags: HW
AnchorPoint: "l;bl" 0 10 basechar 0
AnchorPoint: "l;x" 0 380 basechar 0
AnchorPoint: "l;o" 0 200 basechar 0
AnchorPoint: "r;bl" 221 10 basechar 0
AnchorPoint: "r;x" 221 380 basechar 0
AnchorPoint: "r;o" 221 200 basechar 0
AnchorPoint: "l;hi" 0 650 basechar 0
AnchorPoint: "l;lo" 0 -260 basechar 0
AnchorPoint: "r;hi" 221 650 basechar 0
AnchorPoint: "r;lo" 221 -260 basechar 0
LayerCount: 3
Fore
SplineSet
57 313 m 0
 57 335.205425802 85.1040995255 375 104 375 c 0
 123.069449834 375 164 352.724804888 164 325 c 0
 164 292.510732426 131.530735291 264 119 264 c 0
 89.433617749 264 57 295.5286275 57 313 c 0
57 38 m 0
 57 60.2054258023 85.1040995255 100 104 100 c 0
 123.069449834 100 164 77.7248048884 164 50 c 0
 164 17.5107324262 131.530735291 -11 119 -11 c 0
 89.433617749 -11 57 20.5286275002 57 38 c 0
EndSplineSet
EndChar

StartChar: semicolon
Encoding: 59 59 70
Width: 223
VWidth: 0
Flags: HW
AnchorPoint: "r;lo" 223 -260 basechar 0
AnchorPoint: "r;hi" 223 650 basechar 0
AnchorPoint: "l;lo" 0 -260 basechar 0
AnchorPoint: "l;hi" 0 650 basechar 0
AnchorPoint: "r;o" 223 200 basechar 0
AnchorPoint: "r;x" 223 380 basechar 0
AnchorPoint: "r;bl" 223 10 basechar 0
AnchorPoint: "l;o" 0 200 basechar 0
AnchorPoint: "l;x" 0 380 basechar 0
AnchorPoint: "l;bl" 0 10 basechar 0
LayerCount: 3
Fore
SplineSet
52 47 m 0
 52 70.9545415213 94.8973059206 91 102 91 c 0
 119.603403481 91 176 52.7040081333 176 25 c 0
 176 -61.2553945479 73.2125014283 -159 61 -159 c 0
 51.9056785794 -159 47 -146.442226885 47 -139 c 0
 47 -130.08764091 117 -83.7704071728 117 -34 c 0
 117 10.7579733067 52 27.3812516909 52 47 c 0
58 313 m 0
 58 335.205425802 86.1040995255 375 105 375 c 0
 124.069449834 375 165 352.724804888 165 325 c 0
 165 292.510732426 132.530735291 264 120 264 c 0
 90.433617749 264 58 295.5286275 58 313 c 0
EndSplineSet
EndChar

StartChar: hyphen
Encoding: 45 45 71
Width: 258
VWidth: 0
Flags: HW
AnchorPoint: "l;bl" 0 10 basechar 0
AnchorPoint: "l;x" 0 380 basechar 0
AnchorPoint: "l;o" 0 200 basechar 0
AnchorPoint: "r;bl" 258 10 basechar 0
AnchorPoint: "r;x" 258 380 basechar 0
AnchorPoint: "r;o" 258 200 basechar 0
AnchorPoint: "l;hi" 40 650 basechar 0
AnchorPoint: "r;hi" 218 650 basechar 0
LayerCount: 3
Fore
SplineSet
42.6687054218 243.981651204 m 0
 52.1749409795 245.037899599 219.664946563 251 226 251 c 0
 232.389724319 251 231 242.01264536 231 239 c 0
 231 226.909032356 228.30043865 205.207019039 220.759532742 203.049562947 c 1
 206.272228594 201.935154936 42.6419430588 195 29 195 c 0
 25.1734550138 195 22 197.188190763 22 201 c 0
 22 215.939893366 30.2074903501 242.597071752 42.6687054218 243.981651204 c 0
EndSplineSet
AlternateSubs2: "'aalt' Access All Alternates lookup 0 subtable" hyphen.u hyphen.sub hyphen.sup hyphen.denom hyphen.numer
AlternateSubs2: "'aalt' Access All Alternates in Latin lookup 0 subtable" hyphen.u hyphen.sub hyphen.sup hyphen.denom hyphen.numer
Substitution2: "'case' Case-Sensitive Forms in Latin lookup 14 subtable" hyphen.u
Substitution2: "'subs' Subscript in Latin lookup 8 subtable" hyphen.sub
Substitution2: "'sups' Superscript in Latin lookup 7 subtable" hyphen.sup
Substitution2: "denominators subtable" hyphen.denom
Substitution2: "numerators subtable" hyphen.numer
EndChar

StartChar: exclam
Encoding: 33 33 72
Width: 261
VWidth: 0
Flags: HW
AnchorPoint: "l;bl" 0 10 basechar 0
AnchorPoint: "l;x" 0 380 basechar 0
AnchorPoint: "l;hi" 0 650 basechar 0
AnchorPoint: "l;o" 0 200 basechar 0
AnchorPoint: "r;bl" 261 10 basechar 0
AnchorPoint: "r;x" 261 380 basechar 0
AnchorPoint: "r;hi" 261 650 basechar 0
AnchorPoint: "r;o" 261 200 basechar 0
LayerCount: 3
Fore
SplineSet
146 181.931853363 m 0
 146 172.271821013 136.393342619 169 129 169 c 0
 122.462522299 169 113 172.372703893 113 181.959648557 c 0
 107.003189503 404.841105366 94 593.745975749 94 648 c 0
 94 670.650197162 112.061129818 676 138 676 c 0
 161.135212095 676 172 672.122797452 172 652 c 0
 172 639.578456431 158.00307234 445.999444833 146 181.931853363 c 0
77 38 m 0
 77 60.2054258023 105.104099525 100 124 100 c 0
 143.069449834 100 184 77.7248048884 184 50 c 0
 184 17.5107324262 151.530735291 -11 139 -11 c 0
 109.523395303 -11 77 20.5244983457 77 38 c 0
EndSplineSet
Position2: "'cpsp' Capital Spacing in Latin lookup 2 subtable" dx=4 dy=0 dh=8 dv=0
EndChar

StartChar: question
Encoding: 63 63 73
Width: 364
VWidth: 0
Flags: HW
AnchorPoint: "l;bl" 0 10 basechar 0
AnchorPoint: "l;x" 0 380 basechar 0
AnchorPoint: "l;k;hi" -20 650 basechar 0
AnchorPoint: "l;o" 0 200 basechar 0
AnchorPoint: "r;bl" 364 10 basechar 0
AnchorPoint: "r;x" 364 380 basechar 0
AnchorPoint: "r;hi" 364 650 basechar 0
AnchorPoint: "r;o" 364 200 basechar 0
LayerCount: 3
Fore
SplineSet
168 137.906341374 m 0
 168 129.586272048 160.666531363 126 153 126 c 0
 137.109179564 126 134 133.741885912 134 151 c 0
 134 164.116405671 134.981881646 283.853349593 136.006282482 298.194961287 c 0
 137.137790195 317.430592414 149.157053213 319 167 319 c 0
 224 319 l 0
 302.69954349 319 308 371.329089715 308 404 c 0
 308 493.987635627 237.910935456 567.115069313 82.597100642 587.027099417 c 1
 69.6171160472 588.881382931 57 588.30030822 57 605 c 0
 57 650 l 0
 57 656.476494563 58.5196730905 670 69 670 c 0
 83.7297202763 670 83.7312187722 645.913167954 88.5376437835 644.951882951 c 1
 161.065511533 633.029493732 337 605.675387677 337 419 c 0
 337 327.721819484 313.457041364 243.021937869 199 242 c 0
 177.955161688 242 176.858729612 236.437669258 175.99067196 227.75709274 c 1
 173.988834909 195.727699911 169.987647082 169.708694687 168 137.906341374 c 0
93 38 m 0
 93 60.2054258023 121.104099525 100 140 100 c 0
 159.069449834 100 200 77.7248048884 200 50 c 0
 200 17.5107324262 167.530735291 -11 155 -11 c 0
 125.523395303 -11 93 20.5244983457 93 38 c 0
EndSplineSet
Position2: "'cpsp' Capital Spacing in Latin lookup 2 subtable" dx=4 dy=0 dh=8 dv=0
EndChar

StartChar: parenleft
Encoding: 40 40 74
Width: 279
VWidth: 0
Flags: HW
AnchorPoint: "l;o" 0 200 basechar 0
AnchorPoint: "l;x" 0 380 basechar 0
AnchorPoint: "r;o" 219 200 basechar 0
AnchorPoint: "r;hi" 279 650 basechar 0
AnchorPoint: "r;x" 219 380 basechar 0
AnchorPoint: "r;bl" 259 10 basechar 0
AnchorPoint: "r;lo" 259 -260 basechar 0
LayerCount: 3
Fore
SplineSet
37 285 m 0
 37 547.63638998 217.46399762 692 223 692 c 0
 231.077877868 692 242 685.480918211 242 676 c 0
 242 667.252208069 100 546.156707575 100 297 c 0
 100 13.935340489 238 -106.800487094 238 -126 c 0
 238 -134.575808315 231.5368163 -143 219 -143 c 0
 203.997790703 -143 37 54.7557194963 37 285 c 0
EndSplineSet
AlternateSubs2: "'aalt' Access All Alternates lookup 0 subtable" parenleft.u parenleft.sub parenleft.sup parenleft.denom parenleft.numer
AlternateSubs2: "'aalt' Access All Alternates in Latin lookup 0 subtable" parenleft.u parenleft.sub parenleft.sup parenleft.denom parenleft.numer
Substitution2: "'case' Case-Sensitive Forms in Latin lookup 14 subtable" parenleft.u
Substitution2: "'subs' Subscript in Latin lookup 8 subtable" parenleft.sub
Substitution2: "'sups' Superscript in Latin lookup 7 subtable" parenleft.sup
Substitution2: "denominators subtable" parenleft.denom
Substitution2: "numerators subtable" parenleft.numer
EndChar

StartChar: parenright
Encoding: 41 41 75
Width: 279
VWidth: 0
Flags: HW
AnchorPoint: "l;bl" 20 10 basechar 0
AnchorPoint: "l;x" 60 380 basechar 0
AnchorPoint: "l;hi" 0 650 basechar 0
AnchorPoint: "l;o" 60 200 basechar 0
AnchorPoint: "r;x" 279 380 basechar 0
AnchorPoint: "r;o" 279 200 basechar 0
AnchorPoint: "l;lo" 20 -260 basechar 0
LayerCount: 3
Fore
SplineSet
242 264 m 0
 242 1.36361001976 61.5360023796 -143 56 -143 c 0
 47.9221221316 -143 37 -136.480918211 37 -127 c 0
 37 -118.252208069 179 2.84329242546 179 252 c 0
 179 535.064659511 41 655.800487094 41 675 c 0
 41 683.575808315 47.4631836995 692 60 692 c 0
 75.0022092974 692 242 494.244280504 242 264 c 0
EndSplineSet
AlternateSubs2: "'aalt' Access All Alternates lookup 0 subtable" parenright.u parenright.sub parenright.sup parenright.denom parenright.numer
AlternateSubs2: "'aalt' Access All Alternates in Latin lookup 0 subtable" parenright.u parenright.sub parenright.sup parenright.denom parenright.numer
Substitution2: "'case' Case-Sensitive Forms in Latin lookup 14 subtable" parenright.u
Substitution2: "'subs' Subscript in Latin lookup 8 subtable" parenright.sub
Substitution2: "'sups' Superscript in Latin lookup 7 subtable" parenright.sup
Substitution2: "denominators subtable" parenright.denom
Substitution2: "numerators subtable" parenright.numer
EndChar

StartChar: f_i
Encoding: 65536 -1 76
Width: 499
VWidth: 0
Flags: HW
AnchorPoint: "r;o" 489 200 basechar 0
AnchorPoint: "r;x" 489 380 basechar 0
AnchorPoint: "r;bl" 499 10 basechar 0
AnchorPoint: "l;o" 0 200 basechar 0
AnchorPoint: "l;x" 0 380 basechar 0
AnchorPoint: "l;bl" 0 10 basechar 0
LayerCount: 3
Fore
SplineSet
168.696478868 28 m 1
 227 28 l 0
 240.521497439 28 243 21.6390711572 243 12 c 0
 243 2.80239298519 241.848009554 -5 227 -5 c 0
 207.862329757 -5 159.902656512 -3 131 -3 c 0
 106.157525485 -3 78.1313337398 -5 48 -5 c 0
 33.5425337613 -5 32 0.661451141529 32 12 c 0
 32 21.7652861333 35.3738001745 28 47 28 c 0
 85.4029167775 28 l 1
 87.2736782896 35.6002489747 88 60.6542198551 88 88 c 0
 88 122.963100058 87 160.896618504 87 172 c 0
 87 252 l 0
 87 285.890707286 86.8325714336 332.494948696 85.7065613274 343 c 1
 55 343 l 0
 43.4142555816 343 38 345.596343058 38 359 c 0
 38 371.854788339 41.9446743519 375 52 375 c 0
 81 375 l 0
 84.4175582935 375 86.3039975392 375.236222485 86.6048534528 375.325567574 c 1
 86.89598529 376.212077133 87 377.457175395 87 380 c 0
 87 424.084324423 89.0051192776 466.203183656 93.0146233271 505.295848139 c 0
 104.131500047 617.475240492 172.314870104 681 263 681 c 0
 346.138017719 681 393 627.272405241 393 590 c 0
 393 564.695248027 359.466986407 542 344 542 c 0
 334.699910875 542 329.228805131 543.98278571 328.02316637 553.627895796 c 0
 328.012412016 553.71393063 l 1
 328.006644526 553.800442968 l 0
 322.064213171 642.936913304 293.487462756 653 258 653 c 0
 168.845965346 653 161 518.257327347 161 409 c 0
 161 385 l 0
 161 374.407560444 159.233573585 375 177 375 c 0
 294 375 l 0
 313.781572335 375 393.757266218 380 407 380 c 0
 413.772132396 380 417 377.269416608 417 371 c 0
 417 201 l 0
 417 143.997104282 417.000815614 94.0633961098 419.995853488 37.1576764994 c 0
 420 37.0788927713 l 1
 420 37 l 0
 420 28.1196105126 418.761784699 28 427 28 c 0
 458 28 l 0
 469.849409717 28 472 21.3633236434 472 12 c 0
 472 3.09498112248 471.172330471 -5 458 -5 c 0
 438.830864162 -5 403.881309435 -3 379 -3 c 0
 354.119791594 -3 314.150535794 -5 295 -5 c 0
 282.236417146 -5 281 0.939196673081 281 12 c 0
 281 21.7624947763 283.623405407 28 298 28 c 0
 334 28 l 0
 343.660506783 28 342 27.3224756691 342 37.0517087713 c 1
 343.002196583 66.1154096805 343 88.9622499958 343 119 c 0
 343 188.936070356 341.99745845 260.000226554 339.004729112 332.823307115 c 1
 338.043181936 345.323420399 337.561670368 344 332 344 c 0
 175 344 l 0
 160.435807554 344 161 343.451045626 161 335 c 0
 161 169 l 0
 161 102.210492394 163.876667878 35.7116975833 168.696478868 28 c 1
EndSplineSet
Layer: 2
SplineSet
319.769401332 314.484708237 m 1
 315.888397117 306.615981432 309.807284226 300 298 300 c 0
 183 300 l 1
 183 169 l 0
 183 121.224821234 185.29005979 70.2404930396 187.418406358 50 c 1
 232 50 l 0
 258.633733466 50 265 26.9684030865 265 12 c 0
 265 -1.33864256715 255.939920762 -17 232 -17 c 0
 212.089057637 -17 164.345315229 -15 136 -15 c 0
 112.064488351 -15 83.8612704951 -17 53 -17 c 0
 31.1356816553 -17 20 -4.12343143392 20 12 c 0
 20 27.349546956 26.8479501241 50 52 50 c 0
 75.2171156593 50 l 1
 75.8941591601 61.7020083396 76 72.7363666093 76 88 c 0
 76 122.749973406 75 160.315426156 75 172 c 0
 75 232 l 0
 75 253.800153832 74.8052633032 279.020492958 74.5423653178 293 c 1
 60 293 l 0
 43.0540743887 293 26 302.409816624 26 326 c 0
 26 332.432583108 28.01512941 338.933078925 29.2350941068 342.330291339 c 1
 25.4262785876 350.778867491 26 353.458371356 26 359 c 0
 26 378.931105846 38.2957100863 392 57 392 c 0
 75.0531939815 392 l 1
 75.4429271588 434.720943055 77.389326453 469.836882674 81.1040464984 506.53478852 c 0
 93.13005963 622.779374035 167.975497332 693 268 693 c 0
 356.802136712 693 415 638.683344318 415 590 c 0
 415 550.636372568 374.202667856 520 349 520 c 0
 333.446068384 520 318.151675364 529.60706599 316.134919728 551.036929369 c 1
 310.37421665 633.313492083 291.31655774 631 263 631 c 0
 195.787785993 631 184 523.156948441 184 409 c 0
 184 392 l 1
 299 392 l 0
 317.535247532 392 397.381227083 397 412 397 c 0
 425.694634257 397 439 387.381932512 439 371 c 0
 439 207 l 0
 439 154.792337516 439.279831151 98.226775811 441.403645693 50 c 1
 463 50 l 0
 489.657151789 50 494 24.7318607053 494 12 c 0
 494 0.845670928344 487.211082629 -17 463 -17 c 0
 442.897372479 -17 408.177527869 -15 384 -15 c 0
 359.810883138 -15 319.990864687 -17 300 -17 c 0
 277.908712566 -17 269 -2.12635466263 269 12 c 0
 269 27.9702125534 276.307664179 50 303 50 c 0
 330.535379778 50 l 1
 331.071536831 72.1610314175 331.00057206 116.730858769 330.999918102 120.699822833 c 0
 330.991966793 146.423558108 330.861287987 170.532829583 330.552257099 195.83060346 c 0
 330.022173258 233.615848936 328.893018298 271.844834245 327.153275621 314.835391798 c 1
 322.85577297 314.670096756 321.493553245 314.585696833 319.769401332 314.484708237 c 1
EndSplineSet
Ligature2: "'liga' Standard Ligatures in Latin lookup 15 subtable" f i
LCarets2: 1 0 
EndChar

StartChar: f_l
Encoding: 65537 -1 77
Width: 501
VWidth: 0
Flags: HW
AnchorPoint: "r;o" 501 200 basechar 0
AnchorPoint: "r;hi" 501 650 basechar 0
AnchorPoint: "r;x" 501 380 basechar 0
AnchorPoint: "r;bl" 501 10 basechar 0
AnchorPoint: "l;o" 0 200 basechar 0
AnchorPoint: "l;x" 0 380 basechar 0
AnchorPoint: "l;bl" 0 10 basechar 0
LayerCount: 3
Fore
SplineSet
165.382786313 28 m 1
 220 28 l 0
 233.521497439 28 236 21.6390711572 236 12 c 0
 236 2.80239298519 234.848009554 -5 220 -5 c 0
 200.852520381 -5 157.896968415 -3 129 -3 c 0
 104.157525485 -3 76.1313337398 -5 46 -5 c 0
 31.5425337613 -5 30 0.661451141529 30 12 c 0
 30 21.7652861333 33.3738001745 28 45 28 c 0
 83.8611393364 28 l 1
 86.3803928953 34.3950282649 88 60.1777456787 88 88 c 0
 88 122.963100058 87 160.896618504 87 172 c 0
 87 232 l 0
 87 266.627505118 86.8047271326 331.161047695 85.6180458009 343 c 1
 53 343 l 0
 41.4142555816 343 36 345.596343058 36 359 c 0
 36 371.854788339 39.9446743519 375 50 375 c 0
 77 375 l 0
 85.2888101952 375 86 374.35829957 86 384 c 0
 86 432.92004565 85 427.928089496 85 481 c 0
 85 586.019188627 141.961467034 681 266 681 c 0
 288.686245456 681 317.074980467 672.846039058 341.527608373 658.582006113 c 1
 351.37202927 652.675353575 352.798340237 652.001649096 366.575735931 653.969848481 c 0
 387.619719425 656.976131837 402.85607751 661 407 661 c 0
 416.641093265 661 417 654.291759224 417 642.966854875 c 1
 412.998595617 461.903306561 413 389.02185338 413 295 c 0
 413 266.994312271 413.288025775 52.2420877901 416.281946712 28 c 1
 462 28 l 0
 475.521497439 28 478 21.6390711572 478 12 c 0
 478 2.80239298519 476.848009554 -5 462 -5 c 0
 442.835830698 -5 406.888099884 -3 378 -3 c 0
 353.145758953 -3 320.122414625 -5 290 -5 c 0
 275.542533761 -5 274 0.661451141529 274 12 c 0
 274 21.7652861333 277.373800174 28 289 28 c 0
 334.325986007 28 l 1
 336.834839516 38.1748430495 337 88.0803657864 337 110 c 0
 337 329 l 0
 337 345.380634049 336.843576892 344 326 344 c 0
 176 344 l 0
 161.117334291 344 160 342.904672839 160 335 c 0
 160 109 l 0
 160 65.6412279261 161.797101042 32.4848688438 165.382786313 28 c 1
337 392 m 0
 337 459.985916102 336.001527432 500.89543666 335 548.96875339 c 1
 335 566.184131563 329.805693423 568.860308274 322.492114034 580.353075885 c 1
 300.641615877 612.608573165 296.814501535 653 246 653 c 0
 167.468181296 653 158 559.879440022 158 467 c 0
 158 389 l 0
 158 375.031764354 156.614143376 375 176 375 c 0
 324 375 l 0
 335.762467526 375 337 374.741859023 337 392 c 0
EndSplineSet
Layer: 2
SplineSet
184.159311486 50 m 1
 225 50 l 0
 251.633733466 50 258 26.9684030865 258 12 c 0
 258 -1.33864256715 248.939920762 -17 225 -17 c 0
 205.0262269 -17 162.303747632 -15 134 -15 c 0
 110.064488351 -15 81.8612704951 -17 51 -17 c 0
 29.1356816553 -17 18 -4.12343143392 18 12 c 0
 18 27.349546956 24.8479501241 50 50 50 c 0
 74.5720123494 50 l 1
 75.7582687386 62.9411090783 76 72.6564868924 76 88 c 0
 76 122.749973406 75 160.315426156 75 172 c 0
 75 232 l 0
 75 253.800153832 74.8052633032 279.020492958 74.5423653178 293 c 1
 58 293 l 0
 41.0540743887 293 24 302.409816624 24 326 c 0
 24 345.931105846 36.2957100863 359 55 359 c 0
 73.9692629426 359 l 1
 73.6052125875 404.832804503 71 429.607171586 71 481 c 0
 71 589.849258648 135.85985651 693 271 693 c 0
 297.406332039 693 328.091056168 684.227625467 354.932950817 669.039314952 c 0
 355.500976063 668.717901581 l 1
 356.03893788 668.348366307 l 0
 358.732040631 666.498427454 361.382137515 664.36019652 361.382137515 664.36019652 c 1
 364.112467943 664.943862395 365.232557127 665.20798092 369.028578526 665.828955186 c 1
 389.836218159 668.780537044 402.264649217 673 412 673 c 0
 436.172988529 673 439 651.625049184 439 642.668212723 c 1
 434.991967059 461.355091495 435 362.114801865 435 268 c 0
 435 245.470732417 435.64604816 95.4656027503 437.216910957 50 c 1
 467 50 l 0
 493.633733466 50 500 26.9684030865 500 12 c 0
 500 -1.33864256715 490.939920762 -17 467 -17 c 0
 446.919741767 -17 411.240112421 -15 383 -15 c 0
 358.983709175 -15 325.80444596 -17 295 -17 c 0
 273.135681655 -17 262 -4.12343143392 262 12 c 0
 262 27.349546956 268.847950124 50 294 50 c 0
 324.001613915 50 l 1
 325.043284137 70.2370713388 325 94.6128272653 325 110 c 0
 325 299.421977523 l 1
 305.603602811 300.661109677 197.559428784 300.035905553 182 300.001098895 c 1
 182 109 l 0
 182 84.6821043226 183.2020823 61.1790943845 184.159311486 50 c 1
325 365 m 1
 325 432.900682761 324.007648714 500.349746886 323 548.687421742 c 1
 323 560.846157535 323.984717274 552.885711019 313.525102664 567.858860481 c 0
 286.450370727 606.601580005 289.674782928 631 251 631 c 0
 191.955128457 631 180 562.076081966 180 467 c 0
 180 365 l 1
 325 365 l 1
EndSplineSet
Ligature2: "'liga' Standard Ligatures in Latin lookup 15 subtable" f l
LCarets2: 1 0 
EndChar

StartChar: f_f
Encoding: 65538 -1 78
Width: 558
VWidth: 0
Flags: HW
AnchorPoint: "r;o" 558 200 basechar 0
AnchorPoint: "r;hi" 558 650 basechar 0
AnchorPoint: "r;x" 558 380 basechar 0
AnchorPoint: "r;bl" 558 10 basechar 0
AnchorPoint: "l;o" 0 200 basechar 0
AnchorPoint: "l;x" 0 380 basechar 0
AnchorPoint: "l;bl" 0 10 basechar 0
LayerCount: 3
Fore
SplineSet
374.588333046 623.787759486 m 0
 399.033350289 659.436742964 431.128215741 681 489 681 c 0
 536.726904298 681 581 655.452880503 581 611 c 0
 581 585.668977315 545.458971724 561 530 561 c 0
 520.700685128 561 515.226372887 563.00305613 514.026316298 572.60350884 c 0
 507.894539298 618.591836342 503.864793641 653 470 653 c 0
 415.528602145 653 413 592.129707574 413 519 c 0
 413 389 l 0
 413 374.773265331 410.741394147 375 430 375 c 0
 546 375 l 0
 550.700694289 375 556 372.452750316 556 367 c 0
 556 362.739408378 553.336274711 344 545 344 c 0
 430 344 l 0
 415.435807554 344 416 343.451045626 416 335 c 0
 416 169 l 0
 416 102.210492394 418.876667878 35.7116975833 423.696478868 28 c 1
 489 28 l 0
 502.521497439 28 505 21.6390711572 505 12 c 0
 505 2.80239298519 503.848009554 -5 489 -5 c 0
 469.878272187 -5 411.91256702 -3 383 -3 c 0
 358.169682392 -3 335.144351876 -5 305 -5 c 0
 290.542533761 -5 289 0.661451141529 289 12 c 0
 289 21.7652861333 292.373800174 28 304 28 c 0
 339.402916777 28 l 1
 341.27367829 35.6002489747 342 60.6542198551 342 88 c 0
 342 122.963100058 341 160.896618504 341 172 c 0
 341 232 l 0
 341 276.969371235 340 318.913162547 340 334 c 0
 340 343.312174209 339.610990088 344 325 344 c 0
 176 344 l 0
 161.435807554 344 162 343.451045626 162 335 c 0
 162 169 l 0
 162 102.210492394 164.876667878 35.7116975833 169.696478868 28 c 1
 225 28 l 0
 238.521497439 28 241 21.6390711572 241 12 c 0
 241 2.80239298519 239.848009554 -5 225 -5 c 0
 205.862329757 -5 157.902656512 -3 129 -3 c 0
 104.169682392 -3 81.1443518755 -5 51 -5 c 0
 36.5425337613 -5 35 0.661451141529 35 12 c 0
 35 21.7652861333 38.3738001745 28 50 28 c 0
 85.4029167775 28 l 1
 87.2736782896 35.6002489747 88 60.6542198551 88 88 c 0
 88 122.963100058 87 160.896618504 87 172 c 0
 87 232 l 0
 87 266.627505118 86.8047271326 331.161047695 85.6180458009 343 c 1
 53 343 l 0
 41.4142555816 343 36 345.596343058 36 359 c 0
 36 371.854788339 39.9446743519 375 50 375 c 0
 79 375 l 0
 86.8344604542 375 86 373.592904642 86 384 c 0
 86 461.669383793 88.6056524829 599.72793655 193.717256069 648.711984823 c 1
 219.033120798 660.863599893 244.506863277 667 269 667 c 0
 305.800651985 667 340.439895677 652.779097099 368.948650339 625.288512246 c 0
 373.008156111 622.328891024 l 1
 373.168712463 622.393867558 373.680193696 622.652585298 374.588333046 623.787759486 c 0
343.996169277 562.761190036 m 0
 333.852460187 570.876157308 325.640206235 579.061306526 319.3869492 590.52561109 c 0
 305.381415169 614.535098 290.205660151 638 257 638 c 0
 160.76962478 638 159 501.231345888 159 425 c 0
 159 386 l 0
 159 375.511559725 158.381682322 375 176 375 c 0
 323 375 l 0
 339.681360284 375 338 374.327391968 338 385 c 0
 338 423.918836471 337 423.895177095 337 464 c 0
 337 518.0224307 346 555.231405868 346 558 c 0
 346 560.233561112 345.603614223 561.15374509 343.996169277 562.761190036 c 0
EndSplineSet
Layer: 2
SplineSet
309.589171432 579.617140739 m 1
 295.956998749 601.739367849 285.463385581 616 262 616 c 0
 177.451000617 616 183.078667628 481.135942308 180.08752276 365 c 1
 325.451120354 365 l 1
 326.397590544 380.650152948 325 453.765912377 325 464 c 0
 325 504.199780003 330.099052503 536.797109154 332.530580798 550.689113187 c 1
 320.702686808 561.404277071 316.136065345 567.035417082 309.589171432 579.617140739 c 1
502.139835556 569.944794793 m 1
 495.351365342 618.047570455 491.486093608 631 475 631 c 0
 440.266445181 631 435 595.443715888 435 519 c 0
 435 365 l 1
 551 365 l 0
 559.505024563 365 578 359.513698839 578 340.050512567 c 1
 578 340.050512567 580.165643464 300 550 300 c 0
 438 300 l 1
 438 169 l 0
 438 121.224821234 440.29005979 70.2404930396 442.418406358 50 c 1
 494 50 l 0
 520.633733466 50 527 26.9684030865 527 12 c 0
 527 -1.33864256715 517.939920762 -17 494 -17 c 0
 474.193846854 -17 416.412270211 -15 388 -15 c 0
 364.152500727 -15 340.939370087 -17 310 -17 c 0
 288.135681655 -17 277 -4.12343143392 277 12 c 0
 277 27.349546956 283.847950124 50 309 50 c 0
 329.217115659 50 l 1
 329.89415916 61.7020083396 330 72.7363666093 330 88 c 0
 330 122.749973406 329 160.315426156 329 172 c 0
 329 232 l 0
 329 270.218079371 328.287462641 287.730684299 328.06520094 300 c 1
 184 300 l 1
 184 169 l 0
 184 121.224821234 186.29005979 70.2404930396 188.418406358 50 c 1
 230 50 l 0
 256.633733466 50 263 26.9684030865 263 12 c 0
 263 -1.33864256715 253.939920762 -17 230 -17 c 0
 210.089057637 -17 162.345315229 -15 134 -15 c 0
 110.152500727 -15 86.9393700875 -17 56 -17 c 0
 34.1356816553 -17 23 -4.12343143392 23 12 c 0
 23 27.349546956 29.8479501241 50 55 50 c 0
 75.2171156593 50 l 1
 75.8941591601 61.7020083396 76 72.7363666093 76 88 c 0
 76 122.749973406 75 160.315426156 75 172 c 0
 75 232 l 0
 75 253.800153832 74.8052633032 279.020492958 74.5423653178 293 c 1
 58 293 l 0
 41.0540743887 293 24 302.409816624 24 326 c 0
 24 345.931105846 36.2957100863 359 55 359 c 0
 74.0053235914 359 l 1
 74.1715126757 472.984811199 77.7645693515 606.867105772 191.535676457 659.588761205 c 0
 218.805682711 672.22571192 246.69802991 679 274 679 c 0
 313.038252732 679 349.570201131 663.574531189 378.05567993 640.363990442 c 1
 400.208104593 655.582708405 455.93669234 693 494 693 c 0
 544.917656998 693 603 667.006195395 603 611 c 0
 603 571.589923559 560.424555889 539 535 539 c 0
 519.639203871 539 504.205311663 548.052255714 502.139835556 569.944794793 c 1
EndSplineSet
Ligature2: "'liga' Standard Ligatures in Latin lookup 15 subtable" f f
LCarets2: 1 0 
EndChar

StartChar: f_f_i
Encoding: 65539 -1 79
Width: 750
VWidth: 0
Flags: HW
AnchorPoint: "r;bl" 750 10 basechar 0
AnchorPoint: "r;x" 740 380 basechar 0
AnchorPoint: "r;o" 740 200 basechar 0
AnchorPoint: "l;bl" 0 10 basechar 0
AnchorPoint: "l;x" 0 380 basechar 0
AnchorPoint: "l;o" 0 200 basechar 0
LayerCount: 3
Fore
SplineSet
266 667 m 0
 309.843933486 667 353.27751334 644.36772663 378.884063164 610.294955928 c 1
 410.201832154 656.448421921 457.635398389 681 514 681 c 0
 597.138017719 681 644 627.272405241 644 590 c 0
 644 564.695248027 610.466986407 542 595 542 c 0
 585.699910875 542 580.228805131 543.98278571 579.02316637 553.627895796 c 0
 579.012412016 553.71393063 l 1
 579.006644526 553.800442968 l 0
 573.064213171 642.936913304 544.487462756 653 509 653 c 0
 419.845965346 653 412 518.257327347 412 409 c 0
 412 385 l 0
 412 374.407560444 410.233573585 375 428 375 c 0
 545 375 l 0
 564.781572335 375 644.757266218 380 658 380 c 0
 664.772132396 380 668 377.269416608 668 371 c 0
 668 201 l 0
 668 143.997104282 668.000815614 94.0633961098 670.995853488 37.1576764994 c 0
 671 37.0788927713 l 1
 671 37 l 0
 671 28.1196105126 669.761784699 28 678 28 c 0
 709 28 l 0
 720.849409717 28 723 21.3633236434 723 12 c 0
 723 3.09498112248 722.172330471 -5 709 -5 c 0
 689.830864162 -5 654.881309435 -3 630 -3 c 0
 605.119791594 -3 565.150535794 -5 546 -5 c 0
 533.236417146 -5 532 0.939196673081 532 12 c 0
 532 21.7624947763 534.623405407 28 549 28 c 0
 585 28 l 0
 594.660506783 28 593 27.322475669 593 37.0517087713 c 1
 594.002196583 66.1154096805 594 88.9622499958 594 119 c 0
 594 188.936070356 592.99745845 260.000226554 590.004729112 332.823307115 c 1
 589.043181936 345.323420399 588.561670368 344 583 344 c 0
 426 344 l 0
 411.435807554 344 412 343.451045626 412 335 c 0
 412 169 l 0
 412 102.210492394 414.876667878 35.7116975833 419.696478868 28 c 1
 468 28 l 0
 481.521497439 28 484 21.6390711572 484 12 c 0
 484 2.80239298519 482.848009554 -5 468 -5 c 0
 448.841032946 -5 410.890743169 -3 382 -3 c 0
 357.157525485 -3 329.13133374 -5 299 -5 c 0
 284.542533761 -5 283 0.661451141529 283 12 c 0
 283 21.7652861333 286.373800174 28 298 28 c 0
 336.402916777 28 l 1
 338.27367829 35.6002489747 339 60.6542198551 339 88 c 0
 339 122.963100058 338 160.896618504 338 172 c 0
 338 252 l 0
 338 285.897500204 337.834049798 332.481156377 336.705443341 343.010430198 c 1
 323.51637027 343.144486453 306.424317195 344 297 344 c 0
 173 344 l 0
 158.435807554 344 159 343.451045626 159 335 c 0
 159 169 l 0
 159 102.210492394 161.876667878 35.7116975833 166.696478868 28 c 1
 222 28 l 0
 235.521497439 28 238 21.6390711572 238 12 c 0
 238 2.80239298519 236.848009554 -5 222 -5 c 0
 202.862329757 -5 154.902656512 -3 126 -3 c 0
 101.169682392 -3 78.1443518755 -5 48 -5 c 0
 33.5425337613 -5 32 0.661451141529 32 12 c 0
 32 21.7652861333 35.3738001745 28 47 28 c 0
 82.4029167775 28 l 1
 84.2736782896 35.6002489747 85 60.6542198551 85 88 c 0
 85 122.963100058 84 160.896618504 84 172 c 0
 84 238 l 0
 84 272.445425125 83.8136986283 331.498112756 82.640905204 343 c 1
 50 343 l 0
 38.4142555816 343 33 345.596343058 33 359 c 0
 33 371.854788339 36.9446743519 375 47 375 c 0
 76 375 l 0
 83.8344604542 375 83 373.592904642 83 384 c 0
 83 476.685365239 85.7039778255 599.773758069 190.717256069 648.711984823 c 1
 216.033120798 660.863599893 241.506863277 667 266 667 c 0
344.302623314 556.526033182 m 0
 326.687959688 568.959913388 323.256572612 578.746901682 313.401060577 595.501272142 c 1
 300.489997582 618.343922057 284.390714482 638 254 638 c 0
 145.797202205 638 158.04471043 499.583202377 155 388.958723412 c 1
 155 375.06689111 153.614143376 375 173 375 c 0
 332 375 l 0
 335.417558294 375 337.303997539 375.236222485 337.604853453 375.325567574 c 1
 337.89598529 376.212077133 338 377.457175395 338 380 c 0
 338 406.055939252 337.939618824 485.057601396 348.071438819 530.650791373 c 0
 350.122505787 539.880592727 352 544.840579681 352 549 c 0
 352 551.019887796 350.701318184 552.260236602 344.302623314 556.526033182 c 0
EndSplineSet
Ligature2: "'liga' Standard Ligatures in Latin lookup 15 subtable" f f i
LCarets2: 2 0 0 
EndChar

